<svg width="32" height="32" viewBox="0 0 32 32" fill="none" xmlns="http://www.w3.org/2000/svg">
  <path
    d="M0 16C0 24.8366 7.16344 32 16 32C24.8366 32 32 24.8366 32 16C32 7.16344 24.8366 0 16 0C7.16344 0 0 7.16344 0 16Z"
    fill="#FAFAFA" />
  <path
    d="M16 25C20.9706 25 25 20.9706 25 16C25 11.0294 20.9706 7 16 7C11.0294 7 7 11.0294 7 16C7 20.9706 11.0294 25 16 25ZM15.9984 10.7687C18.9657 10.7687 21.387 12.6281 21.5212 14.9619C21.5303 15.105 21.5321 15.2484 21.5265 15.3916C21.5187 15.5039 21.5041 15.6156 21.4829 15.7261C21.4135 16.1515 21.2704 16.5616 21.0601 16.9378C20.9611 17.1164 20.4763 17.7959 20.3275 17.9749C19.5103 18.9596 18.1414 20.096 15.8524 21.2006C15.8039 21.2241 15.7501 21.2342 15.6964 21.2299C15.6427 21.2255 15.5912 21.2068 15.5471 21.1758C15.5031 21.1447 15.4682 21.1025 15.4461 21.0534C15.4239 21.0043 15.4154 20.9501 15.4212 20.8966L15.5366 19.8584C15.541 19.8191 15.5376 19.7793 15.5266 19.7412C15.5155 19.7032 15.4971 19.6677 15.4723 19.6369C15.4475 19.606 15.4169 19.5803 15.3822 19.5613C15.3474 19.5423 15.3093 19.5304 15.2699 19.5262C12.5606 19.2426 10.4695 17.3988 10.4695 15.1664C10.4697 12.7376 12.945 10.7687 15.9984 10.7687Z"
    fill="black" />
  <path
    d="M12.6417 16.4239H13.773C13.848 16.4239 13.9199 16.3941 13.9729 16.3411C14.026 16.288 14.0557 16.2161 14.0557 16.1411C14.0557 16.0661 14.026 15.9942 13.9729 15.9412C13.9199 15.8882 13.848 15.8584 13.773 15.8584H12.9244V14.0059C12.9244 13.9309 12.8946 13.859 12.8416 13.806C12.7886 13.7529 12.7166 13.7231 12.6417 13.7231C12.5667 13.7231 12.4947 13.7529 12.4417 13.806C12.3887 13.859 12.3589 13.9309 12.3589 14.0059V16.141C12.3589 16.2161 12.3887 16.288 12.4417 16.3411C12.4948 16.3941 12.5667 16.4239 12.6417 16.4239Z"
    fill="black" />
  <path
    d="M15.597 16.4241C15.672 16.4241 15.744 16.3943 15.797 16.3412C15.8501 16.2882 15.8799 16.2162 15.8799 16.1412V14.8447C15.8799 14.8447 17.0265 16.3308 17.0436 16.3468C17.0952 16.396 17.1636 16.4236 17.2349 16.424C17.3115 16.422 17.3844 16.3901 17.4377 16.3351C17.4911 16.28 17.5207 16.2062 17.5203 16.1296V14.0061C17.5194 13.9317 17.4892 13.8606 17.4363 13.8083C17.3833 13.756 17.3119 13.7266 17.2375 13.7266C17.163 13.7266 17.0916 13.756 17.0387 13.8083C16.9857 13.8606 16.9555 13.9317 16.9546 14.0061V15.3105C16.9546 15.3105 15.8251 13.8373 15.808 13.818C15.7803 13.7868 15.746 13.7622 15.7076 13.7459C15.6693 13.7296 15.6278 13.722 15.5861 13.7236C15.5117 13.7284 15.442 13.7615 15.3914 13.8163C15.3408 13.8711 15.3132 13.9432 15.3143 14.0177V16.1412C15.3143 16.2162 15.3441 16.2881 15.3971 16.3412C15.4501 16.3942 15.522 16.424 15.597 16.4241Z"
    fill="black" />
  <path
    d="M14.5455 16.424H14.6691C14.6982 16.424 14.7269 16.4182 14.7537 16.4071C14.7805 16.396 14.8049 16.3797 14.8254 16.3592C14.8459 16.3386 14.8622 16.3143 14.8733 16.2874C14.8844 16.2606 14.8901 16.2319 14.8901 16.2028V13.9441C14.8901 13.8855 14.8668 13.8293 14.8254 13.7879C14.7839 13.7464 14.7277 13.7232 14.6691 13.7231H14.5455C14.4869 13.7232 14.4307 13.7464 14.3892 13.7879C14.3478 13.8293 14.3245 13.8855 14.3245 13.9441V16.2028C14.3245 16.2319 14.3302 16.2606 14.3413 16.2874C14.3524 16.3143 14.3687 16.3386 14.3892 16.3592C14.4097 16.3797 14.4341 16.396 14.4609 16.4071C14.4877 16.4182 14.5164 16.424 14.5455 16.424Z"
    fill="black" />
  <path
    d="M18.227 16.4241H19.3583C19.4333 16.4241 19.5052 16.3943 19.5583 16.3412C19.6113 16.2882 19.6411 16.2163 19.6411 16.1413C19.6411 16.0663 19.6113 15.9944 19.5583 15.9413C19.5052 15.8883 19.4333 15.8585 19.3583 15.8585H18.5098V15.3565H19.3582C19.4327 15.3556 19.5037 15.3254 19.556 15.2724C19.6083 15.2195 19.6377 15.1481 19.6377 15.0736C19.6377 14.9992 19.6083 14.9278 19.556 14.8748C19.5037 14.8219 19.4327 14.7917 19.3582 14.7907H18.5098V14.2888H19.3582C19.4332 14.2888 19.5051 14.259 19.5581 14.206C19.6111 14.1529 19.6409 14.081 19.6409 14.0061C19.6409 13.9311 19.6111 13.8592 19.5581 13.8062C19.5051 13.7532 19.4332 13.7234 19.3582 13.7234H18.227C18.152 13.7234 18.0801 13.7532 18.0271 13.8062C17.9741 13.8592 17.9443 13.9311 17.9443 14.0061V16.1412C17.9443 16.1783 17.9516 16.2151 17.9658 16.2494C17.98 16.2837 18.0008 16.3149 18.0271 16.3412C18.0533 16.3674 18.0845 16.3883 18.1188 16.4025C18.1531 16.4167 18.1899 16.424 18.227 16.4241Z"
    fill="black" />
</svg>