<svg width="19" height="19" viewBox="0 0 19 19" fill="none" xmlns="http://www.w3.org/2000/svg">
<path d="M9.39154 0.846832C4.21445 0.846832 0 4.28883 0 8.51894C0 12.3076 3.34182 15.482 7.85367 16.0854C8.15968 16.1503 8.57604 16.2889 8.68169 16.5503C8.77561 16.7874 8.74352 17.1537 8.71143 17.401L8.58308 18.204C8.54786 18.4411 8.39525 19.1376 9.40406 18.7119C10.4144 18.2877 14.8167 15.5 16.7889 13.2186C18.1382 11.7316 18.7831 10.2078 18.7831 8.51894C18.7831 4.28883 14.5686 0.846832 9.39154 0.846832ZM5.71553 11.0343H3.84818C3.57818 11.0343 3.35513 10.8097 3.35513 10.5389V6.7815C3.35513 6.50993 3.57818 6.28531 3.84818 6.28531C4.12054 6.28531 4.34124 6.50993 4.34124 6.7815V10.0427H5.71553C5.98789 10.0427 6.20781 10.2658 6.20781 10.5389C6.20781 10.8097 5.9871 11.0343 5.71553 11.0343ZM7.64549 10.5389C7.64549 10.8097 7.42479 11.0343 7.15165 11.0343C6.88165 11.0343 6.66095 10.8097 6.66095 10.5389V6.7815C6.66095 6.50993 6.88165 6.28531 7.154 6.28531C7.42479 6.28531 7.64549 6.50993 7.64549 6.7815V10.5389ZM12.1386 10.5389C12.1386 10.7518 12.0024 10.9404 11.8005 11.0085C11.7504 11.0249 11.6964 11.0327 11.6447 11.0327C11.4796 11.0327 11.3387 10.9615 11.2456 10.8355L9.33362 8.2231V10.5381C9.33362 10.8089 9.11527 11.0335 8.83978 11.0335C8.56899 11.0335 8.34986 10.8089 8.34986 10.5381V6.7815C8.34986 6.56863 8.48525 6.38001 8.68639 6.31271C8.73335 6.29471 8.79283 6.28688 8.83822 6.28688C8.99083 6.28688 9.1317 6.36906 9.22562 6.48723L11.1524 9.10982V6.7815C11.1524 6.50993 11.3731 6.28531 11.6455 6.28531C11.9155 6.28531 12.1386 6.50993 12.1386 6.7815V10.5389ZM15.1556 8.16362C15.4287 8.16362 15.6486 8.38824 15.6486 8.66059C15.6486 8.93216 15.4287 9.15678 15.1556 9.15678H13.7821V10.0427H15.1556C15.4287 10.0427 15.6486 10.2658 15.6486 10.5389C15.6486 10.8097 15.4287 11.0343 15.1556 11.0343H13.2882C13.0182 11.0343 12.7975 10.8097 12.7975 10.5389V6.7815C12.7975 6.50993 13.0182 6.28531 13.2906 6.28531H15.1579C15.4287 6.28531 15.6486 6.50993 15.6486 6.7815C15.6486 7.0562 15.4287 7.27769 15.1556 7.27769H13.7821V8.16362H15.1556Z" fill="black"/>
</svg>
