<svg width="100" height="85" viewBox="0 0 100 85" fill="currentColor"
  xmlns="http://www.w3.org/2000/svg">
  <path fill-rule="evenodd" clip-rule="evenodd"
    d="M33.277 12.0301V0C22.1283 2.70949 13.7951 8.83285 8.27703 18.3703C2.75898 27.9077 0 40.8588 0 57.2241L0 84.2105H37.5V48.1203L21.4527 48.1203V44.3812C21.4527 35.6025 22.4381 28.5308 24.4088 23.166C26.3795 17.8012 29.3356 14.0893 33.277 12.0301ZM95.777 12.0301V0C84.6283 2.70949 76.2951 8.83285 70.777 18.3703C65.259 27.9077 62.5 40.8588 62.5 57.2241V84.2105H100L100 48.1203L83.9527 48.1203V44.3812C83.9527 35.6025 84.938 28.5308 86.9088 23.166C88.8795 17.8012 91.8356 14.0893 95.777 12.0301Z"
    fill="currentColor" />
</svg>