<svg width="429" height="378" viewBox="0 0 429 378" fill="none" xmlns="http://www.w3.org/2000/svg">
<path d="M248.921 313.133C325.436 313.133 387.463 251.106 387.463 174.591C387.463 98.0767 325.436 36.0493 248.921 36.0493C172.406 36.0493 110.379 98.0767 110.379 174.591C110.379 251.106 172.406 313.133 248.921 313.133Z" fill="#FACCCC"/>
<path d="M185.683 178.071H102.493C88.084 178.071 76.4482 166.381 76.4482 152.026V26.099C76.4482 15.3875 67.7486 6.74223 57.0915 6.74223H3.37112C1.52244 6.74223 0 5.21979 0 3.37112C0 1.52244 1.52244 0 3.37112 0H57.0371C71.4459 0 83.0817 11.6902 83.0817 26.0446V151.972C83.0817 162.684 91.7814 171.329 102.438 171.329H185.629V178.071H185.683Z" fill="#14465A"/>
<path d="M167.689 185.575H154.368C151.16 185.575 148.604 183.019 148.604 179.811V169.589C148.604 167.849 149.365 166.272 150.616 165.185C151.595 164.315 152.899 163.825 154.368 163.825H167.689V185.575V185.575Z" fill="#155163"/>
<path d="M198.787 196.938H172.144C168.012 196.938 164.695 193.622 164.695 189.489V159.911C164.695 155.778 168.012 152.461 172.144 152.461H198.787V196.938Z" fill="#288CB3"/>
<path d="M204.66 150.341V199.113C204.66 199.929 204.007 200.581 203.192 200.581H200.256C199.44 200.581 198.788 199.929 198.788 199.113V150.341C198.788 149.525 199.44 148.873 200.256 148.873H203.192C204.007 148.873 204.66 149.525 204.66 150.341Z" fill="#288CB3"/>
<path d="M204.659 168.066V160.509H222.765C224.831 160.509 226.571 162.194 226.571 164.315C226.571 166.381 224.885 168.121 222.765 168.121H204.659V168.066Z" fill="#288CB3"/>
<path d="M204.659 188.946V181.388H224.668C225.701 181.388 226.571 182.203 226.571 183.291V187.097C226.571 188.13 225.755 189 224.668 189H204.659V188.946Z" fill="#288CB3"/>
<path d="M198.789 196.938H172.146C168.014 196.938 164.697 193.622 164.697 189.489V159.911C164.697 155.778 168.014 152.461 172.146 152.461C174.375 184.378 198.789 187.314 198.789 187.314V196.938Z" fill="#155163"/>
<path d="M198.747 196.954V152.477H196.626V196.954H198.747Z" fill="#14465A"/>
<path d="M187.533 196.938H172.146C168.014 196.938 164.697 193.622 164.697 189.489V168.719C164.697 189.707 187.533 196.938 187.533 196.938Z" fill="#14465A"/>
<path d="M164.679 185.622V163.873H163.265V185.622H164.679Z" fill="#14465A"/>
<path d="M207.261 168.012V160.455H204.597V168.012H207.261Z" fill="#14465A"/>
<path d="M207.303 188.93V181.372H204.638V188.93H207.303Z" fill="#14465A"/>
<path d="M164.698 185.574H154.368C151.16 185.574 148.604 183.019 148.604 179.811V169.589C148.604 167.849 149.365 166.272 150.616 165.185C148.713 181.17 164.698 183.563 164.698 183.563V185.574Z" fill="#14465A"/>
<path d="M424.984 378C423.135 378 421.613 376.477 421.613 374.629V197.428C421.613 186.716 412.913 178.071 402.256 178.071H314.335V171.383H402.201C416.61 171.383 428.246 183.073 428.246 197.428V374.629C428.3 376.477 426.832 378 424.984 378Z" fill="#14465A"/>
<path d="M321.895 185.575H335.216C338.424 185.575 340.979 183.019 340.979 179.811V169.589C340.979 167.849 340.218 166.272 338.968 165.185C337.989 164.315 336.684 163.825 335.216 163.825H321.895V185.575Z" fill="#155163"/>
<path d="M290.799 196.938H317.442C321.574 196.938 324.891 193.622 324.891 189.489V159.911C324.891 155.778 321.574 152.461 317.442 152.461H290.799V196.938Z" fill="#288CB3"/>
<path d="M284.926 150.341V199.113C284.926 199.929 285.578 200.581 286.394 200.581H289.33C290.146 200.581 290.798 199.929 290.798 199.113V150.341C290.798 149.525 290.146 148.873 289.33 148.873H286.394C285.578 148.873 284.926 149.525 284.926 150.341Z" fill="#288CB3"/>
<path d="M290.793 196.938H317.436C321.568 196.938 324.885 193.622 324.885 189.489V159.911C324.885 155.778 321.568 152.461 317.436 152.461C315.206 184.378 290.793 187.314 290.793 187.314V196.938Z" fill="#155163"/>
<path d="M292.93 196.957V152.48H290.809V196.957H292.93Z" fill="#14465A"/>
<path d="M302.047 196.938H317.434C321.567 196.938 324.883 193.622 324.883 189.489V168.719C324.883 189.707 302.047 196.938 302.047 196.938Z" fill="#14465A"/>
<path d="M326.233 185.616V163.867H324.82V185.616H326.233Z" fill="#14465A"/>
<path d="M324.883 185.574H335.214C338.422 185.574 340.977 183.019 340.977 179.811V169.589C340.977 167.849 340.216 166.272 338.965 165.185C340.923 181.116 324.883 183.563 324.883 183.563V185.574Z" fill="#14465A"/>
<path d="M261.697 116.412V102.656C261.697 101.623 262.567 100.753 263.6 100.753C264.633 100.753 265.503 101.623 265.503 102.656V116.412C265.503 117.445 264.633 118.315 263.6 118.315C262.567 118.315 261.697 117.445 261.697 116.412Z" fill="#14465A"/>
<path d="M279.146 133.866C279.146 132.833 280.015 131.963 281.049 131.963H294.805C295.838 131.963 296.708 132.833 296.708 133.866C296.708 134.899 295.838 135.769 294.805 135.769H281.049C280.015 135.769 279.146 134.953 279.146 133.866Z" fill="#14465A"/>
<path d="M274.315 121.251C274.315 120.762 274.479 120.273 274.859 119.892L284.32 110.431C285.081 109.67 286.277 109.67 286.984 110.431C287.746 111.192 287.746 112.389 286.984 113.096L277.523 122.556C276.762 123.318 275.566 123.318 274.859 122.556C274.533 122.23 274.315 121.741 274.315 121.251Z" fill="#14465A"/>
<path d="M219.073 233.042V246.798C219.073 247.831 218.203 248.701 217.17 248.701C216.137 248.701 215.267 247.831 215.267 246.798V233.042C215.267 232.009 216.137 231.139 217.17 231.139C218.203 231.139 219.073 231.955 219.073 233.042Z" fill="#14465A"/>
<path d="M201.62 215.534C201.62 216.567 200.75 217.437 199.717 217.437H185.961C184.928 217.437 184.058 216.567 184.058 215.534C184.058 214.501 184.928 213.631 185.961 213.631H199.717C200.75 213.631 201.62 214.501 201.62 215.534Z" fill="#14465A"/>
<path d="M206.455 228.203C206.455 228.692 206.292 229.182 205.911 229.562L196.451 239.023C195.689 239.784 194.493 239.784 193.786 239.023C193.025 238.262 193.025 237.066 193.786 236.359L203.247 226.898C204.008 226.137 205.205 226.137 205.911 226.898C206.238 227.224 206.455 227.714 206.455 228.203Z" fill="#14465A"/>
</svg>
