<svg id="Layer_1" data-name="Layer 1" xmlns="http://www.w3.org/2000/svg" viewBox="0 0 657.58 268.05"><defs><style>.cls-1{fill:#ff4f5b;}.cls-2{fill:#14465a;}.cls-3{fill:#288cb3;}.cls-4{opacity:0.4;}.cls-5{fill:#b7d9e6;}</style></defs><path class="cls-1" d="M410.71,177.46q.42,50-21.81,76.29T328,280.57Q289.18,281,266.2,255c-15.31-17.35-23.11-42.6-23.39-75.92l-.55-58.56q-.42-49.71,21.81-76.29t61.07-26.92q38.7-.42,61.63,25.8c15.31,17.45,23.11,42.7,23.38,75.92Zm-43.34-64.7c-.19-21-3.9-36.47-10.95-46.4s-17.45-15-30.91-14.85S301.84,56.8,295,66.91s-10.21,25.71-10,46.69l.65,71.09c.19,21.07,3.9,36.67,11,46.69s17.55,15,31,14.85,23.67-5.29,30.45-15.41,10.11-25.8,9.93-47Z" transform="translate(-10.42 -16.97)"/><path class="cls-2" d="M410.71,177.46q.42,50-21.81,76.29T328,280.57Q289.18,281,266.2,255c-15.31-17.35-23.11-42.6-23.39-75.92l-.55-58.56q-.42-49.71,21.81-76.29t61.07-26.92q38.7-.42,61.63,25.8c15.31,17.45,23.11,42.7,23.38,75.92Zm-43.34-64.7c-.19-21-3.9-36.47-10.95-46.4s-17.45-15-30.91-14.85S301.84,56.8,295,66.91s-10.21,25.71-10,46.69l.65,71.09c.19,21.07,3.9,36.67,11,46.69s17.55,15,31,14.85,23.67-5.29,30.45-15.41,10.11-25.8,9.93-47Z" transform="translate(-10.42 -16.97)"/><path class="cls-3" d="M435.4,177.18q.41,50-21.81,76.29T352.7,280.29q-38.85.42-61.81-25.62c-15.32-17.35-23.11-42.6-23.39-75.92l-.56-58.56q-.42-49.69,21.81-76.29T349.82,17q38.7-.42,61.63,25.8c15.31,17.45,23.11,42.7,23.39,75.92Zm-43.35-64.69c-.18-21-3.9-36.48-10.95-46.41s-17.45-14.94-30.91-14.85-23.66,5.29-30.53,15.41-10.21,25.71-10,46.68l.65,71.1c.19,21.06,3.9,36.66,11.05,46.68s17.54,15,31,14.85,23.67-5.29,30.44-15.41,10.12-25.8,9.93-47Z" transform="translate(-10.42 -16.97)"/><g class="cls-4"><path class="cls-5" d="M267.12,123.81c.09.09-5.66,2.41-12.81,5.1s-12.9,4.74-12.9,4.64,5.66-2.41,12.81-5.1S267,123.62,267.12,123.81Z" transform="translate(-10.42 -16.97)"/><path class="cls-5" d="M266.38,146.92c0,.09-5.2,2.41-11.7,5.1s-11.79,4.74-11.88,4.64,5.2-2.41,11.7-5.1S266.38,146.73,266.38,146.92Z" transform="translate(-10.42 -16.97)"/><path class="cls-5" d="M267.4,170c0,.09-5.1,2.41-11.51,5.1s-11.69,4.74-11.69,4.65,5.11-2.42,11.51-5.11S267.31,169.94,267.4,170Z" transform="translate(-10.42 -16.97)"/><path class="cls-5" d="M268.23,193.14c0,.09-5,2.41-11.32,5.11s-11.42,4.73-11.51,4.64,5-2.42,11.32-5.11S268.23,193.05,268.23,193.14Z" transform="translate(-10.42 -16.97)"/><path class="cls-5" d="M272.13,216.25a8.49,8.49,0,0,1-.83.47c-.56.27-1.4.55-2.42,1-2,.83-4.92,1.94-8,3.15s-6,2.32-8.07,3.06c-1,.38-1.86.65-2.51.84s-.93.28-.93.28a8.1,8.1,0,0,1,.84-.47c.55-.27,1.39-.55,2.41-1,2-.83,4.92-2,8.08-3.15s6-2.32,8.07-3.07c1-.37,1.86-.64,2.51-.83A6.36,6.36,0,0,1,272.13,216.25Z" transform="translate(-10.42 -16.97)"/><path class="cls-5" d="M279.37,237.41a17.58,17.58,0,0,1-3,1.3c-1.86.74-4.37,1.76-7.15,2.79s-5.38,1.95-7.24,2.59A15.11,15.11,0,0,1,259,245a19.71,19.71,0,0,1,3-1.3c1.85-.74,4.36-1.76,7.14-2.78s5.39-1.95,7.24-2.6Z" transform="translate(-10.42 -16.97)"/><path class="cls-5" d="M293.49,256.9a17.28,17.28,0,0,1-2.6,1.21c-1.67.65-3.9,1.58-6.41,2.51s-4.82,1.76-6.49,2.32a17.19,17.19,0,0,1-2.69.83,19.52,19.52,0,0,1,2.59-1.21c1.67-.64,3.9-1.57,6.41-2.5s4.82-1.76,6.49-2.32A9.79,9.79,0,0,1,293.49,256.9Z" transform="translate(-10.42 -16.97)"/><path class="cls-5" d="M308.89,269.62a18.2,18.2,0,0,1-1.39,1.2c-.93.65-2.14,1.58-3.53,2.51s-2.6,1.76-3.53,2.32-1.48.93-1.48.84a14.91,14.91,0,0,1,1.39-1.21c.93-.65,2.14-1.58,3.53-2.51s2.6-1.76,3.53-2.32A5,5,0,0,1,308.89,269.62Z" transform="translate(-10.42 -16.97)"/><path class="cls-5" d="M387.87,220.24c.09.09-7.24,3.53-16.43,7.61s-16.52,7.34-16.61,7.15,7.24-3.53,16.43-7.61S387.87,220.15,387.87,220.24Z" transform="translate(-10.42 -16.97)"/><path class="cls-5" d="M391.58,200.94c.1.09-5.75,2.87-13,6.12s-13.09,5.76-13.18,5.66,5.75-2.87,13-6.12S391.49,200.84,391.58,200.94Z" transform="translate(-10.42 -16.97)"/><path class="cls-5" d="M392.6,179.22c.09.09-5.47,2.69-12.34,5.85s-12.53,5.47-12.53,5.38,5.47-2.69,12.34-5.85S392.6,179,392.6,179.22Z" transform="translate(-10.42 -16.97)"/><path class="cls-5" d="M392,158.34c.1.09-5.29,2.59-11.88,5.56s-12,5.29-12.06,5.2,5.29-2.6,11.88-5.57S392,158.15,392,158.34Z" transform="translate(-10.42 -16.97)"/><path class="cls-5" d="M392.14,136.62c.1.09-5.29,2.6-11.88,5.57s-12.06,5.29-12.06,5.19,5.29-2.6,11.88-5.57S392.05,136.52,392.14,136.62Z" transform="translate(-10.42 -16.97)"/><path class="cls-5" d="M391.67,114.53c.1.09-5.29,2.6-11.88,5.57s-12.06,5.29-12.06,5.19,5.29-2.59,12-5.56C386.2,116.76,391.67,114.43,391.67,114.53Z" transform="translate(-10.42 -16.97)"/><path class="cls-5" d="M390.93,93.37c.1.09-5.1,2.5-11.6,5.47s-11.69,5.11-11.79,5,5.11-2.5,11.61-5.47S390.93,93.27,390.93,93.37Z" transform="translate(-10.42 -16.97)"/><path class="cls-5" d="M385.92,73.88c0,.09-4.55,2.22-10.21,4.82s-10.3,4.55-10.3,4.46,4.55-2.23,10.21-4.83S385.92,73.78,385.92,73.88Z" transform="translate(-10.42 -16.97)"/><path class="cls-5" d="M373.3,58.38a83.86,83.86,0,0,1-8.07,3.89A75.43,75.43,0,0,1,357,65.71a83.8,83.8,0,0,1,8.07-3.9C369.59,59.86,373.21,58.28,373.3,58.38Z" transform="translate(-10.42 -16.97)"/><path class="cls-5" d="M356.5,51.32a52.32,52.32,0,0,1-4.73,2.32,36.81,36.81,0,0,1-4.92,2c0-.09,2.13-1.11,4.73-2.32A49.45,49.45,0,0,1,356.5,51.32Z" transform="translate(-10.42 -16.97)"/><path class="cls-5" d="M268.14,95.69c.1.09-5.66,2.41-12.81,5.1s-12.9,4.73-12.9,4.64,5.67-2.41,12.81-5.1S268.14,95.59,268.14,95.69Z" transform="translate(-10.42 -16.97)"/><path class="cls-5" d="M275.29,66.91c.09.1-6.13,2.6-13.83,5.48s-14,5.11-14,5,6.13-2.6,13.84-5.47S275.29,66.73,275.29,66.91Z" transform="translate(-10.42 -16.97)"/><path class="cls-5" d="M293.85,38.33c.1.09-7.79,3.25-17.54,6.87s-17.63,6.49-17.73,6.4,7.8-3.25,17.54-6.87S293.85,38.24,293.85,38.33Z" transform="translate(-10.42 -16.97)"/></g><path class="cls-1" d="M164.58,189.61l32.3,1.4-1.48,34.24-32.3-1.39-2.51,56.9-42.51-1.86,2.51-56.9-109.8-4.82.09-26.08,117-168,43.9,1.95ZM53.39,184.69l68.68,3L126.62,83.9l-1-.37L121.79,91Z" transform="translate(-10.42 -16.97)"/><path class="cls-2" d="M164.58,189.61l32.3,1.4-1.48,34.24-32.3-1.39-2.51,56.9-42.51-1.86,2.51-56.9-109.8-4.82.09-26.08,117-168,43.9,1.95ZM53.39,184.69l68.68,3L126.62,83.9l-1-.37L121.79,91Z" transform="translate(-10.42 -16.97)"/><path class="cls-3" d="M191.58,190.73l32.3,1.39-1.48,34.25L190.1,225l-2.51,56.89L145.08,280l2.51-56.89-109.8-4.83.09-26.08,117-168,43.9,2ZM80.39,185.9l68.68,3,4.55-103.76-1-.38-3.81,7.43Z" transform="translate(-10.42 -16.97)"/><g class="cls-4"><path class="cls-5" d="M38.45,197.22a5.78,5.78,0,0,1-1,.56,32.38,32.38,0,0,1-3,1.39c-2.51,1.21-5.94,2.69-9.84,4.36s-7.43,3.07-10,4q-2,.69-3.06,1.11a10.73,10.73,0,0,1-1.11.37l1.11-.56c.84-.37,1.76-.74,3-1.3,2.6-1.11,6.13-2.5,9.93-4.17s7.24-3.06,9.84-4.27c1.21-.46,2.23-.93,3-1.3A9.29,9.29,0,0,0,38.45,197.22Z" transform="translate(-10.42 -16.97)"/><path class="cls-5" d="M54.22,168.27a15.18,15.18,0,0,1-1.48.74c-.93.46-2.32,1.11-4.08,1.86-3.44,1.57-8.26,3.71-13.55,5.93S24.9,181,21.37,182.37c-1.76.65-3.16,1.21-4.18,1.58s-1.58.56-1.58.47.56-.28,1.49-.65,2.41-1,4.18-1.77l13.64-5.75c5.29-2.23,10-4.27,13.64-5.76,1.67-.74,3.07-1.3,4.09-1.76C53.67,168.45,54.22,168.27,54.22,168.27Z" transform="translate(-10.42 -16.97)"/><path class="cls-5" d="M73.44,142.46l-1.49.75c-1,.46-2.41,1.11-4.27,1.85-3.62,1.58-8.63,3.72-14.1,5.94s-10.59,4.18-14.3,5.57c-1.85.65-3.34,1.21-4.36,1.58s-1.58.56-1.67.46.56-.27,1.58-.65,2.5-1,4.27-1.76c3.71-1.48,8.72-3.53,14.2-5.75s10.49-4.27,14.2-5.76c1.76-.74,3.25-1.3,4.27-1.76C72.79,142.65,73.34,142.46,73.44,142.46Z" transform="translate(-10.42 -16.97)"/><path class="cls-5" d="M150.38,172.26a5,5,0,0,1-1,.55,30.73,30.73,0,0,1-3,1.4c-2.51,1.11-5.94,2.59-9.84,4.17s-7.42,2.88-10,3.81c-1.3.46-2.32.83-3.07,1.11s-1.11.37-1.11.28.37-.18,1.11-.46,1.86-.75,3-1.21c2.6-1,6.13-2.41,9.94-4s7.23-3,9.93-4.08c1.2-.47,2.22-.93,3-1.21S150.29,172.26,150.38,172.26Z" transform="translate(-10.42 -16.97)"/><path class="cls-5" d="M147.23,225.44s-.38.18-1,.56-1.68.83-2.88,1.39c-2.42,1.11-5.76,2.6-9.56,4.18s-7.24,2.87-9.65,3.8l-3,1.11c-.75.28-1.12.38-1.12.28s.37-.18,1-.46,1.77-.74,2.88-1.21c2.6-1,5.94-2.41,9.65-4s7.06-3,9.56-4.08c1.12-.47,2.14-.93,2.88-1.21S147.23,225.35,147.23,225.44Z" transform="translate(-10.42 -16.97)"/><path class="cls-5" d="M146.75,244s-.37.19-1,.56-1.67.83-2.88,1.39c-2.41,1.11-5.75,2.6-9.56,4.18s-7.23,2.87-9.65,3.8c-1.2.47-2.23.84-3,1.12s-1.11.37-1.11.28.37-.19,1-.47,1.76-.74,2.88-1.2c2.6-1,5.94-2.42,9.65-4s7-3,9.56-4.08c1.11-.46,2.13-.93,2.88-1.21S146.75,244,146.75,244Z" transform="translate(-10.42 -16.97)"/><path class="cls-5" d="M146.29,262.66s-.37.18-1,.55-1.67.84-2.87,1.4c-2.42,1.11-5.76,2.59-9.56,4.17s-7.24,2.88-9.66,3.81c-1.2.46-2.22.83-3,1.11s-1.11.37-1.11.28.37-.19,1-.46,1.76-.75,2.88-1.21c2.6-1,5.94-2.41,9.65-4s7-3,9.56-4.08c1.11-.47,2.14-.93,2.88-1.21S146.29,262.56,146.29,262.66Z" transform="translate(-10.42 -16.97)"/><path class="cls-5" d="M150.84,152.58a5.34,5.34,0,0,1-1,.56c-.65.37-1.67.83-3,1.39-2.51,1.11-5.94,2.6-9.84,4.18s-7.43,2.87-10,3.8c-1.3.47-2.33.84-3.07,1.12s-1.11.37-1.11.27.37-.18,1.11-.46,1.86-.74,3-1.21c2.6-1,6.13-2.41,9.93-4s7.24-3,9.93-4.08c1.21-.47,2.23-.93,3-1.21A5.51,5.51,0,0,0,150.84,152.58Z" transform="translate(-10.42 -16.97)"/><path class="cls-5" d="M151.31,133a5.35,5.35,0,0,1-1,.55,30.73,30.73,0,0,1-3,1.4c-2.5,1.11-5.94,2.6-9.83,4.17s-7.43,2.88-10,3.81q-2,.69-3.06,1.11c-.74.28-1.11.37-1.11.28s.37-.18,1.11-.46,1.86-.75,3-1.21c2.6-1,6.13-2.41,9.93-4s7.24-3,9.93-4.08c1.21-.47,2.23-.93,3-1.21S151.31,132.9,151.31,133Z" transform="translate(-10.42 -16.97)"/><path class="cls-5" d="M151.87,113.32s-.37.19-1,.56-1.58.74-2.79,1.3c-2.41,1.11-5.66,2.5-9.37,4s-7.06,2.78-9.56,3.62c-1.21.46-2.23.74-2.88,1s-1.11.37-1.11.28.37-.19,1-.47,1.76-.74,2.87-1.2c2.51-1,5.85-2.32,9.47-3.81s6.87-2.88,9.47-3.9c1.11-.46,2.13-.83,2.88-1.2C151.5,113.41,151.87,113.23,151.87,113.32Z" transform="translate(-10.42 -16.97)"/><path class="cls-5" d="M154.09,94.94a31.75,31.75,0,0,1-4.83,2c-2.69,1-5,1.76-5,1.57a33.22,33.22,0,0,1,4.82-2C151.77,95.5,154,94.76,154.09,94.94Z" transform="translate(-10.42 -16.97)"/><path class="cls-5" d="M92.55,115.73l-1.48.75c-1,.46-2.42,1.11-4.27,1.85-3.62,1.58-8.63,3.72-14.11,5.94s-10.58,4.18-14.29,5.57c-1.86.65-3.34,1.21-4.36,1.58s-1.58.56-1.68.46.56-.27,1.58-.65,2.51-1,4.27-1.76c3.71-1.48,8.73-3.53,14.2-5.75s10.49-4.27,14.2-5.76c1.77-.74,3.25-1.3,4.27-1.76A14.1,14.1,0,0,1,92.55,115.73Z" transform="translate(-10.42 -16.97)"/><path class="cls-5" d="M111.77,88.91l-1.48.74c-1,.47-2.41,1.12-4.27,1.86-3.62,1.58-8.63,3.71-14.11,5.94S81.33,101.63,77.62,103c-1.86.65-3.34,1.21-4.36,1.58s-1.58.55-1.67.46a15.38,15.38,0,0,1,1.57-.65c1.12-.46,2.51-1,4.27-1.76,3.72-1.49,8.73-3.53,14.2-5.76s10.49-4.27,14.2-5.75c1.77-.74,3.25-1.3,4.27-1.76C111.22,89.1,111.77,88.91,111.77,88.91Z" transform="translate(-10.42 -16.97)"/><path class="cls-5" d="M129.49,62.18l-1.48.74c-1,.47-2.42,1.12-4.27,1.86-3.62,1.58-8.64,3.71-14.11,5.94S99.05,74.9,95.34,76.29C93.48,76.94,92,77.5,91,77.87s-1.57.55-1.67.46a16.41,16.41,0,0,1,1.58-.65c1.11-.46,2.51-1,4.27-1.76,3.71-1.49,8.72-3.53,14.2-5.76s10.49-4.27,14.2-5.75c1.76-.74,3.25-1.3,4.27-1.76Z" transform="translate(-10.42 -16.97)"/><path class="cls-5" d="M147.87,36.47l-1.48.74c-1,.47-2.42,1.12-4.27,1.86-3.62,1.58-8.63,3.71-14.2,5.94s-10.58,4.18-14.3,5.57c-1.85.65-3.34,1.21-4.36,1.58s-1.58.55-1.67.46.56-.28,1.58-.65,2.5-1,4.27-1.76c3.71-1.49,8.72-3.53,14.2-5.76s10.49-4.27,14.2-5.75c1.76-.74,3.25-1.3,4.27-1.76C147.32,36.66,147.87,36.47,147.87,36.47Z" transform="translate(-10.42 -16.97)"/></g><path class="cls-1" d="M605.44,190l32.21-3.16L641,221l-32.21,3.15,5.57,56.71L572,285l-5.57-56.71L457.13,239l-3.62-25.8L545.67,30.44l43.71-4.27ZM494.72,200.84l68.4-6.68L553,90.67l-1.11-.27-2.79,7.89Z" transform="translate(-10.42 -16.97)"/><path class="cls-2" d="M605.44,190l32.21-3.16L641,221l-32.21,3.15,5.57,56.71L572,285l-5.57-56.71L457.13,239l-3.62-25.8L545.67,30.44l43.71-4.27ZM494.72,200.84l68.4-6.68L553,90.67l-1.11-.27-2.79,7.89Z" transform="translate(-10.42 -16.97)"/><path class="cls-3" d="M632.45,187.39l32.21-3.16L668,218.39l-32.21,3.15,5.57,56.71L599,282.43l-5.57-56.71L484.14,236.39l-3.62-25.8L572.68,27.65l43.72-4.26ZM521.63,198.15,590,191.47,579.92,88.08l-1.11-.28L576,95.69Z" transform="translate(-10.42 -16.97)"/><g class="cls-4"><path class="cls-5" d="M481.74,215.32a8.44,8.44,0,0,1-.93.75c-.65.46-1.58,1-2.69,1.85-2.32,1.49-5.48,3.53-9.1,5.66s-6.87,4.09-9.28,5.39c-1.21.65-2.23,1.2-2.88,1.57s-1.11.56-1.11.47a10.28,10.28,0,0,1,1-.65c.74-.47,1.67-1,2.78-1.67,2.42-1.49,5.67-3.34,9.29-5.48s6.77-4.08,9.18-5.57c1.12-.65,2.05-1.2,2.79-1.67C481.37,215.51,481.74,215.23,481.74,215.32Z" transform="translate(-10.42 -16.97)"/><path class="cls-5" d="M493.23,184.42s-.46.37-1.3.92-2.13,1.4-3.71,2.42c-3.15,2-7.61,4.82-12.62,7.79s-9.47,5.57-12.81,7.43c-1.67.93-3,1.67-3.9,2.13l-1.48.75a11.91,11.91,0,0,1,1.39-.93c1-.56,2.32-1.39,3.8-2.32,3.35-2,7.8-4.64,12.72-7.61l12.62-7.61c1.58-.93,2.88-1.77,3.81-2.32C492.68,184.69,493.23,184.42,493.23,184.42Z" transform="translate(-10.42 -16.97)"/><path class="cls-5" d="M508.56,156.2s-.46.37-1.39,1-2.23,1.49-3.9,2.51c-3.34,2-8,4.82-13.18,7.89s-9.93,5.66-13.37,7.51c-1.76.93-3.15,1.67-4.08,2.23s-1.48.74-1.58.74a11.38,11.38,0,0,1,1.49-.92c1-.56,2.41-1.4,4-2.32,3.43-2.05,8.17-4.74,13.27-7.71s9.75-5.75,13.27-7.7c1.67-.93,3-1.76,4-2.32C508.1,156.39,508.56,156.11,508.56,156.2Z" transform="translate(-10.42 -16.97)"/><path class="cls-5" d="M588.92,174.86a9.5,9.5,0,0,1-.93.74c-.64.46-1.57,1-2.69,1.76-2.32,1.49-5.57,3.44-9.19,5.57s-7,3.9-9.37,5.2c-1.21.65-2.23,1.11-2.88,1.48s-1.11.56-1.11.47a10.28,10.28,0,0,1,1-.65c.74-.47,1.67-1,2.79-1.67,2.5-1.39,5.66-3.25,9.28-5.29s6.77-4,9.19-5.39c1.11-.65,2-1.2,2.78-1.67Z" transform="translate(-10.42 -16.97)"/><path class="cls-5" d="M593.38,227.85a8.44,8.44,0,0,1-.93.75c-.65.46-1.48,1-2.6,1.76-2.22,1.48-5.38,3.43-8.81,5.47s-6.69,3.9-9.1,5.2c-1.21.65-2.13,1.12-2.78,1.49a4.49,4.49,0,0,1-1,.46s.37-.28.92-.65c.75-.46,1.67-1,2.69-1.58,2.42-1.39,5.48-3.24,9-5.29s6.59-3.89,8.91-5.38c1.11-.65,2-1.21,2.69-1.58A3.06,3.06,0,0,1,593.38,227.85Z" transform="translate(-10.42 -16.97)"/><path class="cls-5" d="M595.52,246.41a8.44,8.44,0,0,1-.93.75c-.65.46-1.48,1-2.6,1.76-2.23,1.49-5.38,3.43-8.82,5.48s-6.68,3.9-9.09,5.19c-1.21.65-2.14,1.12-2.79,1.49a4.49,4.49,0,0,1-1,.46s.37-.27.93-.65c.74-.46,1.67-1,2.69-1.57,2.42-1.4,5.48-3.25,9-5.29s6.59-3.9,8.91-5.39c1.11-.65,1.94-1.2,2.69-1.58C595.15,246.51,595.52,246.32,595.52,246.41Z" transform="translate(-10.42 -16.97)"/><path class="cls-5" d="M597.65,264.88a8.44,8.44,0,0,1-.93.75c-.65.46-1.48,1-2.59,1.76-2.23,1.49-5.39,3.43-8.82,5.48s-6.68,3.9-9.1,5.19c-1.2.65-2.13,1.12-2.78,1.49a4.49,4.49,0,0,1-1,.46s.37-.28.93-.65c.74-.46,1.67-1,2.69-1.57,2.41-1.4,5.47-3.25,9-5.29s6.59-3.9,8.91-5.39c1.11-.65,1.95-1.2,2.69-1.58S597.65,264.79,597.65,264.88Z" transform="translate(-10.42 -16.97)"/><path class="cls-5" d="M586.7,155.37a8.38,8.38,0,0,1-.92.74c-.65.46-1.58,1-2.69,1.76-2.33,1.49-5.57,3.44-9.19,5.57s-7,3.9-9.38,5.2c-1.2.65-2.23,1.11-2.88,1.48s-1.11.56-1.11.47a10.28,10.28,0,0,1,1-.65c.74-.47,1.67-1,2.79-1.67,2.5-1.4,5.66-3.25,9.28-5.29s6.77-4,9.19-5.39c1.11-.65,2-1.2,2.78-1.67S586.7,155.27,586.7,155.37Z" transform="translate(-10.42 -16.97)"/><path class="cls-5" d="M584.47,135.78a7.88,7.88,0,0,1-.93.74c-.64.47-1.57,1-2.69,1.77-2.32,1.48-5.57,3.43-9.19,5.57s-7,3.89-9.37,5.19c-1.21.65-2.23,1.12-2.88,1.49s-1.11.56-1.11.46a10.28,10.28,0,0,1,1-.65c.74-.46,1.67-1,2.79-1.67,2.5-1.39,5.66-3.25,9.28-5.29s6.77-4,9.19-5.38c1.11-.65,2-1.21,2.78-1.67A5.55,5.55,0,0,1,584.47,135.78Z" transform="translate(-10.42 -16.97)"/><path class="cls-5" d="M582.15,116.29a4.4,4.4,0,0,1-.92.65c-.65.37-1.49,1-2.6,1.67-2.23,1.39-5.29,3.25-8.73,5.29s-6.59,3.71-8.91,4.92a25.24,25.24,0,0,1-2.78,1.39c-.65.28-1,.47-1,.47a4.73,4.73,0,0,1,.93-.65c.74-.47,1.57-.93,2.69-1.58,2.32-1.39,5.47-3.16,8.81-5.1s6.41-3.81,8.82-5.2c1-.65,1.95-1.12,2.69-1.58C581.78,116.38,582.15,116.2,582.15,116.29Z" transform="translate(-10.42 -16.97)"/><path class="cls-5" d="M581.79,97.73a30.68,30.68,0,0,1-4.55,2.69,33.55,33.55,0,0,1-4.74,2.32,30.68,30.68,0,0,1,4.55-2.69A29,29,0,0,1,581.79,97.73Z" transform="translate(-10.42 -16.97)"/><path class="cls-5" d="M523.78,127s-.46.38-1.39,1-2.23,1.48-3.9,2.5c-3.34,2-8,4.83-13.18,7.89s-9.93,5.66-13.37,7.52c-1.76.93-3.15,1.67-4.08,2.23s-1.48.74-1.58.74a11.94,11.94,0,0,1,1.49-.93c1-.56,2.41-1.39,4-2.32,3.43-2,8.17-4.73,13.27-7.7s9.75-5.76,13.27-7.71c1.67-.92,3-1.76,4-2.32Z" transform="translate(-10.42 -16.97)"/><path class="cls-5" d="M539,97.82s-.46.37-1.39,1-2.23,1.49-3.9,2.51c-3.34,2-8,4.82-13.18,7.89s-9.93,5.66-13.36,7.52c-1.77.92-3.16,1.67-4.09,2.22s-1.48.75-1.57.75a10,10,0,0,1,1.48-.93c1-.56,2.41-1.4,4-2.32,3.44-2,8.17-4.74,13.28-7.71s9.74-5.75,13.27-7.7c1.67-.93,3-1.76,4-2.32C538.53,98,539,97.73,539,97.82Z" transform="translate(-10.42 -16.97)"/><path class="cls-5" d="M552.82,68.77s-.46.37-1.39,1-2.23,1.49-3.9,2.51c-3.34,2-8,4.82-13.18,7.89S524.42,85.85,521,87.7c-1.77.93-3.16,1.68-4.09,2.23s-1.48.74-1.58.74a11.38,11.38,0,0,1,1.49-.92c1-.56,2.41-1.4,4-2.32,3.43-2.05,8.17-4.74,13.27-7.71S543.82,74,547.34,72c1.67-.93,3-1.76,4-2.32A13.37,13.37,0,0,1,552.82,68.77Z" transform="translate(-10.42 -16.97)"/><path class="cls-5" d="M567.49,40.74s-.46.37-1.39,1-2.22,1.49-3.9,2.51c-3.34,2-8,4.82-13.18,7.89s-9.93,5.66-13.36,7.52c-1.76.92-3.16,1.67-4.08,2.22s-1.49.75-1.58.75a10,10,0,0,1,1.48-.93c1-.56,2.42-1.39,4-2.32,3.44-2,8.17-4.74,13.28-7.71S558.49,45.94,562,44c1.67-.93,3-1.76,4-2.32A7.85,7.85,0,0,1,567.49,40.74Z" transform="translate(-10.42 -16.97)"/></g></svg>