<svg id="Layer_1" data-name="Layer 1" xmlns="http://www.w3.org/2000/svg" xmlns:xlink="http://www.w3.org/1999/xlink" viewBox="0 0 1212.85 295.9"><defs><style>.cls-1{fill:url(#linear-gradient);}.cls-2{fill:url(#linear-gradient-2);}.cls-3{fill:url(#linear-gradient-4);}.cls-4{fill:url(#linear-gradient-5);}.cls-5{fill:url(#linear-gradient-6);}.cls-6{fill:url(#linear-gradient-7);}.cls-7{fill:url(#linear-gradient-8);}.cls-8{fill:url(#linear-gradient-10);}.cls-9{fill:url(#linear-gradient-13);}.cls-10{fill:url(#linear-gradient-18);}.cls-11{fill:url(#linear-gradient-19);}.cls-12{fill:url(#linear-gradient-21);}.cls-13{fill:url(#linear-gradient-24);}.cls-14{fill:url(#linear-gradient-25);}.cls-15{fill:url(#linear-gradient-28);}.cls-16{fill:url(#linear-gradient-29);}.cls-17{fill:url(#linear-gradient-30);}.cls-18{fill:#d00;}.cls-19{fill:url(#linear-gradient-33);}.cls-20{fill:url(#linear-gradient-34);}.cls-21{fill:url(#linear-gradient-35);}.cls-22{fill:url(#linear-gradient-36);}.cls-23{fill:url(#linear-gradient-37);}.cls-24{fill:url(#linear-gradient-38);}.cls-25{fill:url(#linear-gradient-39);}.cls-26{fill:url(#linear-gradient-40);}.cls-27{fill:url(#linear-gradient-41);}.cls-28{fill:url(#linear-gradient-42);}.cls-29{fill:url(#linear-gradient-43);}.cls-30{fill:url(#linear-gradient-44);}.cls-31{fill:url(#linear-gradient-45);}.cls-32{fill:url(#linear-gradient-46);}.cls-33{fill:url(#linear-gradient-47);}.cls-34{fill:url(#linear-gradient-48);}.cls-35{fill:url(#linear-gradient-49);}.cls-36{fill:url(#linear-gradient-50);}.cls-37{fill:url(#linear-gradient-51);}.cls-38{fill:url(#linear-gradient-52);}.cls-39{fill:url(#linear-gradient-53);}.cls-40{fill:url(#linear-gradient-54);}.cls-41{fill:url(#linear-gradient-55);}.cls-42{fill:url(#linear-gradient-56);}.cls-43{fill:url(#linear-gradient-57);}.cls-44{fill:url(#linear-gradient-58);}.cls-45{fill:url(#linear-gradient-59);}.cls-46{fill:url(#linear-gradient-60);}.cls-47{fill:url(#linear-gradient-61);}.cls-48{fill:url(#linear-gradient-62);}</style><linearGradient id="linear-gradient" x1="264.48" y1="-129.37" x2="266.57" y2="-129.37" gradientTransform="matrix(1, 0, 0, -1, 0, 55.28)" gradientUnits="userSpaceOnUse"><stop offset="0" stop-color="#67dcf7"/><stop offset="0.25" stop-color="#47b3d4"/><stop offset="0.59" stop-color="#2183ab"/><stop offset="0.85" stop-color="#096491"/><stop offset="1" stop-color="#005987"/></linearGradient><linearGradient id="linear-gradient-2" x1="269.07" y1="-124.77" x2="269.86" y2="-124.77" xlink:href="#linear-gradient"/><linearGradient id="linear-gradient-4" x1="118.97" y1="4.85" x2="265.66" y2="-234.23" xlink:href="#linear-gradient"/><linearGradient id="linear-gradient-5" x1="126.83" y1="-132.62" x2="257.89" y2="-417.31" gradientTransform="matrix(1, 0, 0, -1, 0, 55.28)" gradientUnits="userSpaceOnUse"><stop offset="0" stop-color="#f40000"/><stop offset="0.01" stop-color="#f30000"/><stop offset="0.64" stop-color="#d50000"/><stop offset="1" stop-color="#ca0000"/></linearGradient><linearGradient id="linear-gradient-6" x1="73.61" y1="-67.36" x2="220.31" y2="-306.44" xlink:href="#linear-gradient"/><linearGradient id="linear-gradient-7" x1="65.42" y1="-88.08" x2="69.25" y2="-88.08" xlink:href="#linear-gradient"/><linearGradient id="linear-gradient-8" x1="87.95" y1="-148.49" x2="88.27" y2="-148.49" xlink:href="#linear-gradient"/><linearGradient id="linear-gradient-10" x1="58.07" y1="-78.55" x2="155.6" y2="-78.55" xlink:href="#linear-gradient"/><linearGradient id="linear-gradient-13" x1="30" y1="-114.04" x2="285.39" y2="-114.04" xlink:href="#linear-gradient"/><linearGradient id="linear-gradient-18" x1="72.04" y1="-145.19" x2="77.82" y2="-145.19" xlink:href="#linear-gradient"/><linearGradient id="linear-gradient-19" x1="57.62" y1="-108.18" x2="155.59" y2="-108.18" xlink:href="#linear-gradient"/><linearGradient id="linear-gradient-21" x1="201.6" y1="-32.02" x2="293.51" y2="-351.18" gradientTransform="matrix(1, 0, 0, -1, 0, 55.28)" gradientUnits="userSpaceOnUse"><stop offset="0" stop-color="#f40000"/><stop offset="1" stop-color="#ca0000"/></linearGradient><linearGradient id="linear-gradient-24" x1="87.95" y1="-148.51" x2="88.27" y2="-148.51" xlink:href="#linear-gradient"/><linearGradient id="linear-gradient-25" x1="43.62" y1="-188.26" x2="429.24" y2="-27.07" gradientTransform="matrix(1, 0, 0, -1, 0, 55.28)" gradientUnits="userSpaceOnUse"><stop offset="0" stop-color="#67dcf7"/><stop offset="0.22" stop-color="#4cb9d9"/><stop offset="0.58" stop-color="#2385ad"/><stop offset="0.85" stop-color="#0a6591"/><stop offset="1" stop-color="#005987"/></linearGradient><linearGradient id="linear-gradient-28" x1="90.86" y1="-93.36" x2="97.31" y2="-93.36" xlink:href="#linear-gradient"/><linearGradient id="linear-gradient-29" x1="89.98" y1="-96.36" x2="90.26" y2="-96.36" xlink:href="#linear-gradient"/><linearGradient id="linear-gradient-30" x1="90.86" y1="-95.14" x2="92.38" y2="-95.14" xlink:href="#linear-gradient"/><linearGradient id="linear-gradient-33" x1="344.48" y1="214.26" x2="416.95" y2="110.77" gradientUnits="userSpaceOnUse"><stop offset="0" stop-color="#67dcf7"/><stop offset="0.14" stop-color="#61d4f0"/><stop offset="0.35" stop-color="#50bede"/><stop offset="0.61" stop-color="#339abf"/><stop offset="0.91" stop-color="#0d6995"/><stop offset="1" stop-color="#005987"/></linearGradient><linearGradient id="linear-gradient-34" x1="591.79" y1="244.5" x2="684.61" y2="111.94" xlink:href="#linear-gradient-33"/><linearGradient id="linear-gradient-35" x1="733.06" y1="229.71" x2="805.34" y2="126.48" xlink:href="#linear-gradient-33"/><linearGradient id="linear-gradient-36" x1="901.39" y1="241.87" x2="986.69" y2="120.04" xlink:href="#linear-gradient-33"/><linearGradient id="linear-gradient-37" x1="1019.46" y1="223.13" x2="1098.87" y2="109.73" xlink:href="#linear-gradient-33"/><linearGradient id="linear-gradient-38" x1="1150.6" y1="261.22" x2="1228.58" y2="149.85" xlink:href="#linear-gradient-33"/><linearGradient id="linear-gradient-39" x1="469.83" y1="228.93" x2="542.09" y2="125.74" xlink:href="#linear-gradient-33"/><linearGradient id="linear-gradient-40" x1="379.04" y1="308.24" x2="1258.66" y2="543.93" gradientUnits="userSpaceOnUse"><stop offset="0" stop-color="#67dcf7"/><stop offset="0.25" stop-color="#47b3d4"/><stop offset="0.59" stop-color="#2183ab"/><stop offset="0.85" stop-color="#096491"/><stop offset="1" stop-color="#005987"/></linearGradient><linearGradient id="linear-gradient-41" x1="379.86" y1="297.95" x2="1307.67" y2="546.56" xlink:href="#linear-gradient-40"/><linearGradient id="linear-gradient-42" x1="380.32" y1="290.25" x2="1308.14" y2="538.86" xlink:href="#linear-gradient-40"/><linearGradient id="linear-gradient-43" x1="378.2" y1="281.71" x2="1341.67" y2="539.87" xlink:href="#linear-gradient-40"/><linearGradient id="linear-gradient-44" x1="384.33" y1="273.95" x2="1276.51" y2="513.01" xlink:href="#linear-gradient-40"/><linearGradient id="linear-gradient-45" x1="379.89" y1="260.07" x2="1321.6" y2="512.4" xlink:href="#linear-gradient-40"/><linearGradient id="linear-gradient-46" x1="393.18" y1="255.47" x2="1272.8" y2="491.16" xlink:href="#linear-gradient-40"/><linearGradient id="linear-gradient-47" x1="378.05" y1="240" x2="1327.84" y2="494.5" xlink:href="#linear-gradient-40"/><linearGradient id="linear-gradient-48" x1="397.92" y1="237.76" x2="1277.54" y2="473.46" xlink:href="#linear-gradient-40"/><linearGradient id="linear-gradient-49" x1="393.92" y1="225.12" x2="1291.49" y2="465.62" xlink:href="#linear-gradient-40"/><linearGradient id="linear-gradient-50" x1="372.49" y1="210.43" x2="1335.95" y2="468.58" xlink:href="#linear-gradient-40"/><linearGradient id="linear-gradient-51" x1="380.13" y1="203.23" x2="1321.84" y2="455.56" xlink:href="#linear-gradient-40"/><linearGradient id="linear-gradient-52" x1="370.96" y1="191.38" x2="1334.43" y2="449.54" xlink:href="#linear-gradient-40"/><linearGradient id="linear-gradient-53" x1="376.51" y1="184.22" x2="1326.3" y2="438.71" xlink:href="#linear-gradient-40"/><linearGradient id="linear-gradient-54" x1="403.94" y1="181.28" x2="1296.12" y2="420.34" xlink:href="#linear-gradient-40"/><linearGradient id="linear-gradient-55" x1="393.88" y1="165.87" x2="1311.51" y2="411.74" xlink:href="#linear-gradient-40"/><linearGradient id="linear-gradient-56" x1="405.67" y1="160.44" x2="1303.89" y2="401.12" xlink:href="#linear-gradient-40"/><linearGradient id="linear-gradient-57" x1="405.11" y1="167.48" x2="1302.19" y2="407.85" xlink:href="#linear-gradient-40"/><linearGradient id="linear-gradient-58" x1="400.99" y1="165.5" x2="1304.74" y2="407.66" xlink:href="#linear-gradient-40"/><linearGradient id="linear-gradient-59" x1="360.55" y1="135.73" x2="1332.43" y2="396.15" xlink:href="#linear-gradient-40"/><linearGradient id="linear-gradient-60" x1="412.8" y1="139.41" x2="1304.98" y2="378.47" xlink:href="#linear-gradient-40"/><linearGradient id="linear-gradient-61" x1="387.93" y1="127.27" x2="1317.79" y2="376.43" xlink:href="#linear-gradient-40"/><linearGradient id="linear-gradient-62" x1="410.49" y1="139.19" x2="1307.57" y2="379.56" xlink:href="#linear-gradient-40"/></defs><path class="cls-1" d="M266.57,183.55c-.66.74-1.35,1.47-2.09,2.18C265.2,185,265.9,184.29,266.57,183.55Z" transform="translate(-30 -52.05)"/><path class="cls-2" d="M269.86,179.52l-.2.29c-.2.25-.39.51-.62.77C269.34,180.21,269.6,179.85,269.86,179.52Z" transform="translate(-30 -52.05)"/><path class="cls-2" d="M269.86,179.52l-.2.29c-.2.25-.39.51-.62.77C269.34,180.21,269.6,179.85,269.86,179.52Z" transform="translate(-30 -52.05)"/><path class="cls-3" d="M181.43,52.05V210.83c-1,.06-2,.09-3,.13h-.15c-1.81.06-3.59.08-5.29.09h-.45c-1.6,0-3.18,0-4.74-.06-2.25-.06-4.43-.16-6.49-.28H161c-1.83-.11-3.64-.25-5.43-.4V73.48C155.6,61.66,167.18,52.05,181.43,52.05Z" transform="translate(-30 -52.05)"/><path class="cls-4" d="M190.17,242.39v87.09l-.13.59A23,23,0,0,1,167.7,348h-5.44V317.31a28.62,28.62,0,0,0,5.44-.76,25.17,25.17,0,0,0,2.93-.86,24.48,24.48,0,0,0,14.09-12.11v-60.9h.67c.48,0,1,0,1.45-.07C188,242.52,189.07,242.46,190.17,242.39Z" transform="translate(-30 -52.05)"/><path class="cls-5" d="M184.74,242.68V303.6a24.47,24.47,0,0,1-14.1,12.11,26,26,0,0,1-2.93.86,28.41,28.41,0,0,1-5.43.76h-6.67V242.42c1.72.11,3.46.2,5.21.27H161c2.44.1,4.6.16,6.57.19,1.65,0,3.31.05,5,.05H173q2.76,0,5.43-.06h.1c.94,0,1.89-.05,2.84-.08Z" transform="translate(-30 -52.05)"/><path class="cls-6" d="M69.25,141a55.31,55.31,0,0,0-3.83,4.81A52.1,52.1,0,0,1,69.25,141Z" transform="translate(-30 -52.05)"/><path class="cls-7" d="M88.25,203.88l-.32-.22A1.38,1.38,0,0,1,88.25,203.88Z" transform="translate(-30 -52.05)"/><path class="cls-6" d="M69.25,141a55.31,55.31,0,0,0-3.83,4.81A52.1,52.1,0,0,1,69.25,141Z" transform="translate(-30 -52.05)"/><path class="cls-8" d="M155.6,103.85v3.41c-53.08,7-92.92,29.39-97.53,56.55.1-.82.23-1.64.39-2.44.1-.52.21-1,.35-1.57l.27-1a2.58,2.58,0,0,1,.12-.42c.09-.31.18-.62.28-.9a1.36,1.36,0,0,1,.11-.38c.14-.41.28-.82.43-1.21s.32-.87.5-1.29.36-.86.55-1.29.39-.85.62-1.28.43-.85.62-1.24.45-.84.7-1.24.49-.82.75-1.24.52-.83.79-1.24.56-.83.85-1.24A57.27,57.27,0,0,1,69.23,141c.69-.78,1.42-1.56,2.18-2.32.38-.39.76-.77,1.15-1.14s.79-.76,1.2-1.13L75,135.27c1.24-1.13,2.59-2.22,4-3.28.49-.39,1-.77,1.5-1.13.91-.7,1.86-1.36,2.82-2,.5-.35,1-.68,1.52-1l1.58-1.06c.52-.34,1.06-.66,1.6-1s.94-.58,1.43-.86c.66-.39,1.34-.77,2-1.15l1.46-.8c1.19-.66,2.39-1.28,3.62-1.86.62-.31,1.2-.63,1.8-.89,1.16-.57,2.34-1.11,3.54-1.65.62-.3,1.32-.62,2-.88q3.15-1.37,6.46-2.62c.62-.25,1.24-.47,1.86-.7q3.23-1.19,6.6-2.27c.75-.25,1.5-.49,2.26-.72,5.36-1.65,11-3.1,16.76-4.39l2.34-.49c1.06-.22,2.11-.43,3.17-.62.78-.16,1.56-.29,2.35-.44l2.1-.37,1.69-.28c.37-.07.74-.11,1.13-.18l2.48-.38Z" transform="translate(-30 -52.05)"/><path class="cls-6" d="M69.25,141a55.31,55.31,0,0,0-3.83,4.81A52.1,52.1,0,0,1,69.25,141Z" transform="translate(-30 -52.05)"/><path class="cls-7" d="M88.25,203.88l-.32-.22A1.38,1.38,0,0,1,88.25,203.88Z" transform="translate(-30 -52.05)"/><path class="cls-9" d="M285.39,214.62a135.61,135.61,0,0,1-23.86,12.45l-.18.07A199.27,199.27,0,0,1,229.2,237l-.52.31h-.92a248.1,248.1,0,0,1-25,4c-4.1.46-8.32.82-12.62,1.08-1.1.07-2.2.13-3.31.18-.48,0-1,.06-1.45.08h-.67l-3.31.12-2.84.08h-.1q-2.67.06-5.43.06h-.47c-1.67,0-3.34,0-5,0-2,0-4.13-.1-6.58-.2h-.21q-2.62-.1-5.22-.27C83.62,238.09,30,207,30,169.07c0-18,12.29-35.27,34.61-48.56,11.17-6.66,24.49-12.18,39.57-16.4l.13,0a247.44,247.44,0,0,1,51.29-8.36v8.13l-2.49.36c-.83.11-1.66.24-2.48.37l-1.13.19-1.69.28-2.09.37c-.7.13-1.57.28-2.36.44-1.05.19-2.11.41-3.16.62l-2.35.49c-5.81,1.27-11.42,2.74-16.76,4.39-.75.23-1.51.47-2.26.72-2.24.72-4.44,1.47-6.59,2.27-.63.23-1.25.45-1.87.69q-3.32,1.24-6.45,2.62c-.68.29-1.34.58-2,.88-1.21.54-2.38,1.09-3.54,1.66-.62.29-1.24.58-1.81.88-1.24.61-2.45,1.23-3.62,1.87l-1.46.8c-.67.38-1.34.76-2,1.15-.49.28-1,.57-1.44.86l-1.6,1c-.53.34-1,.67-1.55,1s-1,.66-1.52,1q-1.45,1-2.82,2c-.52.37-1,.75-1.51,1.13-1.37,1.06-2.7,2.15-4,3.28-.42.36-.84.73-1.24,1.12s-.81.74-1.2,1.13-.77.75-1.15,1.14c-.76.76-1.49,1.54-2.18,2.32a52.1,52.1,0,0,0-3.83,4.81,11.89,11.89,0,0,0-.85,1.24c-.23.43-.54.83-.79,1.24s-.51.83-.75,1.24-.48.84-.7,1.24-.45.86-.62,1.25-.42.84-.62,1.27-.38.85-.55,1.29-.35.86-.5,1.29-.3.81-.43,1.21l-.12.38a6.69,6.69,0,0,0-.27.9,3.31,3.31,0,0,0-.12.42,10.63,10.63,0,0,0-.27,1c-.14.53-.25,1.05-.35,1.58q-.24,1.2-.39,2.43v.07a31.53,31.53,0,0,0-.44,5.22c0,10.6,5.36,20.6,14.85,29.41l-.42-.62.49.48c.46.45.93.89,1.42,1.34s1.15,1,1.75,1.55c.39.35.79.68,1.2,1s.62.5.91.75l.17.14c8.28,6.33,18.82,11.92,31,16.5h0c1.2.46,2.39.89,3.62,1.32a206,206,0,0,0,30.41,8c6.8,1.24,13.87,2.27,21.15,3h.06c2.87.28,5.76.52,8.69.72,3.37.22,6.83.38,10.26.46,1.16.05,2.34.07,3.52.08h4.41a271.41,271.41,0,0,0,35.92-2.35C249.48,227.93,269.43,222.23,285.39,214.62Z" transform="translate(-30 -52.05)"/><path class="cls-1" d="M266.57,183.55c-.66.74-1.35,1.47-2.09,2.18C265.2,185,265.9,184.29,266.57,183.55Z" transform="translate(-30 -52.05)"/><path class="cls-2" d="M269.86,179.52l-.2.29c-.2.25-.39.51-.62.77C269.34,180.21,269.6,179.85,269.86,179.52Z" transform="translate(-30 -52.05)"/><path class="cls-7" d="M88.25,203.88l-.32-.22A1.38,1.38,0,0,1,88.25,203.88Z" transform="translate(-30 -52.05)"/><path class="cls-2" d="M269.86,179.52l-.2.29c-.2.25-.39.51-.62.77C269.34,180.21,269.6,179.85,269.86,179.52Z" transform="translate(-30 -52.05)"/><path class="cls-10" d="M77.82,203c-1.91-1.47-3.68-3-5.34-4.5l-.43-.62.49.48L74,199.72c.49.45,1.15,1,1.74,1.55.39.35.8.69,1.2,1Z" transform="translate(-30 -52.05)"/><path class="cls-11" d="M86.67,154.83c-7.39,7.45-11.57,15.88-11.57,24.86,0,7.11,2.63,13.9,7.41,20.11,4.59,6,11.17,11.44,19.35,16.13a.3.3,0,0,0,.11.06l.23.12c2.17,1.24,4.46,2.43,6.83,3.54-12.25-4.57-22.79-10.17-31-16.5l-.17-.13-.92-.75c-.4-.33-.8-.67-1.19-1-.62-.51-1.18-1-1.75-1.55s-1-.89-1.42-1.34l-.5-.48.43.62c-9.49-8.81-14.85-18.8-14.85-29.41a31.53,31.53,0,0,1,.44-5.22v-.07c4.61-27.16,44.44-49.52,97.53-56.55v20c-22.86,2.53-42.87,9.13-57.24,18.29l-1,.68c-1,.67-2,1.35-2.93,2l-.7.51c-.45.33-.88.65-1.3,1s-1,.82-1.52,1.25l-.62.5a3.31,3.31,0,0,0-.3.25C88.81,152.77,87.73,153.79,86.67,154.83Z" transform="translate(-30 -52.05)"/><path class="cls-7" d="M88.25,203.88l-.32-.22A1.38,1.38,0,0,1,88.25,203.88Z" transform="translate(-30 -52.05)"/><path class="cls-12" d="M276.82,158.15a22.74,22.74,0,0,1-.28,3.5h0a5.32,5.32,0,0,1-.06,1,2.84,2.84,0,0,1-.06.5,1,1,0,0,1,0,.25c0,.27-.07.55-.11.82v.07c0,.35-.1.71-.17,1.06s-.09.55-.16.83-.14.7-.23,1c-.05.19-.09.38-.14.56v.15h0a1.25,1.25,0,0,1-.07.26c0,.09-.08.26-.11.39a1.61,1.61,0,0,1-.09.29c-.13.45-.27.88-.43,1.33-.27.75-.56,1.49-.89,2.23-.18.42-.38.83-.59,1.24l-.44.88-.31.58-.41.72c-.23.39-.46.78-.71,1.17s-.49.77-.75,1.17c-.13.22-.3.45-.46.68l-.39.56c-.26.35-.52.71-.8,1.06s-.39.5-.62.75-.62.75-.92,1.12-.62.75-1,1.12c-.67.74-1.37,1.46-2.1,2.18s-1.64,1.6-2.52,2.37c-.44.39-.89.78-1.35,1.16s-.71.62-1.09.89l-.41.33c-.34.28-.69.56-1.05.83s-.79.62-1.19.89-.81.59-1.24.88a49.26,49.26,0,0,0,6-5.92v0c.62-.76,1.24-1.51,1.75-2.28a20.2,20.2,0,0,0,1.93-4.86c.12-.49.23-1,.31-1.49a16.22,16.22,0,0,0,.23-2.7v-.05c0-5.65-2.81-11-7.72-15.71a43,43,0,0,0-6-4.81A67.33,67.33,0,0,0,240.41,149a98.85,98.85,0,0,0-13.54-4.46,118.47,118.47,0,0,0-25.94-2.75c-1.65,0-3.29,0-4.86.1h-.5l-.5-.07a4.29,4.29,0,0,0-4.91,4.24v65c-1.11,0-2.21,0-3.31-.09l-2.12-.08-1.64-.1-1.65.07V114l3.7-.06h2.28a236,236,0,0,1,32,2.14,136.12,136.12,0,0,1,24.35,7.36,86.13,86.13,0,0,1,15.24,8C270.2,139,276.82,148.19,276.82,158.15Z" transform="translate(-30 -52.05)"/><path class="cls-1" d="M266.57,183.55c-.66.74-1.35,1.47-2.09,2.18C265.2,185,265.9,184.29,266.57,183.55Z" transform="translate(-30 -52.05)"/><path class="cls-2" d="M269.86,179.52l-.2.29c-.2.25-.39.51-.62.77C269.34,180.21,269.6,179.85,269.86,179.52Z" transform="translate(-30 -52.05)"/><path class="cls-13" d="M88.25,203.89l-.32-.21a2.49,2.49,0,0,1,.32.2Z" transform="translate(-30 -52.05)"/><path class="cls-14" d="M291.06,143.14a104.7,104.7,0,0,0-26.51-15.31,161.42,161.42,0,0,0-19.86-6.68h-.11a115.31,115.31,0,0,0-16.84-3.73c-2.76-.49-5.55-.93-8.37-1.3a136.19,136.19,0,0,1,24.36,7.35,86.75,86.75,0,0,1,15.23,8c11.22,7.51,17.84,16.76,17.84,26.69a23.23,23.23,0,0,1-.28,3.53,5.32,5.32,0,0,1-.06,1,4.23,4.23,0,0,1,0,.5v.25c0,.27-.07.55-.11.82v.07c0,.36-.1.71-.17,1.06s-.09.55-.16.83-.15.7-.24,1c0,.19-.09.38-.14.56v.08a.35.35,0,0,1,0,.11,1.34,1.34,0,0,1-.07.27c0,.08-.08.25-.12.4a1.4,1.4,0,0,1-.09.29c-.13.45-.27.89-.43,1.33-.27.75-.57,1.49-.89,2.23-.18.42-.38.83-.59,1.24s-.28.58-.44.88l-.32.58c-.1.2-.26.48-.4.72-.22.39-.46.79-.71,1.18s-.49.77-.75,1.16a7.38,7.38,0,0,1-.46.68l-.39.56c-.07.09-.13.19-.21.29-.2.25-.39.51-.62.77s-.39.5-.62.75-.62.75-.92,1.12-.63.75-1,1.12c-.66.74-1.36,1.47-2.1,2.18s-1.64,1.6-2.52,2.37c-.43.39-.89.78-1.35,1.16s-.71.62-1.09.9l-.41.32c-.34.28-.69.56-1.05.83s-.8.62-1.19.89-.81.59-1.24.88l-.18.13a112.23,112.23,0,0,1-24.83,12.72,133.17,133.17,0,0,1-31.47,5c-2.18.09-4.35.14-6.59.14h-2.38c-1.11,0-2.21,0-3.31-.09l-2.12-.09-1.66-.1-1.65.08-2.95.12h-.15c-1.81.06-3.59.09-5.28.1h-.45c-1.61,0-3.18,0-4.75-.07-2.24-.05-4.43-.15-6.49-.27H161c-1.82-.11-3.64-.25-5.43-.4-41.87-3.8-73.86-21.39-73.86-41.21a21.53,21.53,0,0,1,4.78-13l.57-.76.1-.12c.44-.62,1-1.24,1.49-1.89v0c.45-.53.9-1.06,1.29-1.46q-1.74,1.5-3.3,3.07c-7.4,7.45-11.58,15.88-11.58,24.86,0,7.1,2.63,13.89,7.45,20.12,4.59,6,11.17,11.45,19.35,16.14l.11.05a1,1,0,0,0,.23.12c2.17,1.24,4.45,2.44,6.82,3.55h0c1.2.46,2.39.89,3.63,1.31a204.83,204.83,0,0,0,30.41,8c6.79,1.24,13.87,2.27,21.15,3h.06q4.29.42,8.69.72c3.37.21,6.82.37,10.28.46,1.16,0,2.34.06,3.51.08h4.42a271.41,271.41,0,0,0,35.92-2.35A213.9,213.9,0,0,0,277,218.34c16.45-6.44,31.89-21.64,32.55-40.26v-1.24C309.57,164.74,303.17,153.09,291.06,143.14ZM88.25,203.89l-.31-.21a3.28,3.28,0,0,1,.31.2Z" transform="translate(-30 -52.05)"/><path class="cls-7" d="M88.25,203.88l-.32-.22A1.38,1.38,0,0,1,88.25,203.88Z" transform="translate(-30 -52.05)"/><path class="cls-7" d="M88.25,203.88l-.32-.22A1.38,1.38,0,0,1,88.25,203.88Z" transform="translate(-30 -52.05)"/><path class="cls-15" d="M91.08,150.82a64.39,64.39,0,0,1,6.21-4.57c-1,.67-2,1.34-2.94,2l-.69.51c-.45.33-.88.65-1.31,1s-1,.81-1.52,1.24Z" transform="translate(-30 -52.05)"/><path class="cls-16" d="M90.26,151.52a2.09,2.09,0,0,0-.28.24l.07-.07Z" transform="translate(-30 -52.05)"/><path class="cls-17" d="M92.38,149.79c-.51.4-1,.81-1.52,1.24l.22-.19C91.51,150.47,92,150.13,92.38,149.79Z" transform="translate(-30 -52.05)"/><path class="cls-1" d="M266.57,183.55c-.66.74-1.35,1.47-2.09,2.18C265.2,185,265.9,184.29,266.57,183.55Z" transform="translate(-30 -52.05)"/><path class="cls-2" d="M269.86,179.52l-.2.29c-.2.25-.39.51-.62.77C269.34,180.21,269.6,179.85,269.86,179.52Z" transform="translate(-30 -52.05)"/><path class="cls-18" d="M341.74,116.67h95.13v16.79H397.7V239.77H380.91V133.46H341.74Z" transform="translate(-30 -52.05)"/><path class="cls-18" d="M769.24,172.62l62-.22v5.82a63.85,63.85,0,0,1-17.52,44.21A59.53,59.53,0,0,1,794.08,236,62.51,62.51,0,0,1,769,240.89a61.45,61.45,0,0,1-25-5,59.82,59.82,0,0,1-19.61-13.54,62.76,62.76,0,0,1-12.77-19.92,65.27,65.27,0,0,1,0-48.34,62.76,62.76,0,0,1,12.77-19.92,60,60,0,0,1,19.61-13.54,61.45,61.45,0,0,1,25-5,64.78,64.78,0,0,1,26.69,5.6A62.21,62.21,0,0,1,817.29,137l-13.47,10.74a44.93,44.93,0,0,0-15.43-11.41,46.55,46.55,0,0,0-19.38-4,44.28,44.28,0,0,0-17.64,3.47A43.29,43.29,0,0,0,727.81,160a51,51,0,0,0,0,36.48,43.29,43.29,0,0,0,23.56,24.17A44.28,44.28,0,0,0,769,224.1a45.08,45.08,0,0,0,15.32-2.57,43.76,43.76,0,0,0,12.88-7.16,45.23,45.23,0,0,0,9.75-11,42.48,42.48,0,0,0,5.69-14H769.24Z" transform="translate(-30 -52.05)"/><path class="cls-18" d="M993.51,116.67v123.1h-17V186.5H915.18v53.27H898.39V116.67h16.79v53.27h61.33V116.67Z" transform="translate(-30 -52.05)"/><path class="cls-18" d="M1061.33,240.89a51.87,51.87,0,0,1-18.8-3.36,45.36,45.36,0,0,1-15.11-9.4,44.74,44.74,0,0,1-10.07-14.21,42.7,42.7,0,0,1-3.69-17.79V116.67h16.78v79.46a26.75,26.75,0,0,0,2.35,11.19,27.37,27.37,0,0,0,6.38,8.84,29.5,29.5,0,0,0,9.74,5.82,35.21,35.21,0,0,0,12.42,2.12,34.32,34.32,0,0,0,12.31-2.12,31.23,31.23,0,0,0,9.74-5.82,25.16,25.16,0,0,0,6.37-8.84,27.82,27.82,0,0,0,2.24-11.19V116.67h16.79v79.46a43.94,43.94,0,0,1-3.58,17.79,43.37,43.37,0,0,1-10,14.21,45.46,45.46,0,0,1-15.11,9.4A51.9,51.9,0,0,1,1061.33,240.89Z" transform="translate(-30 -52.05)"/><path class="cls-18" d="M1188.23,116.67l54.62,123.1h-18.36l-12.08-27.08h-62l-12.09,27.08H1120l54.61-123.1Zm-30.44,79.46H1205l-23.72-53.72Z" transform="translate(-30 -52.05)"/><path class="cls-18" d="M506,240.14a62.28,62.28,0,0,1-24.57-4.81,60.35,60.35,0,0,1-32.81-33,64,64,0,0,1-4.75-24.85,64.76,64.76,0,0,1,4.75-24.95,60.56,60.56,0,0,1,13.1-19.92,59.54,59.54,0,0,1,19.71-13.1,66.6,66.6,0,0,1,49.15,0,58.42,58.42,0,0,1,19.59,13.1,61.57,61.57,0,0,1,13,19.92,65,65,0,0,1,4.75,24.95,64.19,64.19,0,0,1-4.75,24.85,61.89,61.89,0,0,1-13,19.8,59.76,59.76,0,0,1-19.59,13.21A62.33,62.33,0,0,1,506,240.14Zm0-108.55a45.87,45.87,0,0,0-18,3.47,42.75,42.75,0,0,0-14.14,9.51A43.49,43.49,0,0,0,464.65,159a52.27,52.27,0,0,0,0,36.93,43.44,43.44,0,0,0,9.27,14.43,42.77,42.77,0,0,0,14.14,9.52,45.86,45.86,0,0,0,18,3.46,45,45,0,0,0,17.86-3.46,42.62,42.62,0,0,0,23.3-23.95,52.42,52.42,0,0,0,0-36.93,42.54,42.54,0,0,0-23.3-23.95A45,45,0,0,0,506,131.59Z" transform="translate(-30 -52.05)"/><path class="cls-19" d="M341.74,116.67h78.34a16.79,16.79,0,0,1,16.79,16.79H397.7V239.77H380.91V133.46H341.74Z" transform="translate(-30 -52.05)"/><path class="cls-20" d="M691.36,116.67v123.1h-6.14a15,15,0,0,1-11.56-5.45l-71.82-86.75v92.2H585V116.67H591a15.07,15.07,0,0,1,11,4.83l.54.64,71.82,87V116.67Z" transform="translate(-30 -52.05)"/><path class="cls-21" d="M786,172.56l45.18-.16v5.82a63.85,63.85,0,0,1-17.52,44.21A59.53,59.53,0,0,1,794.08,236,62.51,62.51,0,0,1,769,240.89a61.45,61.45,0,0,1-25-5,59.82,59.82,0,0,1-19.61-13.54,62.76,62.76,0,0,1-12.77-19.92,65.27,65.27,0,0,1,0-48.34,62.76,62.76,0,0,1,12.77-19.92,60,60,0,0,1,19.61-13.54,61.45,61.45,0,0,1,25-5,64.78,64.78,0,0,1,26.69,5.6A62.21,62.21,0,0,1,817.29,137l-13.47,10.74a44.93,44.93,0,0,0-15.43-11.41,46.55,46.55,0,0,0-19.38-4,44.28,44.28,0,0,0-17.64,3.47A43.29,43.29,0,0,0,727.81,160a51,51,0,0,0,0,36.48,43.29,43.29,0,0,0,23.56,24.17A44.28,44.28,0,0,0,769,224.1a45.08,45.08,0,0,0,15.32-2.57,43.76,43.76,0,0,0,12.88-7.16,45.23,45.23,0,0,0,9.75-11,42.48,42.48,0,0,0,5.69-14H769.24A16.86,16.86,0,0,1,786,172.56Z" transform="translate(-30 -52.05)"/><path class="cls-22" d="M993.51,133.68V239.77h-17V186.5H915.18v53.27H898.39V116.67h16.79v53.27h61.33V116.67h0A17,17,0,0,1,993.51,133.68Z" transform="translate(-30 -52.05)"/><path class="cls-23" d="M1061.33,240.89a51.87,51.87,0,0,1-18.8-3.36,45.36,45.36,0,0,1-15.11-9.4,44.74,44.74,0,0,1-10.07-14.21,42.7,42.7,0,0,1-3.69-17.79V116.67h16.78v79.46a26.75,26.75,0,0,0,2.35,11.19,27.37,27.37,0,0,0,6.38,8.84,29.5,29.5,0,0,0,9.74,5.82,35.21,35.21,0,0,0,12.42,2.12,34.32,34.32,0,0,0,12.31-2.12,31.23,31.23,0,0,0,9.74-5.82,25.16,25.16,0,0,0,6.37-8.84,27.82,27.82,0,0,0,2.24-11.19V116.67h16.79v79.46a43.94,43.94,0,0,1-3.58,17.79,43.37,43.37,0,0,1-10,14.21,45.46,45.46,0,0,1-15.11,9.4A51.9,51.9,0,0,1,1061.33,240.89Z" transform="translate(-30 -52.05)"/><path class="cls-24" d="M1193.77,129.15l49.08,110.62h0A28.28,28.28,0,0,1,1217,223l-4.6-10.32h-62l-12.09,27.08H1120l54.61-123.1h0A21,21,0,0,1,1193.77,129.15Zm-36,67H1205l-23.72-53.72Z" transform="translate(-30 -52.05)"/><path class="cls-25" d="M506,240.14a62.28,62.28,0,0,1-24.57-4.81,60.35,60.35,0,0,1-32.81-33,64,64,0,0,1-4.75-24.85,64.76,64.76,0,0,1,4.75-24.95,60.56,60.56,0,0,1,13.1-19.92,59.54,59.54,0,0,1,19.71-13.1,66.6,66.6,0,0,1,49.15,0,58.42,58.42,0,0,1,19.59,13.1,61.57,61.57,0,0,1,13,19.92,65,65,0,0,1,4.75,24.95,64.19,64.19,0,0,1-4.75,24.85,61.89,61.89,0,0,1-13,19.8,59.76,59.76,0,0,1-19.59,13.21A62.33,62.33,0,0,1,506,240.14Zm0-108.55a45.87,45.87,0,0,0-18,3.47,42.75,42.75,0,0,0-14.14,9.51A43.49,43.49,0,0,0,464.65,159a52.27,52.27,0,0,0,0,36.93,43.44,43.44,0,0,0,9.27,14.43,42.77,42.77,0,0,0,14.14,9.52,45.86,45.86,0,0,0,18,3.46,45,45,0,0,0,17.86-3.46,42.62,42.62,0,0,0,23.3-23.95,52.42,52.42,0,0,0,0-36.93,42.54,42.54,0,0,0-23.3-23.95A45,45,0,0,0,506,131.59Z" transform="translate(-30 -52.05)"/><path class="cls-26" d="M359.69,284.47,374,316.83h-4.82L366,309.71h-16.3l-3.17,7.12h-4.83l14.36-32.36Zm-8,20.89H364.1l-6.24-14.12Z" transform="translate(-30 -52.05)"/><path class="cls-27" d="M389.92,317.12a17.92,17.92,0,0,1-4.76-.56,15.79,15.79,0,0,1-3.5-1.35,13.29,13.29,0,0,1-2.41-1.65q-1-.85-1.5-1.38l-.18-.12,3.12-3.17.18.17c.31.32.7.69,1.17,1.12a8.67,8.67,0,0,0,1.77,1.21,11.88,11.88,0,0,0,2.55.94,14.82,14.82,0,0,0,3.56.38,11.74,11.74,0,0,0,6-1.35,4.06,4.06,0,0,0,2.3-3.59,2.48,2.48,0,0,0-.74-1.77,6.55,6.55,0,0,0-2-1.35,17.34,17.34,0,0,0-2.79-1c-1-.29-2.11-.56-3.21-.79l-.12-.06c-1-.24-2.13-.54-3.47-.91a16.66,16.66,0,0,1-3.76-1.59,10.16,10.16,0,0,1-3-2.65,6.51,6.51,0,0,1-1.24-4.09,8.6,8.6,0,0,1,.86-3.85,8.42,8.42,0,0,1,2.41-3,11,11,0,0,1,3.79-1.89,20.08,20.08,0,0,1,9.74-.08,15.9,15.9,0,0,1,3.47,1.35,13.65,13.65,0,0,1,2.41,1.65q1,.86,1.5,1.38l.18.12-3.12,3.11-.18-.17c-.31-.31-.7-.68-1.17-1.09a9.53,9.53,0,0,0-1.77-1.18,12,12,0,0,0-2.56-.94,14.76,14.76,0,0,0-3.56-.38,10.24,10.24,0,0,0-5.58,1.29,4.1,4.1,0,0,0-2,3.65,3.32,3.32,0,0,0,2.17,3,26,26,0,0,0,5.88,1.91l.12.06c1.14.28,2.4.61,3.8,1a19.11,19.11,0,0,1,3.94,1.59,10,10,0,0,1,3.12,2.62,6.36,6.36,0,0,1,1.26,4,7.77,7.77,0,0,1-.94,3.79,8.94,8.94,0,0,1-2.62,3,12.71,12.71,0,0,1-4,1.92A18.41,18.41,0,0,1,389.92,317.12Z" transform="translate(-30 -52.05)"/><path class="cls-28" d="M419.1,317.12a17.92,17.92,0,0,1-4.76-.56,15.6,15.6,0,0,1-3.5-1.35,13.39,13.39,0,0,1-2.42-1.65q-1-.85-1.5-1.38l-.17-.12,3.11-3.17.18.17c.32.32.71.69,1.18,1.12a8.87,8.87,0,0,0,1.76,1.21,12.19,12.19,0,0,0,2.56.94,14.82,14.82,0,0,0,3.56.38,11.74,11.74,0,0,0,6-1.35,4.06,4.06,0,0,0,2.3-3.59,2.48,2.48,0,0,0-.74-1.77,6.68,6.68,0,0,0-2-1.35,17.71,17.71,0,0,0-2.79-1c-1-.29-2.11-.56-3.21-.79l-.12-.06c-1-.24-2.14-.54-3.47-.91a16.47,16.47,0,0,1-3.76-1.59,10.16,10.16,0,0,1-3-2.65,6.51,6.51,0,0,1-1.24-4.09,8.73,8.73,0,0,1,.85-3.85,8.56,8.56,0,0,1,2.42-3,11,11,0,0,1,3.79-1.89,20.08,20.08,0,0,1,9.74-.08,15.9,15.9,0,0,1,3.47,1.35,13.65,13.65,0,0,1,2.41,1.65q1,.86,1.5,1.38l.18.12-3.12,3.11-.18-.17c-.31-.31-.71-.68-1.17-1.09a9.88,9.88,0,0,0-1.77-1.18,12.19,12.19,0,0,0-2.56-.94,14.82,14.82,0,0,0-3.56-.38,10.3,10.3,0,0,0-5.59,1.29,4.12,4.12,0,0,0-2,3.65,3.33,3.33,0,0,0,2.18,3,26,26,0,0,0,5.88,1.91l.12.06c1.14.28,2.4.61,3.79,1a19,19,0,0,1,3.95,1.59,9.86,9.86,0,0,1,3.11,2.62,6.31,6.31,0,0,1,1.27,4,7.88,7.88,0,0,1-.94,3.79,8.94,8.94,0,0,1-2.62,3,12.71,12.71,0,0,1-4,1.92A18.46,18.46,0,0,1,419.1,317.12Z" transform="translate(-30 -52.05)"/><path class="cls-29" d="M460.1,284.47v4.41h-18v9.18h17.59v4.41H442.1v9.94h18v4.42H437.69V284.47Z" transform="translate(-30 -52.05)"/><path class="cls-30" d="M466.34,284.47h25v4.41H481.05v27.95h-4.41V288.88h-10.3Z" transform="translate(-30 -52.05)"/><path class="cls-31" d="M547.52,284.47v32.36h-4.41V293.24L532.76,310h-2.83l-10.35-16.76v23.59h-4.41V284.47h4.17l12,19.47,12-19.47Z" transform="translate(-30 -52.05)"/><path class="cls-32" d="M570.76,284.47l14.35,32.36h-4.82l-3.18-7.12H560.82l-3.18,7.12h-4.82l14.35-32.36Zm-8,20.89h12.41l-6.23-14.12Z" transform="translate(-30 -52.05)"/><path class="cls-33" d="M618.35,284.47v32.36h-3.47l-20.06-24.24v24.24h-4.41V284.47h3.41l20.06,24.3v-24.3Z" transform="translate(-30 -52.05)"/><path class="cls-34" d="M641.59,284.47l14.35,32.36h-4.82l-3.18-7.12H631.65l-3.18,7.12h-4.82L638,284.47Zm-8,20.89H646l-6.23-14.12Z" transform="translate(-30 -52.05)"/><path class="cls-35" d="M675.83,299.18l15.71-.06v1.53a17.3,17.3,0,0,1-1.18,6.35,16.83,16.83,0,0,1-3.27,5.27,15.18,15.18,0,0,1-5,3.56,15.37,15.37,0,0,1-6.35,1.29,15.23,15.23,0,0,1-11.3-4.88,16.55,16.55,0,0,1-3.23-5.24,17.68,17.68,0,0,1,0-12.7,16.55,16.55,0,0,1,3.23-5.24,15.23,15.23,0,0,1,11.3-4.88,15.87,15.87,0,0,1,6.76,1.47,15.71,15.71,0,0,1,5.47,4.17l-3.41,2.83a11.2,11.2,0,0,0-3.91-3,11.4,11.4,0,0,0-4.91-1.06,10.86,10.86,0,0,0-4.47.91,11.09,11.09,0,0,0-3.59,2.53,11.37,11.37,0,0,0-2.38,3.83,13.77,13.77,0,0,0,0,9.58,11.37,11.37,0,0,0,2.38,3.83,11.09,11.09,0,0,0,3.59,2.53,10.86,10.86,0,0,0,4.47.91,11.13,11.13,0,0,0,7.15-2.56,11.87,11.87,0,0,0,2.47-2.88,11.68,11.68,0,0,0,1.44-3.68h-11Z" transform="translate(-30 -52.05)"/><path class="cls-36" d="M720.42,284.47v4.41h-18v9.18H720v4.41H702.42v9.94h18v4.42H698V284.47Z" transform="translate(-30 -52.05)"/><path class="cls-37" d="M759.89,284.47v32.36h-4.41V293.24L745.13,310H742.3L732,293.24v23.59h-4.41V284.47h4.17l12,19.47,12-19.47Z" transform="translate(-30 -52.05)"/><path class="cls-38" d="M790,284.47v4.41H772v9.18h17.59v4.41H772v9.94h18v4.42H767.54V284.47Z" transform="translate(-30 -52.05)"/><path class="cls-39" d="M825,284.47v32.36h-3.48l-20.06-24.24v24.24h-4.41V284.47h3.41l20.06,24.3v-24.3Z" transform="translate(-30 -52.05)"/><path class="cls-40" d="M831.78,284.47h25v4.41H846.49v27.95h-4.41V288.88h-10.3Z" transform="translate(-30 -52.05)"/><path class="cls-41" d="M907.25,311.77A18.31,18.31,0,0,1,902,315.5a14.4,14.4,0,0,1-6.24,1.33,15.22,15.22,0,0,1-6.35-1.3,15,15,0,0,1-5-3.56,16.67,16.67,0,0,1-3.27-5.26,17.84,17.84,0,0,1,0-12.71,16.79,16.79,0,0,1,3.27-5.26,15,15,0,0,1,5-3.56,15.37,15.37,0,0,1,6.35-1.3,14.5,14.5,0,0,1,6.3,1.3,18.9,18.9,0,0,1,5.17,3.76l-3.17,3.12a10.86,10.86,0,0,0-3.65-2.76,10.69,10.69,0,0,0-4.65-1,11.05,11.05,0,0,0-8.12,3.44,11.75,11.75,0,0,0-2.38,3.82,13.95,13.95,0,0,0,0,9.59,11.65,11.65,0,0,0,2.38,3.82,10.85,10.85,0,0,0,3.62,2.53,11.1,11.1,0,0,0,4.5.91,10.69,10.69,0,0,0,4.65-1,10.86,10.86,0,0,0,3.65-2.76Z" transform="translate(-30 -52.05)"/><path class="cls-42" d="M928.9,317.12a15.38,15.38,0,0,1-6.23-1.26,15.58,15.58,0,0,1-5-3.47,16.06,16.06,0,0,1-3.32-5.21,17.24,17.24,0,0,1-1.21-6.53,17.47,17.47,0,0,1,1.21-6.56,16.09,16.09,0,0,1,3.32-5.24,15.19,15.19,0,0,1,5-3.44,16.42,16.42,0,0,1,12.47,0,14.86,14.86,0,0,1,5,3.44,16.56,16.56,0,0,1,3.3,5.24,17.67,17.67,0,0,1,1.2,6.56,17.44,17.44,0,0,1-1.2,6.53,16.53,16.53,0,0,1-3.3,5.21,15.24,15.24,0,0,1-5,3.47A15.4,15.4,0,0,1,928.9,317.12Zm0-28.53a11.21,11.21,0,0,0-4.55.91,10.78,10.78,0,0,0-3.59,2.5,11.57,11.57,0,0,0-2.36,3.8,14.26,14.26,0,0,0,0,9.7,11.57,11.57,0,0,0,2.36,3.8,10.78,10.78,0,0,0,3.59,2.5,11.21,11.21,0,0,0,4.55.91,11,11,0,0,0,4.53-.91,10.86,10.86,0,0,0,3.56-2.5,11.57,11.57,0,0,0,2.36-3.8,14.26,14.26,0,0,0,0-9.7A11.57,11.57,0,0,0,937,292a10.86,10.86,0,0,0-3.56-2.5A11,11,0,0,0,928.9,288.59Z" transform="translate(-30 -52.05)"/><path class="cls-43" d="M955.79,314.3a2.67,2.67,0,0,1-.77,1.91,2.63,2.63,0,0,1-3.76,0,2.67,2.67,0,0,1-.77-1.91,2.65,2.65,0,1,1,5.3,0Z" transform="translate(-30 -52.05)"/><path class="cls-44" d="M964.44,311.3a2.76,2.76,0,0,1,2.08.88,2.88,2.88,0,0,1,.86,2.06,5.79,5.79,0,0,1-.41,2.18,8,8,0,0,1-1.09,1.85,11.46,11.46,0,0,1-1.53,1.59l-1.68,1.44-1.59-1.59c.36-.31.75-.7,1.18-1.15a10.41,10.41,0,0,0,1.18-1.5,3,3,0,0,1-2-2.82,2.88,2.88,0,0,1,.86-2.06A2.78,2.78,0,0,1,964.44,311.3Z" transform="translate(-30 -52.05)"/><path class="cls-45" d="M978.2,284.47v27.94h15.47v4.42H973.85V284.47Z" transform="translate(-30 -52.05)"/><path class="cls-46" d="M996.91,284.47h25v4.41h-10.29v27.95h-4.41V288.88h-10.3Z" transform="translate(-30 -52.05)"/><path class="cls-47" d="M1038.21,316.83h-9.53V284.47h9.53a23.79,23.79,0,0,1,6.26.85,16,16,0,0,1,5.56,2.77,14,14,0,0,1,4,5,19.44,19.44,0,0,1,0,15.12,14.13,14.13,0,0,1-4,5,15.68,15.68,0,0,1-5.56,2.76A23.39,23.39,0,0,1,1038.21,316.83Zm-5.12-4.42h5.12a22.79,22.79,0,0,0,3.64-.35,11.93,11.93,0,0,0,4.24-1.56,10.44,10.44,0,0,0,3.53-3.53,14.32,14.32,0,0,0,0-12.64,10.57,10.57,0,0,0-3.53-3.54,12.1,12.1,0,0,0-4.24-1.55,23,23,0,0,0-3.64-.36h-5.12Z" transform="translate(-30 -52.05)"/><path class="cls-48" d="M1066.74,314.3a2.67,2.67,0,0,1-.77,1.91,2.63,2.63,0,0,1-3.76,0,2.67,2.67,0,0,1-.77-1.91,2.65,2.65,0,1,1,5.3,0Z" transform="translate(-30 -52.05)"/></svg>