<svg width="385" height="408" viewBox="0 0 385 408" fill="none" xmlns="http://www.w3.org/2000/svg">
<path d="M325.868 181.137C324.953 182.154 323.995 183.154 322.978 184.138C323.978 183.154 324.936 182.154 325.868 181.137Z" fill="url(#paint0_linear_430_30003)"/>
<path d="M330.399 175.58C330.305 175.708 330.219 175.845 330.117 175.981C329.843 176.323 329.578 176.683 329.262 177.042C329.681 176.537 330.04 176.041 330.399 175.58Z" fill="url(#paint1_linear_430_30003)"/>
<path d="M330.399 175.58C330.305 175.708 330.219 175.845 330.117 175.981C329.843 176.323 329.578 176.683 329.262 177.042C329.681 176.537 330.04 176.041 330.399 175.58Z" fill="url(#paint2_linear_430_30003)"/>
<path d="M208.58 0V218.713C207.187 218.79 205.853 218.832 204.519 218.884H204.314C201.826 218.969 199.372 219.003 197.038 219.012H196.414C194.208 219.012 192.036 219.012 189.882 218.926C186.787 218.85 183.777 218.713 180.939 218.55H180.485C177.972 218.396 175.475 218.2 173.004 217.995V29.514C173.004 13.2437 188.958 0 208.58 0Z" fill="url(#paint3_linear_430_30003)"/>
<path d="M220.628 262.179V382.142L220.448 382.954C218.85 389.931 214.939 396.162 209.351 400.634C203.763 405.106 196.826 407.556 189.669 407.586H182.179V365.384C184.704 365.273 187.212 364.921 189.669 364.332C191.036 364.018 192.383 363.625 193.704 363.153C202.63 359.998 209.479 353.936 213.121 346.463V262.581H213.625H213.839H214.044C214.703 262.581 215.378 262.521 216.037 262.479C217.593 262.359 219.114 262.282 220.628 262.179Z" fill="url(#paint4_linear_430_30003)"/>
<path d="M213.147 262.582V346.489C209.505 353.962 202.657 360.024 193.731 363.179C192.41 363.651 191.062 364.045 189.695 364.359C187.238 364.947 184.73 365.299 182.206 365.41C181.636 365.41 181.066 365.41 180.496 365.41H173.015V262.223C175.391 262.376 177.785 262.496 180.197 262.599H180.496C183.864 262.736 186.831 262.821 189.55 262.864C191.824 262.915 194.116 262.924 196.39 262.924H197.031C199.562 262.924 202.056 262.895 204.512 262.838H204.649C205.949 262.838 207.257 262.778 208.556 262.736L213.147 262.582Z" fill="url(#paint5_linear_430_30003)"/>
<path d="M54.0602 122.458C52.1851 124.566 50.4269 126.775 48.7935 129.076C50.4162 126.767 52.1749 124.557 54.0602 122.458V122.458Z" fill="url(#paint6_linear_430_30003)"/>
<path d="M80.2402 209.136L79.8042 208.837C79.9837 208.922 80.1291 209.042 80.2402 209.136Z" fill="url(#paint7_linear_430_30003)"/>
<path d="M54.0602 122.458C52.1851 124.566 50.4269 126.775 48.7935 129.076C50.4162 126.767 52.1749 124.557 54.0602 122.458V122.458Z" fill="url(#paint8_linear_430_30003)"/>
<path d="M173.006 71.3474V76.0498C99.888 85.7282 45.0153 116.533 38.6714 153.939C38.8082 152.81 38.9877 151.69 39.21 150.587C39.3468 149.869 39.4921 149.151 39.6888 148.415C39.8085 147.937 39.9282 147.458 40.065 146.988C40.0961 146.788 40.1506 146.593 40.2274 146.406C40.3471 145.987 40.4669 145.551 40.6037 145.166C40.6037 144.987 40.7062 144.825 40.766 144.645C40.9484 144.075 41.1451 143.519 41.356 142.978C41.5783 142.379 41.8006 141.781 42.04 141.199C42.2794 140.618 42.5359 140.02 42.8009 139.421C43.066 138.823 43.3395 138.25 43.6559 137.668C43.9722 137.087 44.2458 136.497 44.5109 135.958C44.7759 135.42 45.1265 134.804 45.4684 134.248C45.8104 133.693 46.144 133.111 46.503 132.538C46.8621 131.966 47.2211 131.393 47.5973 130.828C47.9735 130.264 48.3583 129.691 48.7687 129.119C50.4021 126.818 52.1603 124.609 54.0354 122.501C54.993 121.424 55.9933 120.346 57.0449 119.303C57.5665 118.765 58.088 118.235 58.6266 117.73C59.1653 117.226 59.721 116.679 60.2768 116.174C60.8325 115.67 61.4139 115.14 61.9867 114.627C63.6967 113.071 65.552 111.574 67.4501 110.112C68.1255 109.582 68.8094 109.061 69.5191 108.556C70.7759 107.599 72.0841 106.684 73.4093 105.786C74.0933 105.307 74.8028 104.846 75.5039 104.375L77.6756 102.905C78.3938 102.443 79.129 101.998 79.8814 101.545C80.6338 101.092 81.1811 100.75 81.8565 100.365C82.7628 99.8268 83.6947 99.3053 84.6181 98.7752C85.2764 98.4076 85.9518 98.0314 86.6272 97.6723C88.2631 96.7717 89.9247 95.9167 91.6119 95.1073C92.4668 94.6884 93.2619 94.2524 94.0998 93.8847C95.6986 93.1067 97.3146 92.3543 98.9732 91.6105C99.8282 91.2001 100.786 90.7555 101.718 90.3964C104.608 89.1481 107.571 87.9455 110.61 86.7884C111.464 86.4549 112.319 86.1471 113.174 85.8308C116.138 84.7364 119.168 83.6933 122.263 82.7016C123.297 82.3596 124.332 82.0261 125.375 81.7098C132.754 79.4355 140.474 77.4349 148.46 75.6651L151.691 74.9896C153.145 74.6904 154.598 74.3911 156.052 74.1347C157.129 73.9209 158.206 73.7328 159.292 73.5362C160.378 73.3395 161.216 73.1942 162.182 73.0232C162.96 72.8949 163.73 72.7581 164.508 72.6384C165.012 72.5444 165.533 72.476 166.064 72.3819C167.201 72.2024 168.355 72.0229 169.483 71.8604L173.006 71.3474Z" fill="url(#paint9_linear_430_30003)"/>
<path d="M54.0602 122.458C52.1851 124.566 50.4269 126.775 48.7935 129.076C50.4162 126.767 52.1749 124.557 54.0602 122.458V122.458Z" fill="url(#paint10_linear_430_30003)"/>
<path d="M80.2402 209.136L79.8042 208.837C79.9837 208.922 80.1291 209.042 80.2402 209.136Z" fill="url(#paint11_linear_430_30003)"/>
<path d="M351.791 223.936C341.429 230.728 330.417 236.471 318.916 241.079L318.669 241.181C304.317 246.94 289.504 251.476 274.389 254.741L273.671 255.177H272.397C261.035 257.6 249.558 259.443 238.01 260.701C232.367 261.325 226.544 261.821 220.628 262.18C219.115 262.282 217.593 262.359 216.062 262.436C215.404 262.479 214.729 262.513 214.07 262.539H213.865H213.651H213.147L208.581 262.71C207.282 262.753 205.974 262.778 204.674 262.812H204.537C202.08 262.869 199.587 262.898 197.056 262.898H196.415C194.106 262.898 191.815 262.898 189.575 262.838C186.856 262.795 183.889 262.71 180.521 262.573H180.221C177.81 262.47 175.417 262.351 173.04 262.197C73.8618 256.255 0 213.463 0 161.189C0 136.395 16.9286 112.601 47.6738 94.2956C63.0634 85.1217 81.4113 77.5209 102.179 71.7156L102.358 71.6643C125.438 65.3573 149.118 61.5 173.005 60.1562V71.3479L169.585 71.8438C168.44 72.0063 167.286 72.1858 166.166 72.3654C165.635 72.4594 165.114 72.5278 164.61 72.6219C163.832 72.7416 163.062 72.8784 162.284 73.0066C161.318 73.1776 160.352 73.3401 159.394 73.5196C158.437 73.6991 157.231 73.9043 156.154 74.1181C154.7 74.3831 153.247 74.6824 151.793 74.9731L148.562 75.6485C140.55 77.4012 132.83 79.419 125.477 81.6932C124.434 82.0096 123.399 82.343 122.365 82.685C119.27 83.6768 116.24 84.7199 113.276 85.8142C112.421 86.1306 111.566 86.4384 110.712 86.7718C107.668 87.9118 104.704 89.1145 101.82 90.3798C100.888 90.7817 99.973 91.175 99.0752 91.5939C97.4166 92.3377 95.8006 93.0901 94.2018 93.8682C93.3468 94.27 92.4919 94.6718 91.7138 95.0908C90.0039 95.9287 88.3423 96.7836 86.7292 97.6557C86.0538 98.0148 85.3784 98.391 84.7201 98.7586C83.7967 99.2887 82.8648 99.8103 81.9585 100.349C81.2802 100.736 80.6218 101.13 79.9834 101.529C79.231 101.982 78.5129 102.427 77.7776 102.888C77.0423 103.35 76.3412 103.803 75.6402 104.282C74.9391 104.761 74.2295 105.197 73.5455 105.693C72.2117 106.59 70.9121 107.505 69.6553 108.463C68.9457 108.967 68.2616 109.489 67.5862 110.019C65.6881 111.481 63.8586 112.977 62.123 114.533C61.5416 115.029 60.9687 115.542 60.413 116.081C59.8573 116.619 59.3015 117.098 58.7628 117.637C58.2242 118.175 57.7027 118.671 57.1811 119.21C56.1295 120.253 55.1292 121.33 54.1716 122.407C52.2863 124.507 50.5276 126.717 48.9049 129.025C48.4859 129.598 48.0499 130.145 47.7336 130.735C47.4172 131.325 46.9812 131.872 46.6392 132.445C46.2972 133.018 45.9381 133.582 45.6047 134.155C45.2712 134.728 44.9463 135.309 44.6471 135.865C44.3478 136.421 44.023 137.036 43.7921 137.575C43.5613 138.113 43.2107 138.738 42.9371 139.328C42.6635 139.917 42.4156 140.507 42.1762 141.106C41.9368 141.704 41.6975 142.286 41.4923 142.884C41.2871 143.483 41.0818 143.996 40.9023 144.551C40.8424 144.731 40.7826 144.893 40.7399 145.073C40.5887 145.478 40.463 145.892 40.3636 146.313C40.2868 146.499 40.2323 146.695 40.2012 146.894C40.0473 147.381 39.9276 147.843 39.825 148.322C39.6283 149.057 39.483 149.775 39.3463 150.494C39.124 151.596 38.9444 152.717 38.8076 153.845C38.8076 153.845 38.8076 153.922 38.8076 153.948C38.404 156.32 38.2008 158.723 38.2005 161.13C38.2005 175.741 45.579 189.506 58.6602 201.647L58.0703 200.792L58.7457 201.45C59.387 202.066 60.0368 202.682 60.7122 203.297C61.3877 203.913 62.2939 204.734 63.1147 205.435C63.6533 205.913 64.2091 206.375 64.7648 206.828C65.1667 207.17 65.6198 207.512 66.0216 207.863C66.0983 207.927 66.1782 207.987 66.261 208.042C77.6665 216.763 92.1841 224.475 109.01 230.776C109.019 230.781 109.03 230.783 109.04 230.783C109.05 230.783 109.061 230.781 109.07 230.776C110.72 231.409 112.362 232.007 114.055 232.589C127.718 237.309 141.724 240.973 155.949 243.55C165.302 245.26 175.049 246.67 185.078 247.662H185.155C189.105 248.055 193.095 248.386 197.124 248.654C201.776 248.953 206.529 249.175 211.257 249.295C212.856 249.355 214.489 249.381 216.105 249.398C217.721 249.415 219.149 249.398 220.671 249.398C221.184 249.398 221.671 249.398 222.184 249.398C238.73 249.419 255.259 248.339 271.662 246.166C302.321 242.267 329.801 234.418 351.791 223.936Z" fill="url(#paint12_linear_430_30003)"/>
<path d="M325.868 181.137C324.953 182.154 323.995 183.154 322.978 184.138C323.978 183.154 324.936 182.154 325.868 181.137Z" fill="url(#paint13_linear_430_30003)"/>
<path d="M330.399 175.58C330.305 175.708 330.219 175.845 330.117 175.981C329.843 176.323 329.578 176.683 329.262 177.042C329.681 176.537 330.04 176.041 330.399 175.58Z" fill="url(#paint14_linear_430_30003)"/>
<path d="M80.2402 209.136L79.8042 208.837C79.9837 208.922 80.1291 209.042 80.2402 209.136Z" fill="url(#paint15_linear_430_30003)"/>
<path d="M330.399 175.58C330.305 175.708 330.219 175.845 330.117 175.981C329.843 176.323 329.578 176.683 329.262 177.042C329.681 176.537 330.04 176.041 330.399 175.58Z" fill="url(#paint16_linear_430_30003)"/>
<path d="M65.868 207.957C63.2347 205.931 60.798 203.87 58.5152 201.759L57.9253 200.904L58.6007 201.562C59.2419 202.177 59.8917 202.793 60.5672 203.409C61.2426 204.024 62.1489 204.845 62.9697 205.546C63.5083 206.025 64.064 206.487 64.6198 206.94C65.013 207.265 65.4491 207.607 65.868 207.957Z" fill="url(#paint17_linear_430_30003)"/>
<path d="M78.0695 141.576C67.8866 151.836 62.1241 163.455 62.1241 175.818C62.1241 185.607 65.7492 194.961 72.3326 203.511C78.6594 211.778 87.7223 219.276 98.9909 225.74C99.0356 225.772 99.0845 225.798 99.1362 225.817C99.2381 225.878 99.3437 225.932 99.4525 225.98C102.445 227.69 105.591 229.331 108.857 230.861C91.9886 224.56 77.471 216.848 66.1083 208.128C66.0255 208.072 65.9455 208.012 65.8689 207.948C65.4499 207.597 65.0139 207.255 64.6121 206.913C64.0563 206.46 63.5007 205.999 62.962 205.52C62.107 204.819 61.3375 204.101 60.5595 203.382C59.7814 202.664 59.2343 202.151 58.5931 201.536L57.9176 200.877L58.5075 201.732C45.4263 189.592 38.0479 175.826 38.0479 161.215C38.0482 158.808 38.2512 156.406 38.6549 154.033C38.6549 154.033 38.6549 153.956 38.6549 153.93C44.9988 116.525 99.8715 85.7199 172.989 76.0415V103.606C141.509 107.094 113.945 116.183 94.1517 128.811C93.6644 129.11 93.1855 129.427 92.7067 129.743C91.3131 130.666 89.9623 131.598 88.6627 132.556L87.7051 133.257C87.0895 133.71 86.4911 134.155 85.9097 134.625C85.3283 135.095 84.499 135.745 83.815 136.335L82.96 137.027C82.8232 137.13 82.6949 137.25 82.5581 137.369C81.0134 138.737 79.5172 140.139 78.0695 141.576Z" fill="url(#paint18_linear_430_30003)"/>
<path d="M80.2402 209.136L79.8042 208.837C79.9837 208.922 80.1291 209.042 80.2402 209.136Z" fill="url(#paint19_linear_430_30003)"/>
<path d="M339.974 146.15C339.975 147.766 339.846 149.378 339.589 150.973C339.589 150.973 339.589 150.973 339.589 150.973C339.589 151.4 339.589 151.828 339.512 152.289C339.512 152.52 339.469 152.742 339.435 152.982C339.444 153.096 339.444 153.21 339.435 153.324C339.39 153.7 339.338 154.076 339.281 154.452C339.281 154.452 339.281 154.521 339.281 154.555C339.221 155.034 339.145 155.53 339.05 156.008C338.956 156.487 338.922 156.769 338.828 157.154C338.734 157.539 338.632 158.112 338.503 158.59C338.444 158.847 338.384 159.103 338.307 159.36C338.307 159.36 338.307 159.428 338.307 159.463C338.315 159.496 338.315 159.531 338.307 159.565C338.307 159.565 338.307 159.565 338.307 159.565C338.307 159.685 338.247 159.805 338.221 159.924C338.196 160.044 338.11 160.275 338.067 160.454C338.04 160.592 338 160.726 337.948 160.856C337.759 161.472 337.563 162.07 337.349 162.686C336.973 163.72 336.571 164.738 336.127 165.755C335.87 166.337 335.596 166.909 335.314 167.465C335.118 167.85 334.93 168.26 334.699 168.679C334.571 168.944 334.417 169.218 334.271 169.483C334.126 169.748 333.912 170.141 333.715 170.475C333.399 171.013 333.083 171.552 332.741 172.091C332.399 172.629 332.065 173.151 331.706 173.689C331.518 174.006 331.287 174.322 331.065 174.63L330.526 175.399C330.167 175.887 329.808 176.383 329.432 176.861C329.167 177.203 328.893 177.554 328.577 177.896C328.175 178.409 327.722 178.93 327.303 179.435C326.884 179.939 326.448 180.469 325.961 180.982C325.029 182 324.071 183 323.071 183.983C321.977 185.095 320.805 186.189 319.6 187.249C318.984 187.788 318.369 188.327 317.736 188.848C317.257 189.267 316.753 189.703 316.231 190.079L315.675 190.524C315.197 190.917 314.718 191.293 314.222 191.67C313.726 192.046 313.127 192.525 312.58 192.892C312.033 193.26 311.469 193.705 310.87 194.106C313.857 191.637 316.618 188.908 319.121 185.95V185.907C319.976 184.873 320.831 183.838 321.532 182.778C322.71 180.67 323.607 178.416 324.2 176.075C324.362 175.399 324.507 174.707 324.618 174.023C324.826 172.797 324.932 171.556 324.935 170.312V170.235C324.935 162.455 321.07 155.102 314.307 148.596C311.739 146.147 308.958 143.933 305.997 141.978C300.902 138.62 295.486 135.776 289.829 133.488C283.768 130.997 277.537 128.943 271.182 127.341C259.445 124.769 247.46 123.499 235.444 123.553C233.17 123.553 230.921 123.596 228.749 123.69H228.065L227.373 123.596C227.09 123.551 226.804 123.531 226.518 123.536C224.954 123.538 223.455 124.161 222.349 125.267C221.243 126.372 220.621 127.872 220.618 129.436V218.986C219.08 218.986 217.566 218.926 216.053 218.867L213.137 218.747L210.88 218.61C210.102 218.653 209.367 218.687 208.606 218.713V85.3356C210.316 85.29 212.012 85.2615 213.693 85.2501H216.087H216.84C231.575 85.2316 246.295 86.2171 260.897 88.1998C272.372 90.5224 283.604 93.9144 294.446 98.3314C301.789 101.301 308.818 104.996 315.427 109.361C330.86 119.723 339.974 132.428 339.974 146.15Z" fill="url(#paint20_linear_430_30003)"/>
<path d="M325.868 181.137C324.953 182.154 323.995 183.154 322.978 184.138C323.978 183.154 324.936 182.154 325.868 181.137Z" fill="url(#paint21_linear_430_30003)"/>
<path d="M330.399 175.58C330.305 175.708 330.219 175.845 330.117 175.981C329.843 176.323 329.578 176.683 329.262 177.042C329.681 176.537 330.04 176.041 330.399 175.58Z" fill="url(#paint22_linear_430_30003)"/>
<path d="M80.2402 209.155L79.8042 208.856C79.9581 208.941 80.1035 209.044 80.2402 209.138V209.155Z" fill="url(#paint23_linear_430_30003)"/>
<path d="M359.589 125.469C349.783 117.432 337.505 110.335 323.082 104.385C314.17 100.728 305.031 97.6522 295.722 95.1766H295.577C287.981 92.8892 280.225 91.1744 272.373 90.0467C268.577 89.3684 264.735 88.7699 260.848 88.2512C272.322 90.5738 283.555 93.9658 294.397 98.3827C301.74 101.353 308.768 105.048 315.378 109.412C330.836 119.757 339.95 132.497 339.95 146.176C339.95 147.803 339.822 149.426 339.566 151.032C339.566 151.46 339.566 151.887 339.489 152.358C339.489 152.589 339.446 152.811 339.412 153.05C339.42 153.164 339.42 153.278 339.412 153.392C339.366 153.768 339.315 154.145 339.258 154.521C339.258 154.521 339.258 154.589 339.258 154.623C339.206 155.112 339.129 155.597 339.027 156.077C338.967 156.445 338.899 156.838 338.805 157.223C338.711 157.607 338.608 158.18 338.48 158.659C338.42 158.915 338.36 159.172 338.283 159.428C338.283 159.428 338.283 159.497 338.283 159.531C338.279 159.587 338.265 159.643 338.24 159.693C338.24 159.813 338.181 159.933 338.155 160.053C338.129 160.172 338.044 160.403 337.984 160.608C337.957 160.746 337.917 160.88 337.864 161.01C337.685 161.626 337.48 162.241 337.266 162.84C336.89 163.874 336.488 164.892 336.043 165.909C335.787 166.491 335.513 167.063 335.231 167.619C335.034 168.004 334.846 168.414 334.615 168.833C334.487 169.098 334.333 169.372 334.188 169.637C334.043 169.902 333.829 170.295 333.632 170.629C333.333 171.167 332.999 171.706 332.657 172.245C332.315 172.783 331.982 173.305 331.623 173.843C331.435 174.16 331.204 174.476 330.982 174.784L330.443 175.553C330.349 175.682 330.264 175.818 330.161 175.955C329.887 176.297 329.622 176.656 329.306 177.015C328.99 177.374 328.767 177.708 328.451 178.05C328.049 178.563 327.596 179.084 327.177 179.589C326.758 180.093 326.322 180.623 325.835 181.136C324.92 182.154 323.962 183.154 322.945 184.137C321.851 185.249 320.679 186.343 319.474 187.403C318.875 187.942 318.242 188.481 317.61 189.002C317.131 189.421 316.627 189.857 316.105 190.233L315.549 190.678C315.07 191.071 314.592 191.447 314.096 191.824C313.6 192.2 313.002 192.679 312.454 193.046C311.907 193.414 311.343 193.859 310.744 194.26L310.496 194.44C300.972 201.117 289.421 207.025 276.297 211.967C262.173 215.97 247.62 218.266 232.95 218.807C229.957 218.927 226.965 218.995 223.87 218.995H223.673C222.638 218.995 221.621 218.995 220.604 218.995C219.065 218.995 217.551 218.935 216.038 218.875L213.122 218.756L210.831 218.619C210.053 218.662 209.318 218.696 208.557 218.721C207.163 218.798 205.83 218.841 204.496 218.892H204.291C201.803 218.978 199.349 219.012 197.015 219.021H196.391C194.185 219.021 192.013 219.021 189.858 218.935C186.763 218.858 183.754 218.721 180.915 218.559H180.462C177.949 218.405 175.452 218.208 172.981 218.003C115.313 212.779 71.2384 188.549 71.2384 161.25C71.2384 155.136 73.4443 149.109 77.8218 143.295C78.0526 142.987 78.3176 142.628 78.6169 142.252C78.6574 142.194 78.7032 142.139 78.7537 142.089C79.3522 141.234 80.0704 140.379 80.8057 139.482C80.8057 139.482 80.8057 139.482 80.8057 139.439C81.4212 138.704 82.0368 137.985 82.5754 137.43C80.9795 138.809 79.4633 140.217 78.027 141.653C67.8441 151.913 62.0815 163.532 62.0815 175.895C62.0815 185.685 65.7067 195.038 72.3413 203.614C78.6682 211.882 87.7309 219.38 98.9996 225.843C99.0443 225.876 99.0932 225.901 99.145 225.92C99.2468 225.981 99.3525 226.035 99.4613 226.083C102.454 227.793 105.6 229.434 108.866 230.965C108.875 230.969 108.886 230.972 108.896 230.972C108.906 230.972 108.917 230.969 108.926 230.965C110.576 231.597 112.218 232.196 113.928 232.777C127.591 237.497 141.597 241.162 155.822 243.738C165.175 245.448 174.922 246.859 184.951 247.851H185.028C188.978 248.244 192.968 248.574 196.998 248.842C201.649 249.142 206.402 249.364 211.156 249.484C212.755 249.543 214.388 249.569 216.004 249.586C217.62 249.603 219.047 249.586 220.569 249.586C221.082 249.586 221.57 249.586 222.083 249.586C238.629 249.607 255.158 248.528 271.561 246.354C295.041 243.367 318.076 237.556 340.164 229.05C362.813 220.183 384.085 199.245 384.999 173.595C384.999 173.031 384.999 172.467 384.999 171.885C385.093 155.222 376.279 139.182 359.589 125.469ZM80.2413 209.154L79.8053 208.855C79.9592 208.94 80.1045 209.043 80.2413 209.137V209.154Z" fill="url(#paint24_linear_430_30003)"/>
<path d="M80.2402 209.136L79.8042 208.837C79.9837 208.922 80.1291 209.042 80.2402 209.136Z" fill="url(#paint25_linear_430_30003)"/>
<path d="M80.2402 209.136L79.8042 208.837C79.9837 208.922 80.1291 209.042 80.2402 209.136Z" fill="url(#paint26_linear_430_30003)"/>
<path d="M84.1384 136.054C86.8582 133.782 89.7133 131.678 92.6882 129.753C91.2946 130.676 89.9436 131.608 88.6441 132.566L87.6865 133.267C87.0709 133.72 86.4724 134.164 85.891 134.635C85.3097 135.105 84.4804 135.755 83.7964 136.345L84.1384 136.054Z" fill="url(#paint27_linear_430_30003)"/>
<path d="M83.018 137.01C82.8812 137.113 82.753 137.233 82.6162 137.352L82.7188 137.25C82.8143 137.165 82.9142 137.085 83.018 137.01Z" fill="url(#paint28_linear_430_30003)"/>
<path d="M85.9263 134.634C85.2252 135.181 84.5155 135.754 83.8315 136.344L84.1394 136.079C84.7294 135.575 85.3706 135.096 85.9263 134.634Z" fill="url(#paint29_linear_430_30003)"/>
<path d="M325.868 181.137C324.953 182.154 323.995 183.154 322.978 184.138C323.978 183.154 324.936 182.154 325.868 181.137Z" fill="url(#paint30_linear_430_30003)"/>
<path d="M330.399 175.58C330.305 175.708 330.219 175.845 330.117 175.981C329.843 176.323 329.578 176.683 329.262 177.042C329.681 176.537 330.04 176.041 330.399 175.58Z" fill="url(#paint31_linear_430_30003)"/>
<defs>
<linearGradient id="paint0_linear_430_30003" x1="322.978" y1="182.641" x2="325.868" y2="182.641" gradientUnits="userSpaceOnUse">
<stop stop-color="#67DCF7"/>
<stop offset="0.25" stop-color="#47B3D4"/>
<stop offset="0.59" stop-color="#2183AB"/>
<stop offset="0.85" stop-color="#096491"/>
<stop offset="1" stop-color="#005987"/>
</linearGradient>
<linearGradient id="paint1_linear_430_30003" x1="329.304" y1="176.281" x2="330.399" y2="176.281" gradientUnits="userSpaceOnUse">
<stop stop-color="#67DCF7"/>
<stop offset="0.25" stop-color="#47B3D4"/>
<stop offset="0.59" stop-color="#2183AB"/>
<stop offset="0.85" stop-color="#096491"/>
<stop offset="1" stop-color="#005987"/>
</linearGradient>
<linearGradient id="paint2_linear_430_30003" x1="329.304" y1="176.281" x2="330.399" y2="176.281" gradientUnits="userSpaceOnUse">
<stop stop-color="#67DCF7"/>
<stop offset="0.25" stop-color="#47B3D4"/>
<stop offset="0.59" stop-color="#2183AB"/>
<stop offset="0.85" stop-color="#096491"/>
<stop offset="1" stop-color="#005987"/>
</linearGradient>
<linearGradient id="paint3_linear_430_30003" x1="122.552" y1="-2.2315" x2="324.609" y2="327.082" gradientUnits="userSpaceOnUse">
<stop stop-color="#67DCF7"/>
<stop offset="0.25" stop-color="#47B3D4"/>
<stop offset="0.59" stop-color="#2183AB"/>
<stop offset="0.85" stop-color="#096491"/>
<stop offset="1" stop-color="#005987"/>
</linearGradient>
<linearGradient id="paint4_linear_430_30003" x1="133.385" y1="187.112" x2="313.923" y2="579.249" gradientUnits="userSpaceOnUse">
<stop stop-color="#F40000"/>
<stop offset="0.01" stop-color="#F30000"/>
<stop offset="0.64" stop-color="#D50000"/>
<stop offset="1" stop-color="#CA0000"/>
</linearGradient>
<linearGradient id="paint5_linear_430_30003" x1="60.0632" y1="97.2368" x2="262.121" y2="426.55" gradientUnits="userSpaceOnUse">
<stop stop-color="#67DCF7"/>
<stop offset="0.25" stop-color="#47B3D4"/>
<stop offset="0.59" stop-color="#2183AB"/>
<stop offset="0.85" stop-color="#096491"/>
<stop offset="1" stop-color="#005987"/>
</linearGradient>
<linearGradient id="paint6_linear_430_30003" x1="48.7935" y1="125.767" x2="54.0602" y2="125.767" gradientUnits="userSpaceOnUse">
<stop stop-color="#67DCF7"/>
<stop offset="0.25" stop-color="#47B3D4"/>
<stop offset="0.59" stop-color="#2183AB"/>
<stop offset="0.85" stop-color="#096491"/>
<stop offset="1" stop-color="#005987"/>
</linearGradient>
<linearGradient id="paint7_linear_430_30003" x1="79.8298" y1="208.999" x2="80.2659" y2="208.999" gradientUnits="userSpaceOnUse">
<stop stop-color="#67DCF7"/>
<stop offset="0.25" stop-color="#47B3D4"/>
<stop offset="0.59" stop-color="#2183AB"/>
<stop offset="0.85" stop-color="#096491"/>
<stop offset="1" stop-color="#005987"/>
</linearGradient>
<linearGradient id="paint8_linear_430_30003" x1="48.7935" y1="125.767" x2="54.0602" y2="125.767" gradientUnits="userSpaceOnUse">
<stop stop-color="#67DCF7"/>
<stop offset="0.25" stop-color="#47B3D4"/>
<stop offset="0.59" stop-color="#2183AB"/>
<stop offset="0.85" stop-color="#096491"/>
<stop offset="1" stop-color="#005987"/>
</linearGradient>
<linearGradient id="paint9_linear_430_30003" x1="38.6714" y1="112.643" x2="173.006" y2="112.643" gradientUnits="userSpaceOnUse">
<stop stop-color="#67DCF7"/>
<stop offset="0.25" stop-color="#47B3D4"/>
<stop offset="0.59" stop-color="#2183AB"/>
<stop offset="0.85" stop-color="#096491"/>
<stop offset="1" stop-color="#005987"/>
</linearGradient>
<linearGradient id="paint10_linear_430_30003" x1="48.7935" y1="125.767" x2="54.0602" y2="125.767" gradientUnits="userSpaceOnUse">
<stop stop-color="#67DCF7"/>
<stop offset="0.25" stop-color="#47B3D4"/>
<stop offset="0.59" stop-color="#2183AB"/>
<stop offset="0.85" stop-color="#096491"/>
<stop offset="1" stop-color="#005987"/>
</linearGradient>
<linearGradient id="paint11_linear_430_30003" x1="79.8298" y1="208.999" x2="80.2659" y2="208.999" gradientUnits="userSpaceOnUse">
<stop stop-color="#67DCF7"/>
<stop offset="0.25" stop-color="#47B3D4"/>
<stop offset="0.59" stop-color="#2183AB"/>
<stop offset="0.85" stop-color="#096491"/>
<stop offset="1" stop-color="#005987"/>
</linearGradient>
<linearGradient id="paint12_linear_430_30003" x1="-0.0341993" y1="161.566" x2="351.791" y2="161.566" gradientUnits="userSpaceOnUse">
<stop stop-color="#67DCF7"/>
<stop offset="0.25" stop-color="#47B3D4"/>
<stop offset="0.59" stop-color="#2183AB"/>
<stop offset="0.85" stop-color="#096491"/>
<stop offset="1" stop-color="#005987"/>
</linearGradient>
<linearGradient id="paint13_linear_430_30003" x1="322.978" y1="182.641" x2="325.868" y2="182.641" gradientUnits="userSpaceOnUse">
<stop stop-color="#67DCF7"/>
<stop offset="0.25" stop-color="#47B3D4"/>
<stop offset="0.59" stop-color="#2183AB"/>
<stop offset="0.85" stop-color="#096491"/>
<stop offset="1" stop-color="#005987"/>
</linearGradient>
<linearGradient id="paint14_linear_430_30003" x1="329.304" y1="176.281" x2="330.399" y2="176.281" gradientUnits="userSpaceOnUse">
<stop stop-color="#67DCF7"/>
<stop offset="0.25" stop-color="#47B3D4"/>
<stop offset="0.59" stop-color="#2183AB"/>
<stop offset="0.85" stop-color="#096491"/>
<stop offset="1" stop-color="#005987"/>
</linearGradient>
<linearGradient id="paint15_linear_430_30003" x1="79.8298" y1="208.999" x2="80.2659" y2="208.999" gradientUnits="userSpaceOnUse">
<stop stop-color="#67DCF7"/>
<stop offset="0.25" stop-color="#47B3D4"/>
<stop offset="0.59" stop-color="#2183AB"/>
<stop offset="0.85" stop-color="#096491"/>
<stop offset="1" stop-color="#005987"/>
</linearGradient>
<linearGradient id="paint16_linear_430_30003" x1="329.304" y1="176.281" x2="330.399" y2="176.281" gradientUnits="userSpaceOnUse">
<stop stop-color="#67DCF7"/>
<stop offset="0.25" stop-color="#47B3D4"/>
<stop offset="0.59" stop-color="#2183AB"/>
<stop offset="0.85" stop-color="#096491"/>
<stop offset="1" stop-color="#005987"/>
</linearGradient>
<linearGradient id="paint17_linear_430_30003" x1="57.9167" y1="204.426" x2="65.868" y2="204.426" gradientUnits="userSpaceOnUse">
<stop stop-color="#67DCF7"/>
<stop offset="0.25" stop-color="#47B3D4"/>
<stop offset="0.59" stop-color="#2183AB"/>
<stop offset="0.85" stop-color="#096491"/>
<stop offset="1" stop-color="#005987"/>
</linearGradient>
<linearGradient id="paint18_linear_430_30003" x1="38.0479" y1="153.46" x2="173.007" y2="153.46" gradientUnits="userSpaceOnUse">
<stop stop-color="#67DCF7"/>
<stop offset="0.25" stop-color="#47B3D4"/>
<stop offset="0.59" stop-color="#2183AB"/>
<stop offset="0.85" stop-color="#096491"/>
<stop offset="1" stop-color="#005987"/>
</linearGradient>
<linearGradient id="paint19_linear_430_30003" x1="79.8298" y1="208.999" x2="80.2659" y2="208.999" gradientUnits="userSpaceOnUse">
<stop stop-color="#67DCF7"/>
<stop offset="0.25" stop-color="#47B3D4"/>
<stop offset="0.59" stop-color="#2183AB"/>
<stop offset="0.85" stop-color="#096491"/>
<stop offset="1" stop-color="#005987"/>
</linearGradient>
<linearGradient id="paint20_linear_430_30003" x1="236.359" y1="48.5543" x2="362.964" y2="488.177" gradientUnits="userSpaceOnUse">
<stop stop-color="#F40000"/>
<stop offset="1" stop-color="#CA0000"/>
</linearGradient>
<linearGradient id="paint21_linear_430_30003" x1="322.978" y1="182.641" x2="325.868" y2="182.641" gradientUnits="userSpaceOnUse">
<stop stop-color="#67DCF7"/>
<stop offset="0.25" stop-color="#47B3D4"/>
<stop offset="0.59" stop-color="#2183AB"/>
<stop offset="0.85" stop-color="#096491"/>
<stop offset="1" stop-color="#005987"/>
</linearGradient>
<linearGradient id="paint22_linear_430_30003" x1="329.304" y1="176.281" x2="330.399" y2="176.281" gradientUnits="userSpaceOnUse">
<stop stop-color="#67DCF7"/>
<stop offset="0.25" stop-color="#47B3D4"/>
<stop offset="0.59" stop-color="#2183AB"/>
<stop offset="0.85" stop-color="#096491"/>
<stop offset="1" stop-color="#005987"/>
</linearGradient>
<linearGradient id="paint23_linear_430_30003" x1="79.8298" y1="209.001" x2="80.2659" y2="209.001" gradientUnits="userSpaceOnUse">
<stop stop-color="#67DCF7"/>
<stop offset="0.25" stop-color="#47B3D4"/>
<stop offset="0.59" stop-color="#2183AB"/>
<stop offset="0.85" stop-color="#096491"/>
<stop offset="1" stop-color="#005987"/>
</linearGradient>
<linearGradient id="paint24_linear_430_30003" x1="18.7511" y1="263.745" x2="549.925" y2="41.7232" gradientUnits="userSpaceOnUse">
<stop stop-color="#67DCF7"/>
<stop offset="0.22" stop-color="#4CB9D9"/>
<stop offset="0.58" stop-color="#2385AD"/>
<stop offset="0.85" stop-color="#0A6591"/>
<stop offset="1" stop-color="#005987"/>
</linearGradient>
<linearGradient id="paint25_linear_430_30003" x1="79.8298" y1="208.999" x2="80.2659" y2="208.999" gradientUnits="userSpaceOnUse">
<stop stop-color="#67DCF7"/>
<stop offset="0.25" stop-color="#47B3D4"/>
<stop offset="0.59" stop-color="#2183AB"/>
<stop offset="0.85" stop-color="#096491"/>
<stop offset="1" stop-color="#005987"/>
</linearGradient>
<linearGradient id="paint26_linear_430_30003" x1="79.8298" y1="208.999" x2="80.2659" y2="208.999" gradientUnits="userSpaceOnUse">
<stop stop-color="#67DCF7"/>
<stop offset="0.25" stop-color="#47B3D4"/>
<stop offset="0.59" stop-color="#2183AB"/>
<stop offset="0.85" stop-color="#096491"/>
<stop offset="1" stop-color="#005987"/>
</linearGradient>
<linearGradient id="paint27_linear_430_30003" x1="83.8306" y1="133.036" x2="92.7224" y2="133.036" gradientUnits="userSpaceOnUse">
<stop stop-color="#67DCF7"/>
<stop offset="0.25" stop-color="#47B3D4"/>
<stop offset="0.59" stop-color="#2183AB"/>
<stop offset="0.85" stop-color="#096491"/>
<stop offset="1" stop-color="#005987"/>
</linearGradient>
<linearGradient id="paint28_linear_430_30003" x1="82.6162" y1="137.181" x2="83.018" y2="137.181" gradientUnits="userSpaceOnUse">
<stop stop-color="#67DCF7"/>
<stop offset="0.25" stop-color="#47B3D4"/>
<stop offset="0.59" stop-color="#2183AB"/>
<stop offset="0.85" stop-color="#096491"/>
<stop offset="1" stop-color="#005987"/>
</linearGradient>
<linearGradient id="paint29_linear_430_30003" x1="83.8315" y1="135.472" x2="85.9263" y2="135.472" gradientUnits="userSpaceOnUse">
<stop stop-color="#67DCF7"/>
<stop offset="0.25" stop-color="#47B3D4"/>
<stop offset="0.59" stop-color="#2183AB"/>
<stop offset="0.85" stop-color="#096491"/>
<stop offset="1" stop-color="#005987"/>
</linearGradient>
<linearGradient id="paint30_linear_430_30003" x1="322.978" y1="182.641" x2="325.868" y2="182.641" gradientUnits="userSpaceOnUse">
<stop stop-color="#67DCF7"/>
<stop offset="0.25" stop-color="#47B3D4"/>
<stop offset="0.59" stop-color="#2183AB"/>
<stop offset="0.85" stop-color="#096491"/>
<stop offset="1" stop-color="#005987"/>
</linearGradient>
<linearGradient id="paint31_linear_430_30003" x1="329.304" y1="176.281" x2="330.399" y2="176.281" gradientUnits="userSpaceOnUse">
<stop stop-color="#67DCF7"/>
<stop offset="0.25" stop-color="#47B3D4"/>
<stop offset="0.59" stop-color="#2183AB"/>
<stop offset="0.85" stop-color="#096491"/>
<stop offset="1" stop-color="#005987"/>
</linearGradient>
</defs>
</svg>
