<svg width="760" height="440" viewBox="0 0 760 440" fill="none" xmlns="http://www.w3.org/2000/svg">
<path d="M629.073 427.655C693.499 428.796 733.899 364.613 733.842 325.149C733.786 282.526 706.134 244.584 689.872 204.828C675.452 169.606 680.749 129.616 658.509 96.3546C631.453 55.8965 570.626 44.0194 518.893 29.7727C452.003 11.3428 381.543 -4.89312 309.354 1.36721C258.5 5.7553 208.608 21.8157 173.024 49.6361C145.033 71.518 127.241 99.1045 106.956 125.053C85.9338 151.878 58.7924 169.636 32.586 192.746C-40.7638 257.485 22.5283 374.032 96.2464 422.067C96.2464 422.038 628.847 427.626 629.073 427.655Z" fill="#D4E8F0"/>
<path d="M360.664 412.531C360.635 412.531 360.635 412.531 360.607 412.531C360.437 412.501 360.324 412.355 360.352 412.18C365.848 367.392 372.279 335.359 378.427 321.931C378.569 321.639 378.654 321.405 378.682 321.317C378.739 321.141 378.909 321.054 379.051 321.112C379.221 321.171 379.306 321.346 379.249 321.492C379.192 321.639 379.107 321.844 378.966 322.195C372.846 335.564 366.443 367.538 360.947 412.238C360.919 412.414 360.805 412.531 360.664 412.531Z" fill="#BDD1F9"/>
<path d="M383.697 318.772C382.96 320.293 378.54 323.599 378.115 323.365C377.69 323.16 377.634 317.514 378.399 315.993C379.135 314.472 380.92 313.857 382.393 314.647C383.838 315.408 384.433 317.251 383.697 318.772Z" fill="#BDD1F9"/>
<path d="M375.028 324.476C375.764 326.027 375.651 331.79 375.226 332.024C374.801 332.229 370.296 328.806 369.56 327.255C368.823 325.705 369.446 323.804 370.948 323.043C372.478 322.282 374.291 322.926 375.028 324.476Z" fill="#BDD1F9"/>
<path d="M382.365 333.282C380.722 333.691 375.311 332.287 375.198 331.79C375.084 331.322 379.334 327.548 380.977 327.168C382.62 326.758 384.264 327.811 384.632 329.508C385.029 331.205 384.009 332.872 382.365 333.282Z" fill="#BDD1F9"/>
<path d="M365.424 355.193C366.925 357.65 367.775 367.304 367.095 367.743C366.415 368.182 358.313 363.296 356.811 360.839C355.31 358.382 356.018 355.134 358.398 353.555C360.778 352.004 363.922 352.736 365.424 355.193Z" fill="#BDD1F9"/>
<path d="M379.22 368.504C376.557 369.469 367.264 368.152 367.009 367.363C366.754 366.573 373.186 359.523 375.849 358.557C378.512 357.592 381.43 359.025 382.365 361.775C383.271 364.525 381.883 367.538 379.22 368.504Z" fill="#BDD1F9"/>
<path d="M359.926 367.099C362.363 369.615 365.876 380.907 365.196 381.609C364.487 382.341 353.552 378.742 351.115 376.226C348.679 373.711 348.65 369.615 351.087 367.099C353.523 364.583 357.49 364.583 359.926 367.099Z" fill="#BDD1F9"/>
<path d="M379.334 384.271C375.963 385.09 364.829 382.282 364.602 381.287C364.375 380.293 373.073 372.541 376.416 371.721C379.788 370.902 383.159 373.038 383.952 376.49C384.774 379.971 382.706 383.452 379.334 384.271Z" fill="#BDD1F9"/>
<path d="M357.717 381.785C360.154 384.301 363.667 395.593 362.987 396.295C362.278 397.026 351.343 393.428 348.906 390.912C346.47 388.396 346.441 384.301 348.878 381.785C351.314 379.269 355.252 379.269 357.717 381.785Z" fill="#BDD1F9"/>
<path d="M377.123 398.957C373.752 399.776 362.618 396.968 362.391 395.973C362.164 394.978 370.862 387.226 374.205 386.407C377.577 385.588 380.948 387.723 381.741 391.175C382.535 394.627 380.466 398.108 377.123 398.957Z" fill="#BDD1F9"/>
<path d="M350.719 400.946C353.92 402.321 361.315 411.36 360.946 412.297C360.578 413.233 349.132 414.227 345.931 412.882C342.729 411.507 341.228 407.733 342.559 404.457C343.863 401.151 347.517 399.571 350.719 400.946Z" fill="#BDD1F9"/>
<path d="M375.397 413.379C372.167 414.637 360.749 413.262 360.409 412.326C360.069 411.36 367.747 402.555 370.977 401.297C374.207 400.039 377.805 401.736 379.023 405.071C380.241 408.406 378.626 412.121 375.397 413.379Z" fill="#BDD1F9"/>
<path d="M372.081 334.042C372.846 335.622 372.733 341.473 372.28 341.707C371.855 341.941 367.265 338.43 366.528 336.851C365.763 335.271 366.415 333.34 367.945 332.58C369.475 331.819 371.345 332.463 372.081 334.042Z" fill="#BDD1F9"/>
<path d="M379.334 343.111C377.663 343.521 372.166 342.087 372.053 341.59C371.94 341.093 376.246 337.29 377.918 336.88C379.589 336.471 381.232 337.553 381.629 339.25C382.026 340.946 381.006 342.702 379.334 343.111Z" fill="#BDD1F9"/>
<path d="M368.426 343.082C369.673 345.217 370.183 353.555 369.588 353.906C368.993 354.286 362.137 349.898 360.89 347.733C359.644 345.598 360.324 342.789 362.392 341.502C364.488 340.215 367.18 340.917 368.426 343.082Z" fill="#BDD1F9"/>
<path d="M379.815 355.778C377.464 356.363 369.616 354.315 369.474 353.613C369.304 352.911 375.452 347.499 377.804 346.943C380.155 346.358 382.535 347.879 383.073 350.337C383.64 352.765 382.167 355.222 379.815 355.778Z" fill="#BDD1F9"/>
<path d="M143.73 401.882C143.787 401.882 143.815 401.882 143.872 401.882C144.269 401.824 144.552 401.473 144.495 401.063C131.52 295.544 116.391 220.011 101.913 188.387C101.602 187.685 101.347 187.188 101.29 186.925C101.177 186.544 100.752 186.34 100.384 186.457C100.015 186.574 99.8169 187.012 99.9303 187.393C100.044 187.744 100.27 188.212 100.639 189.031C115.059 220.508 130.131 295.895 143.079 401.268C143.107 401.59 143.39 401.853 143.73 401.882Z" fill="#BDD1F9"/>
<path d="M89.4467 180.898C91.2033 184.467 101.629 192.278 102.592 191.752C103.584 191.225 103.697 177.944 101.941 174.375C100.184 170.806 95.9913 169.372 92.5348 171.186C89.0784 172.971 87.6902 177.329 89.4467 180.898Z" fill="#BDD1F9"/>
<path d="M109.846 194.355C108.09 198.012 108.345 211.615 109.365 212.142C110.385 212.668 120.98 204.565 122.709 200.908C124.465 197.251 122.992 192.805 119.451 190.991C115.881 189.177 111.603 190.698 109.846 194.355Z" fill="#BDD1F9"/>
<path d="M92.5349 215.067C96.3879 216.003 109.165 212.697 109.42 211.556C109.675 210.416 99.6744 201.581 95.793 200.645C91.9399 199.709 88.0868 202.195 87.1802 206.174C86.302 210.152 88.6818 214.131 92.5349 215.067Z" fill="#BDD1F9"/>
<path d="M132.454 266.729C128.884 272.521 126.929 295.281 128.516 296.305C130.131 297.358 149.198 285.832 152.768 280.04C156.337 274.247 154.666 266.554 149.056 262.868C143.475 259.211 136.024 260.937 132.454 266.729Z" fill="#BDD1F9"/>
<path d="M99.9573 298.06C106.219 300.342 128.119 297.212 128.77 295.34C129.394 293.497 114.236 276.88 107.975 274.599C101.714 272.317 94.8294 275.71 92.6195 282.205C90.3813 288.699 93.6961 295.778 99.9573 298.06Z" fill="#BDD1F9"/>
<path d="M145.43 294.784C139.65 300.722 131.377 327.314 133.02 329.011C134.664 330.708 160.445 322.282 166.225 316.344C172.004 310.405 172.004 300.781 166.281 294.842C160.53 288.875 151.209 288.875 145.43 294.784Z" fill="#BDD1F9"/>
<path d="M99.6753 335.271C107.58 337.231 133.871 330.561 134.409 328.221C134.948 325.881 114.464 307.626 106.56 305.666C98.6554 303.706 90.6943 308.738 88.7961 316.9C86.8695 325.091 91.7709 333.311 99.6753 335.271Z" fill="#BDD1F9"/>
<path d="M150.67 329.391C144.89 335.33 136.618 361.921 138.261 363.618C139.904 365.315 165.685 356.89 171.465 350.951C177.245 345.013 177.245 335.388 171.522 329.45C165.77 323.482 156.449 323.453 150.67 329.391Z" fill="#BDD1F9"/>
<path d="M104.916 369.849C112.821 371.809 139.112 365.139 139.65 362.799C140.189 360.459 119.705 342.204 111.801 340.244C103.896 338.284 95.9352 343.316 94.037 351.478C92.1388 359.669 97.0118 367.889 104.916 369.849Z" fill="#BDD1F9"/>
<path d="M167.132 374.559C159.624 377.777 142.144 399.103 143.022 401.326C143.9 403.55 170.872 405.89 178.38 402.672C185.887 399.454 189.457 390.561 186.369 382.809C183.281 375.027 174.668 371.341 167.132 374.559Z" fill="#BDD1F9"/>
<path d="M108.996 403.871C116.617 406.826 143.475 403.608 144.297 401.356C145.119 399.103 126.987 378.362 119.394 375.378C111.773 372.424 103.273 376.373 100.412 384.242C97.5504 392.141 101.375 400.917 108.996 403.871Z" fill="#BDD1F9"/>
<path d="M116.787 216.881C115.002 220.596 115.257 234.433 116.306 234.959C117.326 235.486 128.092 227.266 129.876 223.55C131.661 219.835 130.16 215.301 126.562 213.487C122.935 211.615 118.572 213.136 116.787 216.881Z" fill="#BDD1F9"/>
<path d="M99.6736 238.265C103.583 239.201 116.587 235.837 116.842 234.696C117.097 233.555 106.926 224.574 103.017 223.609C99.107 222.673 95.1689 225.159 94.2623 229.226C93.3274 233.263 95.7639 237.329 99.6736 238.265Z" fill="#BDD1F9"/>
<path d="M125.427 238.148C122.481 243.209 121.291 262.809 122.679 263.687C124.068 264.565 140.245 254.209 143.191 249.148C146.138 244.087 144.523 237.505 139.621 234.491C134.72 231.449 128.374 233.087 125.427 238.148Z" fill="#BDD1F9"/>
<path d="M98.5689 268.134C104.122 269.479 122.566 264.711 122.962 263.073C123.33 261.434 108.881 248.68 103.3 247.334C97.719 245.988 92.166 249.557 90.8628 255.291C89.5595 261.025 93.016 266.788 98.5689 268.134Z" fill="#BDD1F9"/>
<path d="M380.041 440C568.68 440 721.602 428.998 721.602 415.427C721.602 401.855 568.68 390.853 380.041 390.853C191.401 390.853 38.4785 401.855 38.4785 415.427C38.4785 428.998 191.401 440 380.041 440Z" fill="#BDD1F9"/>
<path d="M166.508 138.86C162.032 137.69 156.734 134.853 157.13 130.114C157.47 125.872 162.372 123.707 166.508 123.795C170.616 123.882 174.781 125.287 178.804 124.292C184.045 122.976 187.502 118.032 190.703 113.585C194.103 108.875 197.871 104.224 202.829 101.298C207.787 98.3731 214.161 97.437 219.176 100.275C223.001 102.439 225.664 106.535 229.715 108.232C235.183 110.513 241.246 107.734 246.997 106.272C252.72 104.809 260.426 105.804 262.155 111.625C263.599 116.51 260.03 122.712 263.373 126.457C280.457 145.706 246.969 139.094 234.758 139.943C212.008 141.552 188.89 144.711 166.508 138.86Z" fill="white"/>
<path d="M624.853 136.286C620.943 138.539 616.127 139.358 611.48 140.148C608.052 140.703 604.624 141.289 601.196 141.844C593.49 143.132 585.331 144.389 577.908 142.254C572.497 140.703 567.907 137.486 562.382 136.315C556.858 135.145 551.021 136.111 545.355 135.877C543.74 135.818 542.069 135.613 540.596 135.057C537.451 133.858 535.496 130.786 536.034 127.92C536.601 125.082 539.632 122.683 543.089 122.391C547.65 121.981 553.175 124.585 556.376 121.835C557.481 120.869 557.878 119.524 558.671 118.354C560.229 116.013 563.204 114.58 566.207 113.644C575.67 110.63 583.574 112.766 593.065 113.878C599.496 114.638 605.389 113.41 611.764 112.971C619.895 112.415 628.168 113.38 631.057 120.694C633.182 126.223 630.547 132.98 624.853 136.286Z" fill="white"/>
<path d="M311.366 410.19C311.338 410.19 311.309 410.19 311.281 410.19C311.054 410.161 310.913 409.956 310.941 409.722C318.336 349.605 326.948 306.602 335.193 288.582C335.363 288.172 335.504 287.88 335.561 287.763C335.618 287.529 335.873 287.412 336.071 287.499C336.298 287.558 336.411 287.821 336.326 288.026C336.269 288.231 336.128 288.494 335.929 288.962C327.713 306.895 319.129 349.84 311.763 409.839C311.706 410.044 311.536 410.19 311.366 410.19Z" fill="#2D42BA"/>
<path d="M342.277 284.34C341.286 286.359 335.336 290.805 334.769 290.513C334.203 290.22 334.146 282.643 335.138 280.625C336.129 278.577 338.537 277.787 340.492 278.811C342.475 279.835 343.269 282.292 342.277 284.34Z" fill="#2D42BA"/>
<path d="M330.66 292.005C331.652 294.082 331.51 301.834 330.943 302.126C330.377 302.419 324.342 297.826 323.322 295.72C322.331 293.643 323.152 291.098 325.192 290.074C327.204 289.05 329.668 289.928 330.66 292.005Z" fill="#2D42BA"/>
<path d="M340.491 303.794C338.281 304.32 331.028 302.448 330.858 301.805C330.716 301.161 336.411 296.129 338.621 295.603C340.831 295.076 343.012 296.48 343.522 298.733C344.06 301.015 342.701 303.267 340.491 303.794Z" fill="#2D42BA"/>
<path d="M317.77 333.223C319.81 336.529 320.915 349.489 320.008 350.074C319.102 350.659 308.222 344.106 306.183 340.8C304.143 337.494 305.106 333.136 308.307 331.029C311.509 328.952 315.73 329.918 317.77 333.223Z" fill="#2D42BA"/>
<path d="M336.271 351.068C332.701 352.355 320.235 350.571 319.867 349.518C319.499 348.465 328.14 339.016 331.709 337.699C335.279 336.412 339.189 338.343 340.464 342.029C341.739 345.744 339.84 349.781 336.271 351.068Z" fill="#2D42BA"/>
<path d="M310.375 349.196C313.662 352.56 318.365 367.714 317.43 368.679C316.495 369.644 301.791 364.847 298.533 361.453C295.246 358.089 295.246 352.589 298.504 349.196C301.791 345.832 307.089 345.832 310.375 349.196Z" fill="#2D42BA"/>
<path d="M336.44 372.248C331.935 373.36 316.976 369.557 316.664 368.24C316.353 366.924 328.025 356.509 332.53 355.398C337.035 354.286 341.568 357.153 342.644 361.804C343.721 366.456 340.944 371.136 336.44 372.248Z" fill="#2D42BA"/>
<path d="M307.401 368.913C310.687 372.277 315.39 387.431 314.455 388.396C313.52 389.361 298.816 384.564 295.558 381.17C292.272 377.806 292.272 372.306 295.53 368.913C298.788 365.549 304.114 365.52 307.401 368.913Z" fill="#2D42BA"/>
<path d="M333.465 391.965C328.96 393.077 314.001 389.274 313.69 387.957C313.378 386.641 325.051 376.227 329.555 375.115C334.06 374.003 338.593 376.87 339.67 381.522C340.746 386.173 337.97 390.854 333.465 391.965Z" fill="#2D42BA"/>
<path d="M298.023 394.627C302.301 396.47 312.245 408.611 311.735 409.868C311.225 411.126 295.87 412.472 291.592 410.629C287.314 408.786 285.274 403.725 287.059 399.308C288.815 394.89 293.745 392.813 298.023 394.627Z" fill="#2D42BA"/>
<path d="M331.141 411.331C326.807 413.028 311.508 411.185 311.026 409.898C310.573 408.611 320.886 396.792 325.22 395.125C329.555 393.428 334.4 395.71 336.043 400.186C337.658 404.632 335.476 409.635 331.141 411.331Z" fill="#2D42BA"/>
<path d="M326.693 304.818C327.713 306.953 327.571 314.823 326.977 315.115C326.382 315.408 320.262 310.727 319.242 308.621C318.222 306.485 319.072 303.94 321.14 302.887C323.208 301.834 325.673 302.712 326.693 304.818Z" fill="#2D42BA"/>
<path d="M336.441 317.017C334.203 317.543 326.808 315.642 326.667 314.969C326.525 314.325 332.305 309.206 334.543 308.65C336.781 308.124 339.019 309.528 339.529 311.839C340.067 314.179 338.679 316.461 336.441 317.017Z" fill="#2D42BA"/>
<path d="M321.764 316.958C323.436 319.854 324.116 331 323.323 331.497C322.529 331.995 313.322 326.115 311.65 323.219C309.979 320.322 310.885 316.607 313.69 314.852C316.495 313.126 320.093 314.062 321.764 316.958Z" fill="#2D42BA"/>
<path d="M337.063 334.013C333.89 334.774 323.379 332.053 323.18 331.117C322.954 330.181 331.198 322.926 334.371 322.136C337.544 321.375 340.717 323.394 341.454 326.67C342.219 329.976 340.236 333.253 337.063 334.013Z" fill="#2D42BA"/>
<path d="M320.348 68.4756C318.053 69.792 315.248 70.2893 312.5 70.7281C310.488 71.0499 308.477 71.401 306.465 71.7228C301.961 72.4834 297.173 73.2147 292.81 71.9568C289.637 71.0499 286.973 69.1777 283.715 68.4756C280.486 67.7735 277.057 68.3586 273.743 68.2123C272.779 68.183 271.816 68.066 270.966 67.7442C269.125 67.0421 267.963 65.2284 268.303 63.5609C268.643 61.8935 270.4 60.4893 272.439 60.3138C275.131 60.0797 278.361 61.6009 280.231 59.992C280.882 59.4361 281.109 58.6463 281.562 57.9442C282.469 56.5693 284.225 55.7501 285.982 55.1943C291.535 53.4391 296.153 54.6678 301.706 55.3406C305.474 55.7794 308.93 55.0773 312.67 54.814C317.43 54.4922 322.274 55.048 323.974 59.3484C325.249 62.5663 323.719 66.5448 320.348 68.4756Z" fill="white"/>
<path d="M383.432 264.121H422.416V158.368H383.432V264.121Z" fill="#D1464D"/>
<path d="M482.332 274.064H521.486V196.103H482.332V274.064Z" fill="#D1464D"/>
<path d="M432.18 285.704H471.334V175.124H432.18V285.704Z" fill="#D1464D"/>
<path d="M759.257 333.428C725.684 310.844 661.004 266.7 646.385 252.366C629.584 235.896 600.601 209.275 583.234 206.583C566.859 204.067 541.7 211.556 510.508 218.051C473.422 225.745 450.134 234.228 444.836 238.09C437.498 243.414 442.002 253.477 453.533 257.66C464.356 261.61 510.848 245.286 519.205 257.895C521.925 262.019 467.416 276.939 458.435 276.91C449.454 276.88 396.956 239.26 378.597 231.859C360.238 224.457 350.379 234.579 350.861 236.773C351.966 242.039 430.953 314.94 454.695 329.771C478.408 344.603 577.341 306.544 591.649 305.081C602.188 303.999 690.327 381.083 714.691 402.731C740.926 398.547 725.712 352.94 749.227 339.484C752.599 337.582 755.942 335.534 759.257 333.428Z" fill="#FFA089"/>
<path d="M614.256 374.208C610.092 375.056 596.549 371.049 596.294 369.849C596.068 368.621 607.089 359.523 611.225 358.674C615.39 357.826 619.441 360.605 620.263 364.905C621.113 369.147 618.393 373.33 614.256 374.208Z" fill="#89B4FD"/>
<path d="M578.19 374.179C579.691 378.274 578.048 392.755 576.915 393.194C575.782 393.633 565.299 383.862 563.826 379.766C562.324 375.671 564.336 371.107 568.302 369.557C572.269 368.006 576.688 370.083 578.19 374.179Z" fill="#89B4FD"/>
<path d="M591.648 405.773C587.426 406.3 574.224 401.239 574.054 400.01C573.912 398.781 585.557 390.561 589.778 390.034C593.999 389.508 597.824 392.609 598.334 396.938C598.872 401.268 595.869 405.217 591.648 405.773Z" fill="#89B4FD"/>
<path d="M568.982 413.642C569.152 413.671 569.322 413.73 569.521 413.759C569.606 413.437 569.719 413.057 569.832 412.648C570.626 409.868 572.071 405.393 574.224 400.244C574.394 399.834 574.564 399.425 574.762 399.015C579.097 389.098 586.095 377.133 596.549 370.142C596.605 370.083 596.69 370.054 596.747 369.995L596.464 369.527C596.435 369.557 596.379 369.586 596.351 369.615C587.993 375.173 581.817 383.891 577.425 392.228C577.255 392.55 577.085 392.872 576.915 393.194C572.864 401.092 570.456 408.552 569.294 412.531C569.181 412.94 569.067 413.291 568.982 413.642Z" fill="#89B4FD"/>
<path d="M564.648 412.765C564.62 412.384 564.62 411.975 564.591 411.594C564.195 401.56 564.79 391.994 565.951 383.189C566.575 378.391 567.396 373.828 568.274 369.557C570.909 357.007 574.366 346.856 576.915 340.39C578.304 336.88 579.38 334.452 579.919 333.311C580.032 333.048 580.117 332.872 580.202 332.755C580.23 332.697 580.259 332.667 580.259 332.638C580.259 332.609 580.287 332.609 580.287 332.609L580.372 332.667L580.485 332.726L580.684 332.843L580.74 332.872L580.769 332.901C580.769 332.901 580.74 332.931 580.74 332.96C580.712 333.018 580.684 333.077 580.627 333.165C580.57 333.252 580.542 333.369 580.485 333.487C579.947 334.598 578.814 337.143 577.369 340.858C574.876 347.236 571.533 357.153 568.926 369.352C567.963 373.857 567.113 378.684 566.461 383.774C565.328 392.433 564.79 401.853 565.186 411.682C565.215 412.062 565.215 412.443 565.243 412.852L564.648 412.765Z" fill="#89B4FD"/>
<path d="M586.688 330.386C585.555 331.527 580.54 333.165 580.229 332.814C579.917 332.492 581.532 327.314 582.665 326.173C583.798 325.032 585.612 325.032 586.717 326.202C587.821 327.373 587.793 329.245 586.688 330.386Z" fill="white"/>
<path d="M579.464 325.617C580.314 326.992 580.824 332.404 580.456 332.667C580.087 332.931 575.526 330.21 574.648 328.835C573.798 327.46 574.166 325.617 575.498 324.74C576.829 323.833 578.614 324.242 579.464 325.617Z" fill="white"/>
<path d="M573.458 330.883C575.016 330.561 580.059 332.053 580.172 332.521C580.257 332.989 576.149 336.383 574.591 336.704C573.033 337.026 571.531 335.973 571.22 334.393C570.88 332.784 571.9 331.205 573.458 330.883Z" fill="white"/>
<path d="M576.461 338.226C576.716 336.617 579.861 332.258 580.314 332.346C580.768 332.433 582.383 337.611 582.128 339.22C581.873 340.829 580.399 341.912 578.841 341.648C577.255 341.385 576.178 339.864 576.461 338.226Z" fill="white"/>
<path d="M584.252 338.43C582.892 337.582 580.172 332.931 580.427 332.521C580.654 332.112 585.923 332.521 587.255 333.399C588.615 334.247 589.011 336.09 588.19 337.465C587.368 338.869 585.612 339.308 584.252 338.43Z" fill="white"/>
<path d="M581.391 332.433C581.334 331.907 580.881 331.497 580.371 331.556C579.861 331.614 579.464 332.082 579.521 332.609C579.578 333.135 580.031 333.545 580.541 333.486C581.051 333.457 581.419 332.989 581.391 332.433Z" fill="#89B4FD"/>
<path opacity="0.26" d="M410.411 244.467C453.941 244.467 489.229 208.03 489.229 163.083C489.229 118.135 453.941 81.6984 410.411 81.6984C366.882 81.6984 331.594 118.135 331.594 163.083C331.594 208.03 366.882 244.467 410.411 244.467Z" fill="white"/>
<path d="M401.941 123.385L444.24 161.357L493.225 134.326L535.92 184.204L496.2 115.106L445.288 145.238L410.412 114.521L401.941 123.385Z" fill="#E85E56"/>
<path d="M519.657 382.516C522.547 383.101 531.982 380.322 532.123 379.474C532.293 378.625 524.644 372.306 521.754 371.692C518.864 371.107 516.059 373.038 515.464 376.022C514.898 379.006 516.768 381.931 519.657 382.516Z" fill="#89B4FD"/>
<path d="M544.703 382.516C543.655 385.354 544.817 395.417 545.582 395.71C546.375 396.002 553.656 389.244 554.676 386.378C555.724 383.54 554.308 380.351 551.559 379.269C548.84 378.216 545.752 379.678 544.703 382.516Z" fill="#89B4FD"/>
<path d="M535.353 404.456C538.272 404.837 547.479 401.297 547.564 400.449C547.678 399.6 539.575 393.896 536.628 393.516C533.71 393.135 531.047 395.3 530.679 398.313C530.339 401.326 532.435 404.076 535.353 404.456Z" fill="#89B4FD"/>
<path d="M551.106 409.927C550.993 409.956 550.851 409.986 550.738 410.015C550.681 409.781 550.596 409.517 550.511 409.254C549.945 407.323 548.953 404.193 547.451 400.624C547.338 400.332 547.196 400.068 547.083 399.776C544.08 392.872 539.207 384.564 531.954 379.708C531.897 379.679 531.869 379.649 531.812 379.62L532.011 379.298C532.039 379.327 532.067 379.327 532.096 379.357C537.904 383.218 542.21 389.274 545.242 395.066C545.355 395.3 545.468 395.505 545.582 395.739C548.386 401.239 550.086 406.417 550.88 409.166C550.964 409.43 551.05 409.693 551.106 409.927Z" fill="#89B4FD"/>
<path d="M554.137 409.313C554.166 409.049 554.165 408.757 554.165 408.494C554.449 401.531 554.024 394.861 553.231 388.747C552.777 385.412 552.239 382.253 551.616 379.269C549.774 370.551 547.366 363.501 545.609 358.996C544.646 356.539 543.881 354.871 543.513 354.081C543.428 353.906 543.371 353.759 543.315 353.672C543.286 353.642 543.286 353.613 543.286 353.584V353.555L543.23 353.584L543.173 353.613L543.031 353.701L543.003 353.73H542.975C542.975 353.73 542.975 353.759 543.003 353.789C543.031 353.818 543.031 353.876 543.088 353.935C543.116 353.994 543.145 354.081 543.201 354.169C543.57 354.93 544.363 356.714 545.383 359.288C547.111 363.735 549.434 370.61 551.247 379.093C551.899 382.224 552.494 385.588 552.947 389.098C553.712 395.124 554.109 401.648 553.826 408.494C553.826 408.757 553.797 409.02 553.797 409.313H554.137Z" fill="#89B4FD"/>
<path d="M538.809 352.092C539.602 352.882 543.087 354.023 543.314 353.789C543.54 353.555 542.407 349.957 541.614 349.167C540.821 348.377 539.574 348.377 538.809 349.196C538.016 349.986 538.044 351.273 538.809 352.092Z" fill="white"/>
<path d="M543.824 348.757C543.229 349.722 542.889 353.467 543.144 353.642C543.399 353.818 546.572 351.946 547.167 350.98C547.762 350.015 547.507 348.757 546.572 348.143C545.666 347.528 544.419 347.792 543.824 348.757Z" fill="white"/>
<path d="M548.016 352.443C546.94 352.209 543.427 353.262 543.37 353.584C543.313 353.906 546.175 356.246 547.251 356.48C548.328 356.714 549.376 355.983 549.603 354.871C549.773 353.73 549.093 352.648 548.016 352.443Z" fill="white"/>
<path d="M545.92 357.533C545.75 356.422 543.54 353.379 543.229 353.438C542.917 353.496 541.784 357.094 541.982 358.206C542.152 359.318 543.2 360.078 544.277 359.903C545.382 359.698 546.09 358.645 545.92 357.533Z" fill="white"/>
<path d="M540.481 357.68C541.416 357.094 543.314 353.847 543.144 353.584C542.974 353.321 539.319 353.584 538.384 354.198C537.449 354.783 537.166 356.071 537.733 357.036C538.327 357.972 539.546 358.265 540.481 357.68Z" fill="white"/>
<path d="M542.492 353.496C542.521 353.116 542.832 352.853 543.201 352.882C543.569 352.911 543.824 353.233 543.796 353.613C543.767 353.994 543.456 354.257 543.087 354.228C542.719 354.198 542.464 353.877 542.492 353.496Z" fill="#89B4FD"/>
<path d="M120.463 311.254C121.908 310.815 122.843 310.581 123.183 310.61C141.712 311.283 141.088 307.597 161.034 317.251C163.555 318.479 166.332 319.415 168.966 320.82C192.68 333.487 206.732 333.282 210.897 333.34C212.257 333.37 216.251 332.521 216.251 332.521C218.546 332.96 227.981 321.873 231.494 313.155C231.522 313.097 231.522 313.038 231.55 312.98C232.712 310.083 233.505 307.948 233.647 307.421C233.788 306.866 233.873 306.339 233.93 305.812C234.157 303.823 233.845 302.009 233.222 300.371C231.239 295.193 226.252 292.034 226.252 292.034C226.252 292.034 226.621 291.595 227.272 290.747C227.357 290.63 227.471 290.513 227.556 290.396C228.83 288.787 231.012 286.066 233.732 282.614C233.845 282.468 233.958 282.321 234.072 282.175C234.723 281.356 235.403 280.508 236.112 279.601C236.168 279.542 236.225 279.484 236.253 279.425C237.67 277.641 239.171 275.71 240.758 273.692C241.155 273.165 241.58 272.638 242.005 272.112C242.061 272.024 242.26 271.878 242.543 271.702C243.874 270.854 247.472 269.099 252.345 266.788C254.952 265.559 285.125 272.609 285.153 272.58C237.415 233.146 243.903 202.926 237.981 200.001C230.785 196.461 223.986 194.004 219.085 194.238C206.902 194.794 178.287 204.886 153.243 213.838C134.771 220.45 118.197 226.417 111.624 227.441C106.751 228.202 92.3586 230.513 69.1553 234.111C55.5279 236.247 38.8691 238.821 19.3205 241.805C13.7393 242.653 7.98803 243.531 2.15178 244.408C-2.21124 265.676 0.593558 288.553 8.38466 310.961C16.0624 320.469 24.0519 330.21 32.3813 340.127C35.9793 339.045 39.5208 337.962 42.9488 336.938C60.9959 331.527 77.8813 325.881 91.5087 321.2C105.249 316.461 115.675 312.687 120.463 311.254Z" fill="#FF9280"/>
<path d="M158.603 259.445C156.676 258.275 155.685 257.222 155.6 257.134L156.195 256.549C156.223 256.578 160.274 260.849 168.377 261.785C175.885 262.663 188.521 260.732 206.086 246.778L206.596 247.451C196.765 255.291 182.118 264.272 168.235 262.634C163.844 262.107 160.671 260.703 158.603 259.445Z" fill="#E87765"/>
<path d="M91.4265 321.2C91.3982 321.2 91.4265 321.2 91.4265 321.2C91.3982 320.586 91.3415 320.03 91.2565 319.445C90.0666 311.312 85.7602 301.658 78.1108 291.332C62.5852 270.357 70.603 254.326 69.1298 234.14C68.8748 231.01 68.4498 227.705 67.5999 224.37C67.0899 222.205 66.4666 220.069 65.645 217.817C63.9451 213.282 42.6117 215.272 10.2573 221.152C-11.7278 264.126 4.13774 318.392 35.4438 362.565C48.7312 356.246 62.3019 349.752 76.1843 343.053C86.2419 338.167 92.5314 332.726 91.4265 321.2Z" fill="#2F61C7"/>
<path d="M153.191 213.838C153.191 213.838 213.849 179.64 263.372 178.675C270.143 178.558 280.597 173.673 291.845 168.056C296.548 165.716 301.364 163.229 306.096 160.947C306.747 160.625 307.399 160.304 308.05 160.011C316.21 156.12 325.219 184.409 287.34 198.802C278.416 202.195 247.421 212.112 244.73 237.651C243.03 253.916 169.765 232.151 153.191 213.838Z" fill="#FF9280"/>
<path d="M356.073 211.732L346.95 218.022L172.939 338.489C172.628 338.723 172.174 338.635 171.976 338.284L164.752 327.168C164.525 326.846 164.61 326.378 164.95 326.173L338.734 205.881L347.8 199.592C350.18 203.98 352.956 208.017 356.073 211.732Z" fill="#112FAA"/>
<path d="M391.685 79.8262C347.148 90.5038 319.411 136.462 329.781 182.449C331.679 190.903 334.739 198.772 338.733 205.91C341.141 210.24 343.918 214.277 346.978 218.022C366.385 241.893 397.776 253.887 429.167 246.369C473.704 235.691 501.44 189.733 491.071 143.746C480.73 97.7588 436.221 69.1192 391.685 79.8262ZM426.674 235.398C399.816 241.834 372.958 231.829 356.072 211.703C352.956 207.987 350.179 203.95 347.799 199.592C344.485 193.565 341.963 186.954 340.377 179.845C331.396 139.914 355.449 100.011 394.149 90.7379C432.822 81.4644 471.465 106.33 480.446 146.262C489.427 186.223 465.374 226.125 426.674 235.398Z" fill="#112FAA"/>
<path d="M296.52 257.28L170.361 341.853C168.859 342.877 166.82 342.438 165.828 340.859L157.81 328.104C156.819 326.553 157.244 324.447 158.773 323.423L284.933 238.85C286.434 237.826 288.474 238.265 289.466 239.845L297.484 252.6C298.475 254.15 298.05 256.256 296.52 257.28Z" fill="#032C75"/>
<path d="M276.661 309.264L279.862 306.661C286.151 301.6 282.44 289.781 273.119 278.694L250.397 251.693C240.85 240.313 233.2 236.568 225.721 240.137C224.389 240.781 222.774 242.068 221.754 243.238C216.4 249.469 216.626 257.748 226.174 269.128L249.717 297.417C259.038 308.533 270.343 314.325 276.661 309.264Z" fill="#FFA089"/>
<path d="M252.238 326.056L255.61 323.511C261.644 318.947 258.358 307.597 249.858 296.656L227.363 267.724C218.637 256.49 209.288 250.815 202.233 254.179C200.902 254.823 199.57 255.876 198.522 257.075C193.451 262.985 196.227 273.428 204.953 284.662L227.448 313.594C235.976 324.535 246.204 330.62 252.238 326.056Z" fill="#FFA089"/>
<path d="M232.18 335.622L234.361 333.282C238.611 328.689 235.353 319.064 228.072 310.435L212.603 293.35C206.625 286.593 198.239 278.84 192.035 284.048C184.555 290.366 192.46 304.35 196.086 308.182L212.348 327.46C219.601 336.09 227.93 340.215 232.18 335.622Z" fill="#FFA089"/>
<path d="M226.372 245.198C231.189 240.986 235.892 243.736 239.376 248.065L243.768 253.565C245.439 255.642 245.354 258.421 243.598 259.738L237.337 264.447C235.382 265.91 232.294 265.237 230.452 262.926L225.466 256.666C222.491 252.951 224.219 247.071 226.372 245.198Z" fill="#FFB0A1"/>
<path d="M289.92 285.042C290.487 284.574 294.085 281.473 294.085 281.473C299.128 276.88 295.19 267.812 287.427 259.533L270.031 241.044C262.07 232.59 257.084 227.383 250.568 230.454C248.84 231.273 246.091 233.936 244.93 235.632C239.943 242.858 245.496 249.586 253.486 258.041L268.728 276.559C276.463 284.837 284.622 289.313 289.92 285.042Z" fill="#FFA089"/>
<path d="M202.149 260.089L202.489 259.708C205.691 256.373 210.762 256.695 213.765 260.44L217.703 265.354C219.148 267.139 219.063 269.889 217.533 271.498L212.264 276.997C210.564 278.753 207.901 278.577 206.314 276.617L201.838 271.059C199.288 267.841 199.429 262.926 202.149 260.089Z" fill="#FFB0A1"/>
<path d="M195.038 287.821L194.924 287.909C192.148 290.396 191.553 294.52 193.621 297.066L197.191 301.483C198.182 302.712 200.081 302.711 201.384 301.541L205.775 297.621C207.248 296.305 207.56 294.14 206.484 292.765L202.545 287.909C200.789 285.744 197.418 285.686 195.038 287.821Z" fill="#FFB0A1"/>
<path d="M248.102 235.106L248.981 234.374C251.984 231.8 256.8 232.327 259.718 235.545L263.033 239.201C264.421 240.723 264.393 242.975 262.948 244.204L257.48 248.884C255.894 250.23 253.344 249.967 251.786 248.27L247.961 244.057C245.496 241.337 245.553 237.3 248.102 235.106Z" fill="#FFB0A1"/>
<path d="M252.947 301.307C252.919 301.307 252.89 301.278 252.89 301.249L219.969 260.147C219.884 260.059 219.913 259.884 219.998 259.796C220.083 259.708 220.253 259.738 220.338 259.825L253.259 300.927C253.344 301.015 253.315 301.19 253.23 301.278C253.117 301.366 253.032 301.366 252.947 301.307Z" fill="#E87765"/>
<path d="M276.404 283.345C276.376 283.345 276.376 283.316 276.348 283.287L243.398 244.584C243.313 244.496 243.313 244.321 243.427 244.233C243.512 244.145 243.682 244.145 243.767 244.262L276.716 282.965C276.801 283.053 276.801 283.228 276.688 283.316C276.574 283.404 276.489 283.404 276.404 283.345Z" fill="#E87765"/>
<path d="M234.757 321.697C234.729 321.697 234.729 321.668 234.701 321.639L207.559 288.465C207.474 288.377 207.502 288.202 207.587 288.114C207.672 288.026 207.842 288.026 207.927 288.143L235.069 321.317C235.154 321.405 235.125 321.58 235.04 321.668C234.955 321.756 234.842 321.756 234.757 321.697Z" fill="#E87765"/>
<path d="M293.999 174.901C291.704 173.409 291.874 168.085 291.874 168.085C296.577 165.745 301.393 163.258 306.125 160.976C306.918 162.615 307.654 165.043 306.521 167.12C304.595 170.63 296.294 176.393 293.999 174.901Z" fill="#FFB0A1"/>
<path d="M428.601 106.945L389.334 101.591L393.81 143.336L428.601 106.945Z" fill="#E85E56"/>
<path opacity="0.63" d="M376.54 127.722C381.54 124.371 383.535 118.38 380.996 114.342C378.457 110.304 372.346 109.748 367.346 113.099C362.346 116.451 360.351 122.442 362.89 126.48C365.429 130.518 371.54 131.074 376.54 127.722Z" fill="white"/>
<path opacity="0.63" d="M362.73 136.754C364.175 138.012 364.09 140.587 362.532 142.488C360.973 144.39 358.537 144.945 357.092 143.687C355.647 142.429 355.732 139.855 357.29 137.954C358.849 136.023 361.285 135.496 362.73 136.754Z" fill="white"/>
</svg>
