<svg width="1034" height="600" viewBox="0 0 1034 600" fill="none" xmlns="http://www.w3.org/2000/svg">
<path d="M856.211 583.166C943.898 584.722 998.886 497.199 998.809 443.385C998.732 385.263 961.096 333.524 938.962 279.311C919.335 231.281 926.546 176.749 896.276 131.393C859.45 76.2224 776.66 60.0264 706.248 40.5992C615.206 15.4674 519.305 -6.67244 421.052 1.86438C351.836 7.84813 283.93 29.7487 235.498 67.6856C197.4 97.5246 173.183 135.142 145.574 170.526C116.962 207.107 80.0204 231.321 44.3517 262.836C-55.4822 351.116 30.6626 510.044 130.998 575.546C130.998 575.507 855.902 583.126 856.211 583.166Z" fill="#D4E8F0"/>
<path d="M490.886 562.542C490.847 562.542 490.847 562.542 490.808 562.542C490.577 562.502 490.423 562.302 490.461 562.063C497.942 500.989 506.696 457.308 515.063 438.997C515.256 438.598 515.372 438.279 515.41 438.16C515.487 437.92 515.719 437.8 515.912 437.88C516.143 437.96 516.259 438.199 516.182 438.399C516.104 438.598 515.989 438.878 515.796 439.356C507.467 457.587 498.752 501.188 491.271 562.143C491.233 562.382 491.078 562.542 490.886 562.542Z" fill="#BDD1F9"/>
<path d="M522.236 434.689C521.233 436.763 515.218 441.271 514.639 440.952C514.061 440.673 513.984 432.974 515.025 430.899C516.028 428.825 518.457 427.987 520.462 429.064C522.429 430.101 523.238 432.615 522.236 434.689Z" fill="#BDD1F9"/>
<path d="M510.436 442.468C511.438 444.582 511.284 452.441 510.706 452.76C510.127 453.039 503.996 448.372 502.994 446.258C501.991 444.143 502.839 441.55 504.883 440.513C506.965 439.476 509.433 440.354 510.436 442.468Z" fill="#BDD1F9"/>
<path d="M520.423 454.475C518.187 455.034 510.822 453.119 510.668 452.441C510.513 451.802 516.297 446.656 518.534 446.138C520.771 445.579 523.007 447.015 523.508 449.329C524.048 451.643 522.66 453.917 520.423 454.475Z" fill="#BDD1F9"/>
<path d="M497.364 484.354C499.408 487.705 500.565 500.869 499.639 501.468C498.714 502.066 487.685 495.404 485.642 492.053C483.598 488.702 484.562 484.274 487.801 482.12C491.04 480.006 495.32 481.003 497.364 484.354Z" fill="#BDD1F9"/>
<path d="M516.143 502.505C512.518 503.821 499.87 502.026 499.523 500.949C499.176 499.872 507.929 490.258 511.554 488.942C515.179 487.625 519.151 489.58 520.423 493.33C521.657 497.079 519.768 501.188 516.143 502.505Z" fill="#BDD1F9"/>
<path d="M489.883 500.59C493.199 504.021 497.981 519.419 497.056 520.376C496.092 521.374 481.207 516.467 477.891 513.036C474.575 509.605 474.536 504.021 477.852 500.59C481.168 497.159 486.567 497.159 489.883 500.59Z" fill="#BDD1F9"/>
<path d="M516.297 524.006C511.709 525.123 496.554 521.294 496.246 519.937C495.937 518.581 507.775 508.01 512.325 506.893C516.914 505.776 521.503 508.688 522.583 513.395C523.701 518.142 520.886 522.889 516.297 524.006Z" fill="#BDD1F9"/>
<path d="M486.875 520.616C490.192 524.046 494.973 539.444 494.048 540.402C493.084 541.399 478.199 536.492 474.883 533.062C471.567 529.631 471.528 524.046 474.844 520.616C478.161 517.185 483.521 517.185 486.875 520.616Z" fill="#BDD1F9"/>
<path d="M513.289 544.032C508.701 545.149 493.546 541.319 493.238 539.963C492.929 538.607 504.768 528.035 509.318 526.918C513.906 525.802 518.495 528.714 519.575 533.421C520.655 538.128 517.84 542.875 513.289 544.032Z" fill="#BDD1F9"/>
<path d="M477.35 546.745C481.708 548.619 491.772 560.946 491.271 562.223C490.77 563.499 475.191 564.855 470.834 563.02C466.476 561.145 464.433 555.999 466.245 551.532C468.019 547.024 472.993 544.87 477.35 546.745Z" fill="#BDD1F9"/>
<path d="M510.937 563.699C506.542 565.414 491.002 563.539 490.539 562.262C490.076 560.946 500.526 548.939 504.922 547.223C509.318 545.508 514.215 547.822 515.873 552.369C517.531 556.917 515.333 561.983 510.937 563.699Z" fill="#BDD1F9"/>
<path d="M506.426 455.512C507.467 457.667 507.313 465.645 506.696 465.964C506.117 466.283 499.871 461.496 498.868 459.342C497.827 457.188 498.714 454.555 500.796 453.518C502.878 452.481 505.423 453.358 506.426 455.512Z" fill="#BDD1F9"/>
<path d="M516.297 467.879C514.022 468.437 506.542 466.483 506.387 465.804C506.233 465.126 512.094 459.94 514.369 459.382C516.644 458.823 518.881 460.299 519.421 462.613C519.961 464.927 518.572 467.32 516.297 467.879Z" fill="#BDD1F9"/>
<path d="M501.451 467.839C503.148 470.751 503.842 482.12 503.032 482.599C502.223 483.117 492.891 477.134 491.194 474.182C489.498 471.27 490.423 467.44 493.238 465.685C496.092 463.929 499.755 464.887 501.451 467.839Z" fill="#BDD1F9"/>
<path d="M516.953 485.152C513.752 485.95 503.071 483.157 502.878 482.2C502.647 481.242 511.015 473.863 514.215 473.105C517.416 472.307 520.655 474.381 521.387 477.732C522.159 481.043 520.153 484.394 516.953 485.152Z" fill="#BDD1F9"/>
<path d="M195.626 548.021C195.703 548.021 195.741 548.021 195.818 548.021C196.358 547.941 196.744 547.463 196.667 546.904C179.006 403.015 158.414 300.015 138.71 256.892C138.286 255.934 137.939 255.256 137.862 254.897C137.707 254.379 137.129 254.099 136.628 254.259C136.126 254.418 135.856 255.017 136.011 255.535C136.165 256.014 136.473 256.652 136.975 257.769C156.602 300.693 177.116 403.494 194.739 547.183C194.777 547.622 195.163 547.981 195.626 548.021Z" fill="#BDD1F9"/>
<path d="M121.743 246.68C124.134 251.546 138.324 262.197 139.635 261.479C140.985 260.761 141.139 242.65 138.748 237.784C136.358 232.917 130.651 230.962 125.946 233.436C121.242 235.869 119.352 241.813 121.743 246.68Z" fill="#BDD1F9"/>
<path d="M149.507 265.03C147.116 270.016 147.463 288.566 148.851 289.284C150.24 290.002 164.661 278.952 167.014 273.965C169.404 268.979 167.399 262.915 162.579 260.442C157.72 257.969 151.898 260.043 149.507 265.03Z" fill="#BDD1F9"/>
<path d="M125.946 293.273C131.19 294.55 148.581 290.042 148.928 288.486C149.275 286.93 135.663 274.883 130.381 273.606C125.136 272.33 119.892 275.721 118.658 281.146C117.463 286.571 120.702 291.996 125.946 293.273Z" fill="#BDD1F9"/>
<path d="M180.278 363.722C175.42 371.62 172.759 402.656 174.918 404.052C177.116 405.488 203.068 389.771 207.926 381.872C212.785 373.974 210.51 363.482 202.875 358.456C195.278 353.47 185.137 355.823 180.278 363.722Z" fill="#BDD1F9"/>
<path d="M136.049 406.446C144.571 409.557 174.379 405.289 175.266 402.736C176.114 400.222 155.484 377.564 146.962 374.452C138.44 371.341 129.07 375.968 126.062 384.824C123.016 393.68 127.527 403.334 136.049 406.446Z" fill="#BDD1F9"/>
<path d="M197.939 401.978C190.073 410.076 178.813 446.337 181.05 448.651C183.286 450.965 218.376 439.476 226.243 431.378C234.109 423.28 234.109 410.156 226.32 402.058C218.492 393.92 205.806 393.92 197.939 401.978Z" fill="#BDD1F9"/>
<path d="M135.663 457.188C146.422 459.861 182.206 450.765 182.939 447.574C183.672 444.383 155.792 419.49 145.034 416.817C134.275 414.145 123.44 421.006 120.856 432.136C118.234 443.305 124.905 454.515 135.663 457.188Z" fill="#BDD1F9"/>
<path d="M205.073 449.17C197.207 457.268 185.947 493.529 188.183 495.843C190.42 498.157 225.51 486.668 233.377 478.57C241.243 470.472 241.243 457.347 233.454 449.249C225.626 441.112 212.939 441.072 205.073 449.17Z" fill="#BDD1F9"/>
<path d="M142.797 504.34C153.556 507.013 189.34 497.917 190.073 494.726C190.805 491.535 162.926 466.642 152.167 463.969C141.409 461.297 130.573 468.158 127.99 479.288C125.406 490.458 132.039 501.667 142.797 504.34Z" fill="#BDD1F9"/>
<path d="M227.477 510.762C217.258 515.15 193.466 544.231 194.662 547.263C195.857 550.295 232.567 553.486 242.785 549.098C253.004 544.71 257.863 532.583 253.66 522.012C249.456 511.401 237.734 506.374 227.477 510.762Z" fill="#BDD1F9"/>
<path d="M148.35 550.734C158.723 554.763 195.279 550.375 196.397 547.303C197.515 544.231 172.836 515.948 162.502 511.879C152.129 507.85 140.561 513.236 136.666 523.966C132.771 534.737 137.977 546.705 148.35 550.734Z" fill="#BDD1F9"/>
<path d="M158.954 295.746C156.525 300.812 156.872 319.681 158.299 320.399C159.687 321.117 174.34 309.908 176.769 304.842C179.199 299.775 177.155 293.592 172.258 291.119C167.322 288.566 161.384 290.64 158.954 295.746Z" fill="#BDD1F9"/>
<path d="M135.663 324.907C140.985 326.184 158.684 321.596 159.031 320.04C159.378 318.485 145.535 306.238 140.214 304.921C134.892 303.645 129.532 307.036 128.298 312.581C127.026 318.086 130.342 323.631 135.663 324.907Z" fill="#BDD1F9"/>
<path d="M170.715 324.747C166.705 331.649 165.085 358.376 166.975 359.573C168.864 360.77 190.883 346.648 194.893 339.747C198.903 332.845 196.705 323.87 190.034 319.761C183.363 315.612 174.726 317.846 170.715 324.747Z" fill="#BDD1F9"/>
<path d="M134.16 365.636C141.717 367.472 166.821 360.969 167.36 358.735C167.862 356.501 148.196 339.109 140.599 337.274C133.003 335.439 125.445 340.305 123.671 348.124C121.897 355.943 126.602 363.801 134.16 365.636Z" fill="#BDD1F9"/>
<path d="M517.261 600C774.012 600 982.15 584.997 982.15 566.491C982.15 547.984 774.012 532.982 517.261 532.982C260.51 532.982 52.3726 547.984 52.3726 566.491C52.3726 584.997 260.51 600 517.261 600Z" fill="#BDD1F9"/>
<path d="M226.629 189.355C220.536 187.759 213.325 183.89 213.865 177.428C214.328 171.643 220.999 168.691 226.629 168.811C232.22 168.931 237.888 170.845 243.364 169.489C250.498 167.694 255.202 160.952 259.56 154.889C264.187 148.466 269.315 142.123 276.064 138.134C282.812 134.145 291.488 132.869 298.313 136.738C303.519 139.69 307.144 145.275 312.658 147.589C320.1 150.7 328.352 146.91 336.18 144.916C343.969 142.921 354.458 144.278 356.81 152.216C358.777 158.878 353.918 167.335 358.468 172.441C381.72 198.69 336.141 189.674 319.522 190.831C288.557 193.025 257.092 197.333 226.629 189.355Z" fill="white"/>
<path d="M850.466 185.845C845.144 188.916 838.589 190.033 832.265 191.11C827.599 191.868 822.933 192.666 818.267 193.424C807.779 195.179 796.673 196.895 786.57 193.983C779.205 191.868 772.958 187.48 765.439 185.885C757.92 184.289 749.976 185.605 742.264 185.286C740.066 185.206 737.791 184.927 735.786 184.169C731.506 182.534 728.845 178.345 729.578 174.436C730.349 170.566 734.475 167.295 739.179 166.896C745.387 166.338 752.907 169.888 757.264 166.138C758.768 164.822 759.308 162.987 760.388 161.391C762.508 158.2 766.557 156.245 770.645 154.969C783.524 150.86 794.283 153.772 807.2 155.288C815.954 156.325 823.974 154.649 832.651 154.051C843.717 153.293 854.977 154.61 858.91 164.582C861.802 172.122 858.216 181.337 850.466 185.845Z" fill="white"/>
<path d="M423.79 559.35C423.752 559.35 423.713 559.35 423.675 559.35C423.366 559.31 423.173 559.031 423.212 558.712C433.276 476.735 444.999 418.094 456.22 393.521C456.451 392.962 456.644 392.563 456.721 392.404C456.798 392.085 457.145 391.925 457.415 392.045C457.724 392.125 457.878 392.484 457.762 392.763C457.685 393.042 457.492 393.401 457.223 394.039C446.04 418.493 434.356 477.054 424.33 558.872C424.253 559.151 424.022 559.35 423.79 559.35Z" fill="#2D42BA"/>
<path d="M465.86 387.736C464.511 390.489 456.413 396.553 455.642 396.154C454.87 395.755 454.793 385.423 456.143 382.67C457.493 379.878 460.77 378.801 463.431 380.197C466.13 381.593 467.21 384.944 465.86 387.736Z" fill="#2D42BA"/>
<path d="M450.05 398.188C451.4 401.02 451.207 411.592 450.436 411.991C449.665 412.389 441.451 406.126 440.063 403.254C438.713 400.422 439.832 396.951 442.608 395.555C445.346 394.159 448.701 395.356 450.05 398.188Z" fill="#2D42BA"/>
<path d="M463.431 414.264C460.423 414.982 450.551 412.429 450.32 411.552C450.127 410.674 457.878 403.813 460.886 403.095C463.893 402.377 466.863 404.291 467.557 407.363C468.289 410.475 466.438 413.546 463.431 414.264Z" fill="#2D42BA"/>
<path d="M432.505 454.395C435.281 458.903 436.785 476.575 435.551 477.373C434.317 478.171 419.51 469.235 416.733 464.727C413.957 460.22 415.268 454.276 419.626 451.404C423.983 448.571 429.728 449.888 432.505 454.395Z" fill="#2D42BA"/>
<path d="M457.685 478.729C452.826 480.485 435.86 478.051 435.358 476.615C434.857 475.179 446.618 462.294 451.477 460.499C456.335 458.744 461.657 461.376 463.392 466.403C465.127 471.469 462.544 476.974 457.685 478.729Z" fill="#2D42BA"/>
<path d="M422.44 476.176C426.913 480.764 433.315 501.428 432.042 502.744C430.77 504.061 410.757 497.518 406.322 492.891C401.849 488.303 401.849 480.804 406.283 476.176C410.757 471.589 417.967 471.589 422.44 476.176Z" fill="#2D42BA"/>
<path d="M457.916 507.611C451.785 509.127 431.425 503.941 431.001 502.146C430.577 500.351 446.464 486.149 452.595 484.633C458.726 483.117 464.896 487.027 466.361 493.37C467.827 499.712 464.048 506.095 457.916 507.611Z" fill="#2D42BA"/>
<path d="M418.392 503.063C422.865 507.651 429.266 528.315 427.993 529.631C426.721 530.947 406.708 524.405 402.273 519.778C397.8 515.19 397.8 507.691 402.235 503.063C406.669 498.476 413.919 498.436 418.392 503.063Z" fill="#2D42BA"/>
<path d="M453.868 534.498C447.736 536.014 427.376 530.828 426.952 529.033C426.528 527.238 442.415 513.036 448.546 511.52C454.677 510.004 460.847 513.914 462.312 520.256C463.778 526.599 459.999 532.982 453.868 534.498Z" fill="#2D42BA"/>
<path d="M405.628 538.128C411.451 540.641 424.986 557.196 424.292 558.911C423.597 560.627 402.698 562.462 396.875 559.949C391.052 557.435 388.276 550.534 390.705 544.511C393.096 538.487 399.805 535.655 405.628 538.128Z" fill="#2D42BA"/>
<path d="M450.705 560.906C444.806 563.22 423.983 560.707 423.327 558.951C422.71 557.196 436.747 541.08 442.646 538.806C448.546 536.492 455.14 539.604 457.377 545.707C459.574 551.771 456.605 558.592 450.705 560.906Z" fill="#2D42BA"/>
<path d="M444.652 415.661C446.04 418.573 445.847 429.304 445.037 429.702C444.227 430.101 435.898 423.719 434.51 420.847C433.122 417.934 434.279 414.464 437.094 413.028C439.909 411.592 443.263 412.788 444.652 415.661Z" fill="#2D42BA"/>
<path d="M457.916 432.295C454.87 433.013 444.806 430.42 444.613 429.503C444.42 428.625 452.286 421.644 455.333 420.886C458.379 420.168 461.425 422.083 462.119 425.235C462.852 428.426 460.963 431.537 457.916 432.295Z" fill="#2D42BA"/>
<path d="M437.942 432.216C440.217 436.165 441.142 451.364 440.063 452.042C438.983 452.72 426.451 444.702 424.176 440.752C421.901 436.803 423.135 431.737 426.952 429.343C430.77 426.99 435.667 428.266 437.942 432.216Z" fill="#2D42BA"/>
<path d="M458.765 455.472C454.446 456.51 440.14 452.8 439.87 451.523C439.562 450.247 450.783 440.354 455.102 439.276C459.42 438.239 463.739 440.992 464.742 445.46C465.783 449.967 463.084 454.435 458.765 455.472Z" fill="#2D42BA"/>
<path d="M436.014 93.3758C432.89 95.171 429.073 95.8491 425.332 96.4475C422.595 96.8863 419.857 97.365 417.119 97.8038C410.988 98.841 404.471 99.8383 398.533 98.1229C394.214 96.8863 390.589 94.3332 386.155 93.3758C381.759 92.4184 377.093 93.2163 372.581 93.0168C371.27 92.9769 369.959 92.8174 368.802 92.3785C366.296 91.4211 364.715 88.9479 365.177 86.674C365.64 84.4002 368.031 82.4854 370.807 82.2461C374.471 81.9269 378.867 84.0013 381.412 81.8073C382.298 81.0493 382.607 79.9722 383.224 79.0148C384.458 77.1399 386.849 76.023 389.239 75.265C396.797 72.8715 403.083 74.547 410.641 75.4645C415.769 76.0629 420.474 75.1055 425.564 74.7464C432.042 74.3076 438.636 75.0656 440.95 80.9296C442.685 85.3177 440.602 90.743 436.014 93.3758Z" fill="white"/>
<path d="M521.875 360.165H574.935V215.957H521.875V360.165Z" fill="#D1464D"/>
<path d="M656.485 373.724H709.776V267.413H656.485V373.724Z" fill="#D1464D"/>
<path d="M588.225 389.596H641.516V238.806H588.225V389.596Z" fill="#D1464D"/>
<path d="M1033.4 454.675C987.703 423.878 899.669 363.682 879.772 344.135C856.905 321.676 817.457 285.374 793.819 281.704C771.531 278.274 737.289 288.486 694.834 297.342C644.358 307.833 612.661 319.402 605.45 324.668C595.462 331.928 601.594 345.651 617.288 351.355C632.018 356.741 695.296 334.481 706.672 351.674C710.374 357.299 636.183 377.644 623.959 377.604C611.735 377.564 540.282 326.263 515.294 316.171C490.307 306.078 476.888 319.881 477.543 322.873C479.047 330.053 586.555 429.463 618.869 449.688C651.144 469.913 785.799 418.014 805.272 416.02C819.617 414.544 939.579 519.658 972.742 549.178C1008.45 543.473 987.742 481.282 1019.75 462.932C1024.34 460.339 1028.89 457.547 1033.4 454.675Z" fill="#FFA089"/>
<path d="M836.044 510.284C830.375 511.44 811.943 505.975 811.596 504.34C811.288 502.664 826.288 490.258 831.918 489.101C837.586 487.944 843.1 491.734 844.218 497.598C845.375 503.382 841.673 509.087 836.044 510.284Z" fill="#89B4FD"/>
<path d="M786.955 510.244C788.999 515.829 786.763 535.575 785.22 536.173C783.678 536.772 769.41 523.448 767.405 517.863C765.361 512.278 768.099 506.055 773.498 503.941C778.896 501.827 784.912 504.659 786.955 510.244Z" fill="#89B4FD"/>
<path d="M805.272 553.327C799.527 554.045 781.557 547.144 781.326 545.468C781.133 543.793 796.982 532.583 802.727 531.865C808.473 531.147 813.678 535.376 814.373 541.279C815.105 547.183 811.018 552.569 805.272 553.327Z" fill="#89B4FD"/>
<path d="M774.423 564.058C774.655 564.097 774.886 564.177 775.156 564.217C775.272 563.778 775.426 563.26 775.58 562.701C776.66 558.911 778.626 552.808 781.557 545.787C781.788 545.229 782.02 544.67 782.29 544.112C788.19 530.588 797.714 514.273 811.943 504.739C812.02 504.659 812.136 504.619 812.213 504.539L811.827 503.901C811.789 503.941 811.712 503.981 811.673 504.021C800.298 511.6 791.891 523.488 785.914 534.857C785.683 535.296 785.452 535.734 785.22 536.173C779.706 546.944 776.429 557.116 774.848 562.542C774.693 563.1 774.539 563.579 774.423 564.058Z" fill="#89B4FD"/>
<path d="M768.524 562.861C768.485 562.342 768.485 561.784 768.447 561.265C767.907 547.582 768.717 534.538 770.298 522.53C771.146 515.988 772.264 509.765 773.46 503.941C777.046 486.827 781.75 472.985 785.221 464.169C787.11 459.382 788.575 456.071 789.308 454.515C789.462 454.156 789.578 453.917 789.694 453.757C789.732 453.677 789.771 453.637 789.771 453.598C789.771 453.558 789.809 453.558 789.809 453.558L789.925 453.637L790.079 453.717L790.349 453.877L790.426 453.917L790.465 453.957C790.465 453.957 790.426 453.996 790.426 454.036C790.388 454.116 790.349 454.196 790.272 454.316C790.195 454.435 790.156 454.595 790.079 454.754C789.347 456.27 787.804 459.741 785.838 464.807C782.444 473.503 777.894 487.027 774.347 503.662C773.035 509.805 771.879 516.387 770.992 523.328C769.449 535.136 768.717 547.981 769.257 561.385C769.295 561.903 769.295 562.422 769.334 562.98L768.524 562.861Z" fill="#89B4FD"/>
<path d="M798.524 450.526C796.982 452.082 790.156 454.316 789.732 453.837C789.308 453.398 791.506 446.337 793.048 444.782C794.591 443.226 797.059 443.226 798.563 444.821C800.066 446.417 800.028 448.97 798.524 450.526Z" fill="white"/>
<path d="M788.691 444.024C789.848 445.898 790.542 453.278 790.041 453.637C789.539 453.996 783.331 450.287 782.136 448.412C780.979 446.537 781.48 444.024 783.292 442.827C785.105 441.59 787.534 442.149 788.691 444.024Z" fill="white"/>
<path d="M780.516 451.204C782.637 450.765 789.501 452.8 789.655 453.438C789.771 454.076 784.179 458.704 782.059 459.143C779.938 459.581 777.894 458.145 777.47 455.991C777.007 453.797 778.395 451.643 780.516 451.204Z" fill="white"/>
<path d="M784.604 461.217C784.951 459.023 789.231 453.079 789.848 453.199C790.465 453.318 792.663 460.379 792.316 462.573C791.969 464.767 789.964 466.243 787.843 465.884C785.683 465.525 784.218 463.451 784.604 461.217Z" fill="white"/>
<path d="M795.208 461.496C793.357 460.339 789.655 453.996 790.002 453.438C790.311 452.88 797.483 453.438 799.295 454.635C801.146 455.792 801.686 458.305 800.568 460.18C799.45 462.094 797.059 462.693 795.208 461.496Z" fill="white"/>
<path d="M791.313 453.318C791.236 452.6 790.619 452.042 789.925 452.122C789.231 452.201 788.691 452.84 788.768 453.558C788.845 454.276 789.462 454.834 790.156 454.754C790.85 454.715 791.352 454.076 791.313 453.318Z" fill="#89B4FD"/>
<path opacity="0.26" d="M558.599 333.364C617.846 333.364 665.875 283.677 665.875 222.385C665.875 161.094 617.846 111.407 558.599 111.407C499.352 111.407 451.323 161.094 451.323 222.385C451.323 283.677 499.352 333.364 558.599 333.364Z" fill="white"/>
<path d="M547.069 168.253L604.64 220.032L671.312 183.172L729.423 251.187L675.361 156.963L606.067 198.052L558.599 156.165L547.069 168.253Z" fill="#E85E56"/>
<path d="M707.289 521.613C711.222 522.411 724.063 518.621 724.256 517.464C724.487 516.307 714.076 507.691 710.143 506.853C706.209 506.055 702.392 508.688 701.582 512.757C700.811 516.826 703.356 520.815 707.289 521.613Z" fill="#89B4FD"/>
<path d="M741.377 521.613C739.95 525.482 741.531 539.205 742.572 539.604C743.652 540.003 753.562 530.788 754.95 526.879C756.377 523.009 754.449 518.661 750.708 517.185C747.007 515.749 742.803 517.743 741.377 521.613Z" fill="#89B4FD"/>
<path d="M728.652 551.532C732.624 552.05 745.156 547.223 745.272 546.066C745.426 544.91 734.398 537.131 730.387 536.612C726.415 536.094 722.791 539.045 722.289 543.154C721.827 547.263 724.68 551.013 728.652 551.532Z" fill="#89B4FD"/>
<path d="M750.092 558.991C749.938 559.031 749.745 559.071 749.591 559.111C749.514 558.792 749.398 558.433 749.282 558.074C748.511 555.441 747.161 551.173 745.118 546.306C744.963 545.907 744.771 545.548 744.616 545.149C740.529 535.734 733.896 524.405 724.025 517.783C723.948 517.743 723.909 517.703 723.832 517.664L724.102 517.225C724.14 517.265 724.179 517.265 724.218 517.304C732.123 522.57 737.984 530.828 742.11 538.726C742.264 539.045 742.418 539.325 742.573 539.644C746.39 547.143 748.704 554.204 749.784 557.954C749.899 558.313 750.015 558.672 750.092 558.991Z" fill="#89B4FD"/>
<path d="M754.218 558.154C754.256 557.795 754.256 557.396 754.256 557.037C754.642 547.542 754.064 538.447 752.984 530.11C752.367 525.562 751.634 521.254 750.786 517.185C748.279 505.297 745.002 495.683 742.611 489.54C741.3 486.189 740.259 483.915 739.758 482.838C739.642 482.599 739.565 482.399 739.488 482.28C739.449 482.24 739.449 482.2 739.449 482.16V482.12L739.372 482.16L739.295 482.2L739.102 482.32L739.064 482.359H739.025C739.025 482.359 739.025 482.399 739.064 482.439C739.102 482.479 739.102 482.559 739.179 482.639C739.218 482.718 739.256 482.838 739.333 482.958C739.835 483.995 740.914 486.428 742.303 489.939C744.655 496.002 747.817 505.377 750.285 516.945C751.172 521.214 751.981 525.801 752.598 530.588C753.64 538.806 754.179 547.702 753.794 557.037C753.794 557.396 753.755 557.755 753.755 558.154H754.218Z" fill="#89B4FD"/>
<path d="M733.356 480.125C734.436 481.203 739.179 482.758 739.488 482.439C739.796 482.12 738.254 477.213 737.174 476.136C736.094 475.059 734.398 475.059 733.356 476.176C732.277 477.253 732.315 479.009 733.356 480.125Z" fill="white"/>
<path d="M740.182 475.578C739.372 476.894 738.909 482 739.256 482.24C739.603 482.479 743.922 479.926 744.732 478.61C745.542 477.293 745.195 475.578 743.922 474.74C742.688 473.902 740.991 474.261 740.182 475.578Z" fill="white"/>
<path d="M745.889 480.604C744.423 480.285 739.642 481.721 739.565 482.16C739.487 482.599 743.382 485.79 744.847 486.109C746.313 486.428 747.739 485.431 748.048 483.915C748.279 482.359 747.354 480.883 745.889 480.604Z" fill="white"/>
<path d="M743.035 487.545C742.804 486.029 739.796 481.881 739.372 481.961C738.948 482.04 737.405 486.947 737.675 488.463C737.906 489.979 739.333 491.016 740.799 490.777C742.302 490.497 743.266 489.061 743.035 487.545Z" fill="white"/>
<path d="M735.631 487.745C736.904 486.947 739.487 482.519 739.256 482.16C739.025 481.801 734.05 482.16 732.778 482.998C731.505 483.796 731.12 485.551 731.891 486.867C732.701 488.144 734.359 488.543 735.631 487.745Z" fill="white"/>
<path d="M738.369 482.04C738.408 481.522 738.832 481.163 739.333 481.203C739.834 481.242 740.182 481.681 740.143 482.2C740.104 482.718 739.68 483.077 739.179 483.038C738.678 482.998 738.331 482.559 738.369 482.04Z" fill="#89B4FD"/>
<path d="M163.958 424.437C165.925 423.838 167.197 423.519 167.66 423.559C192.879 424.477 192.03 419.45 219.177 432.615C222.609 434.29 226.388 435.567 229.974 437.481C262.249 454.754 281.376 454.475 287.044 454.555C288.895 454.595 294.332 453.438 294.332 453.438C297.455 454.036 310.296 438.917 315.078 427.03C315.116 426.95 315.116 426.87 315.155 426.79C316.736 422.841 317.815 419.929 318.008 419.211C318.201 418.453 318.317 417.735 318.394 417.017C318.702 414.304 318.278 411.831 317.43 409.597C314.731 402.536 307.944 398.228 307.944 398.228C307.944 398.228 308.445 397.63 309.332 396.473C309.448 396.313 309.602 396.154 309.718 395.994C311.453 393.8 314.422 390.09 318.124 385.383C318.278 385.183 318.432 384.984 318.587 384.784C319.474 383.667 320.399 382.511 321.363 381.274C321.44 381.194 321.517 381.114 321.556 381.035C323.484 378.601 325.528 375.968 327.687 373.216C328.227 372.498 328.805 371.78 329.384 371.062C329.461 370.942 329.731 370.743 330.116 370.503C331.929 369.346 336.826 366.953 343.458 363.801C347.006 362.126 388.073 371.74 388.112 371.7C323.137 317.926 331.967 276.718 323.908 272.729C314.114 267.902 304.859 264.551 298.188 264.87C281.607 265.628 242.66 279.391 208.573 291.598C183.431 300.613 160.873 308.751 151.927 310.147C145.295 311.184 125.706 314.336 94.1243 319.242C75.5766 322.155 52.9029 325.665 26.2959 329.734C18.6994 330.891 10.8716 332.088 2.92807 333.284C-3.01029 362.286 0.807225 393.481 11.4114 424.038C21.8614 437.003 32.7356 450.287 44.0724 463.81C48.9697 462.334 53.7898 460.858 58.4556 459.462C83.0188 452.082 106.001 444.383 124.549 438C143.251 431.537 157.441 426.391 163.958 424.437Z" fill="#FF9280"/>
<path d="M215.871 353.789C213.249 352.193 211.899 350.757 211.783 350.637L212.593 349.839C212.632 349.879 218.146 355.703 229.174 356.98C239.393 358.177 256.591 355.544 280.499 336.516L281.193 337.433C267.812 348.124 247.876 360.371 228.981 358.137C223.004 357.419 218.686 355.504 215.871 353.789Z" fill="#E87765"/>
<path d="M124.438 438C124.399 438 124.438 438 124.438 438C124.399 437.162 124.322 436.404 124.207 435.606C122.587 424.517 116.726 411.352 106.314 397.271C85.1831 368.668 96.0958 346.808 94.0906 319.282C93.7436 315.014 93.1652 310.506 92.0083 305.959C91.3142 303.007 90.4659 300.094 89.3476 297.023C87.034 290.84 57.9977 293.552 13.9613 301.57C-15.9619 360.171 5.63213 434.17 48.2418 494.407C66.3268 485.79 84.7975 476.934 103.692 467.799C117.381 461.137 125.942 453.717 124.438 438Z" fill="#2F61C7"/>
<path d="M208.505 291.598C208.505 291.598 291.064 244.964 358.468 243.648C367.684 243.488 381.913 236.826 397.222 229.167C403.623 225.976 410.178 222.585 416.618 219.473C417.505 219.035 418.392 218.596 419.279 218.197C430.384 212.891 442.647 251.467 391.091 271.093C378.944 275.721 336.759 289.244 333.095 324.069C330.782 346.249 231.063 316.57 208.505 291.598Z" fill="#FF9280"/>
<path d="M484.64 288.725L472.223 297.302L235.383 461.576C234.958 461.895 234.342 461.775 234.072 461.297L224.239 446.138C223.93 445.699 224.046 445.061 224.508 444.782L461.04 280.747L473.38 272.17C476.619 278.154 480.398 283.659 484.64 288.725Z" fill="#112FAA"/>
<path d="M533.111 108.854C472.493 123.414 434.742 186.084 448.855 248.794C451.439 260.322 455.604 271.053 461.041 280.787C464.318 286.691 468.097 292.196 472.262 297.302C498.676 329.854 541.401 346.209 584.127 335.957C644.744 321.397 682.495 258.727 668.382 196.017C654.307 133.307 593.728 94.2535 533.111 108.854ZM580.733 320.998C544.178 329.774 507.622 316.131 484.64 288.685C480.398 283.619 476.619 278.114 473.38 272.17C468.868 263.953 465.437 254.937 463.277 245.243C451.053 190.791 483.791 136.379 536.465 123.733C589.101 111.088 641.698 144.996 653.922 199.448C666.145 253.94 633.407 308.352 580.733 320.998Z" fill="#112FAA"/>
<path d="M403.585 350.837L231.873 466.163C229.83 467.56 227.053 466.961 225.704 464.807L214.791 447.414C213.441 445.3 214.02 442.428 216.102 441.032L387.813 325.705C389.857 324.309 392.633 324.907 393.983 327.061L404.896 344.454C406.245 346.568 405.667 349.44 403.585 350.837Z" fill="#032C75"/>
<path d="M376.553 421.724L380.911 418.174C389.471 411.272 384.42 395.156 371.733 380.037L340.807 343.217C327.812 327.7 317.401 322.593 307.221 327.46C305.408 328.338 303.211 330.093 301.822 331.689C294.534 340.186 294.843 351.475 307.838 366.993L339.882 405.568C352.568 420.727 367.954 428.625 376.553 421.724Z" fill="#FFA089"/>
<path d="M343.314 444.622L347.903 441.151C356.116 434.928 351.643 419.45 340.075 404.531L309.458 365.078C297.581 349.76 284.856 342.021 275.254 346.608C273.442 347.486 271.629 348.922 270.203 350.557C263.3 358.616 267.079 372.857 278.956 388.175L309.573 427.628C321.18 442.548 335.101 450.845 343.314 444.622Z" fill="#FFA089"/>
<path d="M316.013 457.667L318.982 454.475C324.766 448.212 320.332 435.088 310.422 423.32L289.367 400.023C281.231 390.808 269.817 380.237 261.372 387.338C251.192 395.954 261.951 415.022 266.887 420.248L289.02 446.537C298.892 458.305 310.229 463.929 316.013 457.667Z" fill="#FFA089"/>
<path d="M308.108 334.361C314.663 328.617 321.064 332.367 325.807 338.271L331.784 345.77C334.059 348.603 333.943 352.392 331.553 354.188L323.031 360.61C320.37 362.605 316.167 361.687 313.661 358.536L306.874 349.999C302.825 344.933 305.177 336.914 308.108 334.361Z" fill="#FFB0A1"/>
<path d="M394.6 388.694C395.371 388.056 400.268 383.827 400.268 383.827C407.132 377.564 401.772 365.198 391.207 353.908L367.53 328.697C356.695 317.168 349.908 310.067 341.039 314.256C338.687 315.373 334.946 319.003 333.365 321.317C326.579 331.17 334.137 340.345 345.011 351.874L365.756 377.125C376.284 388.415 387.389 394.518 394.6 388.694Z" fill="#FFA089"/>
<path d="M275.139 354.666L275.601 354.148C279.959 349.6 286.861 350.039 290.949 355.145L296.308 361.847C298.275 364.28 298.159 368.03 296.077 370.224L288.905 377.724C286.591 380.117 282.966 379.878 280.807 377.205L274.714 369.626C271.244 365.238 271.437 358.536 275.139 354.666Z" fill="#FFB0A1"/>
<path d="M265.46 392.484L265.305 392.603C261.527 395.994 260.717 401.619 263.532 405.089L268.39 411.113C269.74 412.788 272.324 412.788 274.097 411.193L280.074 405.847C282.079 404.052 282.504 401.1 281.038 399.225L275.678 392.603C273.288 389.651 268.699 389.571 265.46 392.484Z" fill="#FFB0A1"/>
<path d="M337.684 320.599L338.88 319.601C342.967 316.091 349.522 316.809 353.494 321.197L358.006 326.184C359.895 328.258 359.857 331.33 357.89 333.005L350.448 339.388C348.288 341.223 344.818 340.864 342.697 338.55L337.491 332.806C334.137 329.096 334.214 323.591 337.684 320.599Z" fill="#FFB0A1"/>
<path d="M344.278 410.874C344.239 410.874 344.201 410.834 344.201 410.794L299.393 354.746C299.277 354.626 299.316 354.387 299.432 354.267C299.547 354.148 299.779 354.188 299.894 354.307L344.702 410.355C344.818 410.475 344.779 410.714 344.663 410.834C344.509 410.953 344.394 410.953 344.278 410.874Z" fill="#E87765"/>
<path d="M376.206 386.38C376.167 386.38 376.167 386.34 376.129 386.3L331.283 333.524C331.167 333.404 331.167 333.165 331.321 333.045C331.437 332.925 331.668 332.925 331.784 333.085L376.63 385.862C376.746 385.981 376.746 386.221 376.592 386.34C376.437 386.46 376.322 386.46 376.206 386.38Z" fill="#E87765"/>
<path d="M319.522 438.678C319.483 438.678 319.483 438.638 319.445 438.598L282.503 393.361C282.388 393.241 282.426 393.002 282.542 392.882C282.658 392.763 282.889 392.763 283.005 392.922L319.946 438.16C320.062 438.279 320.023 438.519 319.907 438.638C319.792 438.758 319.637 438.758 319.522 438.678Z" fill="#E87765"/>
<path d="M400.152 238.502C397.029 236.467 397.26 229.207 397.26 229.207C403.661 226.016 410.217 222.625 416.656 219.513C417.736 221.747 418.739 225.058 417.196 227.891C414.574 232.678 403.276 240.536 400.152 238.502Z" fill="#FFB0A1"/>
<path d="M583.355 145.833L529.91 138.533L536.002 195.459L583.355 145.833Z" fill="#E85E56"/>
<path opacity="0.63" d="M512.495 174.167C519.301 169.596 522.016 161.428 518.56 155.921C515.105 150.415 506.787 149.656 499.982 154.227C493.176 158.797 490.461 166.966 493.917 172.473C497.372 177.979 505.69 178.738 512.495 174.167Z" fill="white"/>
<path opacity="0.63" d="M493.701 186.483C495.667 188.198 495.552 191.709 493.431 194.302C491.31 196.895 487.994 197.653 486.027 195.937C484.061 194.222 484.176 190.711 486.297 188.119C488.418 185.486 491.734 184.768 493.701 186.483Z" fill="white"/>
</svg>
