<svg width="48" height="48" viewBox="0 0 48 48" fill="none" xmlns="http://www.w3.org/2000/svg">
<g clip-path="url(#clip0_671_19309)">
<mask id="mask0_671_19309" style="mask-type:luminance" maskUnits="userSpaceOnUse" x="0" y="0" width="48" height="48">
<path d="M48 0H0V48H48V0Z" fill="white"/>
</mask>
<g mask="url(#mask0_671_19309)">
<path d="M35.3408 3.51C35.2112 3.37572 35.0558 3.26892 34.884 3.19598C34.7122 3.12304 34.5275 3.08545 34.3408 3.08545C34.1542 3.08545 33.9694 3.12304 33.7976 3.19598C33.6258 3.26892 33.4705 3.37572 33.3408 3.51L29.1908 7.7C28.9254 7.96688 28.5671 8.12093 28.1908 8.13H19.5908C19.2131 8.11827 18.8547 7.96055 18.5908 7.69L14.4608 3.6C14.3293 3.46925 14.1733 3.36573 14.0017 3.29538C13.8301 3.22502 13.6463 3.18921 13.4608 3.19C13.2754 3.18921 13.0916 3.22502 12.92 3.29538C12.7484 3.36573 12.5924 3.46925 12.4608 3.6L0.310829 15.85C0.17779 15.9803 0.0720979 16.1359 -5.58794e-05 16.3076C-0.0722097 16.4794 -0.109375 16.6637 -0.109375 16.85C-0.109375 17.0363 -0.0722097 17.2206 -5.58794e-05 17.3923C0.0720979 17.5641 0.17779 17.7196 0.310829 17.85L3.80083 21.32C4.45137 21.9885 4.81089 22.8873 4.80083 23.82C4.80935 25.0215 5.1559 26.1963 5.80083 27.21C5.12008 28.0369 4.77077 29.0871 4.82066 30.157C4.87055 31.2269 5.31609 32.2401 6.07083 33C6.82055 33.7559 7.82723 34.2022 8.89083 34.25C8.9313 35.3055 9.3634 36.3082 10.1029 37.0625C10.8424 37.8168 11.8363 38.2686 12.8908 38.33C12.9193 38.9981 13.1043 39.6501 13.431 40.2336C13.7576 40.8171 14.2166 41.3157 14.7712 41.6893C15.3258 42.0629 15.9603 42.301 16.6238 42.3845C17.2872 42.468 17.961 42.3945 18.5908 42.17C18.7961 42.7793 19.1382 43.3334 19.5908 43.79C20.3874 44.5838 21.4662 45.0296 22.5908 45.0296C23.7155 45.0296 24.7942 44.5838 25.5908 43.79L26.1908 43.19C26.5517 42.8257 26.8431 42.3988 27.0508 41.93C27.8737 42.68 28.9581 43.0772 30.0708 43.0361C31.1835 42.9949 32.2356 42.5188 33.0008 41.71C33.7505 40.9529 34.1924 39.9444 34.2408 38.88C35.2834 38.8175 36.2662 38.3724 37.0008 37.63C37.7505 36.8729 38.1924 35.8644 38.2408 34.8C39.3014 34.7516 40.3047 34.3053 41.0508 33.55C41.7962 32.7966 42.2387 31.7955 42.294 30.7371C42.3493 29.6788 42.0136 28.637 41.3508 27.81C42.3597 26.4086 42.9051 24.7268 42.9108 23C42.914 22.5892 43.0752 22.1953 43.3608 21.9L47.5008 17.73C47.6327 17.599 47.7373 17.4431 47.8087 17.2715C47.88 17.0999 47.9168 16.9159 47.9168 16.73C47.9168 16.5441 47.88 16.3601 47.8087 16.1885C47.7373 16.0168 47.6327 15.861 47.5008 15.73L35.3408 3.51ZM8.07083 28.89L10.0708 26.89C10.2041 26.753 10.3635 26.6441 10.5395 26.5698C10.7156 26.4954 10.9047 26.4571 11.0958 26.4571C11.2869 26.4571 11.4761 26.4954 11.6522 26.5698C11.8282 26.6441 11.9876 26.753 12.1208 26.89C12.2593 27.0276 12.3692 27.1911 12.4442 27.3713C12.5192 27.5516 12.5578 27.7448 12.5578 27.94C12.5578 28.1352 12.5192 28.3284 12.4442 28.5086C12.3692 28.6889 12.2593 28.8524 12.1208 28.99L10.1208 30.99C9.85239 31.2491 9.49389 31.3939 9.12083 31.3939C8.74777 31.3939 8.38926 31.2491 8.12083 30.99C7.83921 30.7162 7.67622 30.3429 7.66687 29.9502C7.65752 29.5575 7.80256 29.1769 8.07083 28.89ZM12.0708 32.97L16.1208 28.89C16.255 28.7527 16.4152 28.6436 16.592 28.5692C16.7689 28.4947 16.9589 28.4563 17.1508 28.4563C17.3427 28.4563 17.5327 28.4947 17.7096 28.5692C17.8865 28.6436 18.0467 28.7527 18.1808 28.89C18.4557 29.1704 18.6096 29.5474 18.6096 29.94C18.6096 30.3326 18.4557 30.7096 18.1808 30.99C16.7308 32.44 16.6608 32.52 14.1308 35.07C13.996 35.2061 13.8356 35.3141 13.6588 35.3878C13.482 35.4615 13.2924 35.4994 13.1008 35.4994C12.9093 35.4994 12.7197 35.4615 12.5429 35.3878C12.3661 35.3141 12.2056 35.2061 12.0708 35.07C11.8115 34.7847 11.6721 34.4104 11.6814 34.025C11.6907 33.6395 11.8481 33.2725 12.1208 33L12.0708 32.97ZM16.1208 39.15C15.846 38.8696 15.692 38.4926 15.692 38.1C15.692 37.7074 15.846 37.3304 16.1208 37.05L18.1208 35.05C18.2548 34.9142 18.4144 34.8064 18.5903 34.7329C18.7663 34.6593 18.9551 34.6214 19.1458 34.6214C19.3365 34.6214 19.5254 34.6593 19.7013 34.7329C19.8773 34.8064 20.0369 34.9142 20.1708 35.05C20.4359 35.3088 20.595 35.657 20.6172 36.0268C20.6394 36.3966 20.523 36.7614 20.2908 37.05C20.1708 37.16 20.3508 36.98 18.1508 39.23C17.8722 39.4704 17.5127 39.5959 17.145 39.581C16.7774 39.5661 16.4291 39.4121 16.1708 39.15H16.1208ZM24.2408 41.15L23.6508 41.74C23.5167 41.8773 23.3565 41.9864 23.1796 42.0608C23.0027 42.1353 22.8128 42.1737 22.6208 42.1737C22.4289 42.1737 22.2389 42.1353 22.062 42.0608C21.8852 41.9864 21.725 41.8773 21.5908 41.74C21.3431 41.4864 21.1939 41.1527 21.1701 40.799C21.1462 40.4452 21.2493 40.0946 21.4608 39.81L22.3208 38.93C22.5994 38.7098 22.9494 38.6002 23.3038 38.6223C23.6582 38.6445 23.9919 38.7968 24.2408 39.05C24.3872 39.1846 24.5049 39.3474 24.5869 39.5286C24.669 39.7097 24.7136 39.9056 24.7183 40.1044C24.723 40.3032 24.6875 40.5009 24.6141 40.6857C24.5406 40.8705 24.4307 41.0386 24.2908 41.18L24.2408 41.15ZM39.1008 31.56C38.9667 31.6973 38.8065 31.8064 38.6296 31.8808C38.4527 31.9553 38.2627 31.9937 38.0708 31.9937C37.8789 31.9937 37.6889 31.9553 37.512 31.8808C37.3352 31.8064 37.175 31.6973 37.0408 31.56L34.4208 28.93C34.2895 28.7987 34.1336 28.6945 33.962 28.6234C33.7904 28.5524 33.6065 28.5158 33.4208 28.5158C33.2351 28.5158 33.0512 28.5524 32.8796 28.6234C32.7081 28.6945 32.5521 28.7987 32.4208 28.93C32.2895 29.0613 32.1853 29.2172 32.1143 29.3888C32.0432 29.5604 32.0066 29.7443 32.0066 29.93C32.0066 30.1157 32.0432 30.2996 32.1143 30.4712C32.1853 30.6428 32.2895 30.7987 32.4208 30.93L35.0408 33.57C35.315 33.8487 35.4687 34.224 35.4687 34.615C35.4687 35.006 35.315 35.3813 35.0408 35.66C34.9067 35.7973 34.7465 35.9064 34.5696 35.9808C34.3927 36.0553 34.2027 36.0937 34.0108 36.0937C33.8189 36.0937 33.6289 36.0553 33.452 35.9808C33.2752 35.9064 33.1149 35.7973 32.9808 35.66L30.3708 33C30.2395 32.8687 30.0836 32.7645 29.912 32.6934C29.7404 32.6224 29.5565 32.5858 29.3708 32.5858C29.1851 32.5858 29.0012 32.6224 28.8296 32.6934C28.6581 32.7645 28.5022 32.8687 28.3708 33C28.2395 33.1313 28.1353 33.2872 28.0643 33.4588C27.9932 33.6304 27.9566 33.8143 27.9566 34C27.9566 34.1857 27.9932 34.3696 28.0643 34.5412C28.1353 34.7128 28.2395 34.8687 28.3708 35L31.0008 37.63C31.1393 37.7676 31.2492 37.9311 31.3242 38.1113C31.3992 38.2916 31.4378 38.4848 31.4378 38.68C31.4378 38.8752 31.3992 39.0684 31.3242 39.2486C31.2492 39.4288 31.1393 39.5924 31.0008 39.73C30.7324 39.9891 30.3739 40.1339 30.0008 40.1339C29.6278 40.1339 29.2693 39.9891 29.0008 39.73C28.0584 38.7149 27.0566 37.7566 26.0008 36.86C25.2829 36.257 24.3873 35.9057 23.4508 35.86C23.4205 34.7906 22.9927 33.7709 22.2508 33C21.8593 32.608 21.3981 32.2926 20.8908 32.07C21.364 31.2512 21.5547 30.2996 21.4337 29.3617C21.3126 28.4238 20.8864 27.5518 20.2208 26.88C19.5583 26.2068 18.6903 25.7736 17.7541 25.6486C16.8179 25.5237 15.8667 25.7142 15.0508 26.19C14.8438 25.6845 14.5378 25.2256 14.1508 24.84C13.7562 24.4382 13.2854 24.119 12.766 23.9011C12.2466 23.6832 11.6891 23.571 11.1258 23.571C10.5626 23.571 10.005 23.6832 9.48564 23.9011C8.96626 24.119 8.49549 24.4382 8.10083 24.84L7.88083 25.06C7.7206 24.6558 7.63914 24.2248 7.64083 23.79C7.63877 22.122 6.97737 20.5224 5.80083 19.34L3.30083 16.83L13.4708 6.59L16.5508 9.68C17.227 10.3639 18.1156 10.7977 19.0708 10.91L12.7908 18.45C12.6688 18.592 12.5765 18.757 12.5193 18.9353C12.4622 19.1136 12.4414 19.3016 12.4582 19.488C12.475 19.6745 12.529 19.8557 12.617 20.021C12.7051 20.1862 12.8254 20.3321 12.9708 20.45C13.6783 21.0446 14.4966 21.4932 15.3783 21.77C16.2601 22.0468 17.1879 22.1462 18.1083 22.0625C19.0287 21.9788 19.9234 21.7137 20.7408 21.2825C21.5582 20.8513 22.2822 20.2624 22.8708 19.55C23.1145 19.2556 23.4498 19.0513 23.8232 18.9697C24.1966 18.8881 24.5866 18.934 24.9308 19.1C26.3613 19.795 27.963 20.0591 29.5408 19.86L39.1008 29.48C39.3697 29.7595 39.5199 30.1322 39.5199 30.52C39.5199 30.9078 39.3697 31.2805 39.1008 31.56ZM41.3708 19.92C40.9663 20.3241 40.6457 20.8043 40.4277 21.333C40.2098 21.8616 40.0987 22.4282 40.1008 23C40.1048 23.9651 39.8529 24.914 39.3708 25.75L32.5308 18.86C33.9422 18.0739 35.0928 16.892 35.8408 15.46C35.9855 15.1331 36.0007 14.7635 35.8832 14.4258C35.7657 14.0882 35.5244 13.8078 35.208 13.6413C34.8917 13.4749 34.5239 13.4348 34.1791 13.5293C33.8343 13.6237 33.5382 13.8456 33.3508 14.15C32.9923 14.8395 32.4913 15.4448 31.881 15.9258C31.2706 16.4068 30.565 16.7525 29.8108 16.94H29.6108C28.445 17.1847 27.2309 17.0334 26.1608 16.51C25.2509 16.0707 24.2203 15.9482 23.2328 16.162C22.2452 16.3759 21.3575 16.9137 20.7108 17.69C20.357 18.1168 19.9221 18.4691 19.4312 18.7266C18.9402 18.9841 18.4031 19.1416 17.8508 19.19C17.2277 19.2624 16.5963 19.1975 16.0008 19L22.5108 11.18C23.0233 11.0249 23.5554 10.944 24.0908 10.94H28.1708C28.7285 10.9392 29.2806 10.8283 29.7954 10.6138C30.3101 10.3994 30.7776 10.0854 31.1708 9.69L34.3508 6.5L44.5208 16.74L41.3708 19.92Z" fill="#171717"/>
</g>
</g>
<defs>
<clipPath id="clip0_671_19309">
<rect width="48" height="48" fill="white"/>
</clipPath>
</defs>
</svg>
