<svg width="48" height="48" viewBox="0 0 48 48" fill="none" xmlns="http://www.w3.org/2000/svg">
<mask id="mask0_671_19315" style="mask-type:luminance" maskUnits="userSpaceOnUse" x="1" y="1" width="46" height="46">
<path d="M46.3996 1.59998H1.59961V46.4H46.3996V1.59998Z" fill="white"/>
</mask>
<g mask="url(#mask0_671_19315)">
<path d="M44.6498 33.19C44.4428 33.19 44.2378 33.1491 44.0467 33.0695C43.8555 32.99 43.682 32.8735 43.5361 32.7266C43.3902 32.5798 43.2748 32.4055 43.1964 32.2139C43.1181 32.0222 43.0785 31.817 43.0798 31.61V25.4H36.7798C36.5624 25.4173 36.3438 25.3895 36.1377 25.3182C35.9316 25.2469 35.7425 25.1337 35.5823 24.9858C35.4221 24.8378 35.2943 24.6583 35.2068 24.4586C35.1194 24.2588 35.0742 24.0431 35.0742 23.825C35.0742 23.6069 35.1194 23.3912 35.2068 23.1914C35.2943 22.9917 35.4221 22.8122 35.5823 22.6642C35.7425 22.5163 35.9316 22.4031 36.1377 22.3318C36.3438 22.2605 36.5624 22.2327 36.7798 22.25H44.6498C45.0689 22.25 45.4707 22.4165 45.767 22.7128C46.0634 23.0091 46.2298 23.411 46.2298 23.83V31.61C46.2298 32.029 46.0634 32.4309 45.767 32.7272C45.4707 33.0235 45.0689 33.19 44.6498 33.19Z" fill="black"/>
<path d="M44.6501 46.23C44.4431 46.23 44.2381 46.189 44.047 46.1095C43.8558 46.03 43.6823 45.9134 43.5364 45.7666C43.3905 45.6197 43.275 45.4455 43.1967 45.2538C43.1184 45.0622 43.0788 44.857 43.0801 44.65V38.65C43.1117 38.2539 43.2913 37.8843 43.5832 37.6148C43.8751 37.3452 44.2578 37.1956 44.6551 37.1956C45.0524 37.1956 45.4351 37.3452 45.727 37.6148C46.0189 37.8843 46.1985 38.2539 46.2301 38.65V44.65C46.2301 45.069 46.0636 45.4709 45.7673 45.7672C45.471 46.0635 45.0692 46.23 44.6501 46.23Z" fill="black"/>
<path d="M37.6501 46.23C37.4431 46.23 37.2381 46.189 37.047 46.1095C36.8558 46.03 36.6823 45.9134 36.5364 45.7666C36.3905 45.6197 36.275 45.4455 36.1967 45.2538C36.1184 45.0622 36.0788 44.857 36.0801 44.65V38.65C36.0801 38.2336 36.2455 37.8342 36.5399 37.5398C36.8344 37.2454 37.2337 37.08 37.6501 37.08C38.0665 37.08 38.4658 37.2454 38.7603 37.5398C39.0547 37.8342 39.2201 38.2336 39.2201 38.65V44.65C39.2214 44.857 39.1818 45.0622 39.1035 45.2538C39.0252 45.4455 38.9097 45.6197 38.7638 45.7666C38.6179 45.9134 38.4444 46.03 38.2532 46.1095C38.0621 46.189 37.8571 46.23 37.6501 46.23Z" fill="black"/>
<path d="M30.6501 46.23C30.4431 46.23 30.2381 46.189 30.047 46.1095C29.8558 46.03 29.6823 45.9134 29.5364 45.7666C29.3905 45.6197 29.275 45.4455 29.1967 45.2538C29.1184 45.0622 29.0788 44.857 29.0801 44.65V38.65C29.0801 38.2336 29.2455 37.8342 29.54 37.5398C29.8344 37.2454 30.2337 37.08 30.6501 37.08C31.0665 37.08 31.4658 37.2454 31.7603 37.5398C32.0547 37.8342 32.2201 38.2336 32.2201 38.65V44.65C32.2214 44.857 32.1818 45.0622 32.1035 45.2538C32.0252 45.4455 31.9097 45.6197 31.7638 45.7666C31.6179 45.9134 31.4444 46.03 31.2532 46.1095C31.0621 46.189 30.8571 46.23 30.6501 46.23Z" fill="black"/>
<path d="M23.6501 46.2301C23.4431 46.2301 23.2381 46.1891 23.047 46.1096C22.8558 46.0301 22.6823 45.9135 22.5364 45.7667C22.3905 45.6198 22.275 45.4456 22.1967 45.2539C22.1184 45.0623 22.0788 44.8571 22.0801 44.6501V44.0001C22.0801 43.5837 22.2455 43.1843 22.54 42.8899C22.8344 42.5955 23.2337 42.4301 23.6501 42.4301C24.0665 42.4301 24.4658 42.5955 24.7603 42.8899C25.0547 43.1843 25.2201 43.5837 25.2201 44.0001V44.7001C25.2097 45.1095 25.0397 45.4986 24.7464 45.7844C24.4531 46.0703 24.0597 46.2302 23.6501 46.2301Z" fill="black"/>
<path d="M14.3703 46.23C14.0599 46.2272 13.7572 46.133 13.5001 45.9592C13.2429 45.7854 13.0426 45.5397 12.9241 45.2528C12.8057 44.9658 12.7745 44.6504 12.8343 44.3458C12.8941 44.0412 13.0423 43.7609 13.2603 43.54L25.4203 31.37C25.7202 31.0777 26.1216 30.9129 26.5403 30.91H35.4403L43.4403 22.91C43.5831 22.7481 43.7575 22.617 43.9528 22.5251C44.1481 22.4331 44.3602 22.3821 44.576 22.3753C44.7918 22.3685 45.0066 22.406 45.2074 22.4854C45.4081 22.5649 45.5904 22.6846 45.7431 22.8373C45.8958 22.9899 46.0155 23.1723 46.095 23.373C46.1744 23.5737 46.2119 23.7886 46.2051 24.0044C46.1983 24.2202 46.1473 24.4323 46.0553 24.6276C45.9634 24.8229 45.8323 24.9973 45.6703 25.14L37.2103 33.6C37.0634 33.747 36.8887 33.8634 36.6965 33.9424C36.5042 34.0213 36.2982 34.0613 36.0903 34.06H27.1903L15.4903 45.76C15.3439 45.9084 15.1695 46.0263 14.9773 46.107C14.7851 46.1876 14.5788 46.2295 14.3703 46.23Z" fill="black"/>
</g>
<path d="M20.0603 31.09C19.8532 31.09 19.6483 31.049 19.4571 30.9695C19.266 30.89 19.0925 30.7735 18.9466 30.6266C18.8006 30.4798 18.6852 30.3055 18.6069 30.1139C18.5286 29.9222 18.4889 29.717 18.4903 29.51V27.05C18.5218 26.6539 18.7015 26.2843 18.9934 26.0148C19.2852 25.7453 19.668 25.5956 20.0653 25.5956C20.4626 25.5956 20.8453 25.7453 21.1372 26.0148C21.4291 26.2843 21.6087 26.6539 21.6403 27.05V29.51C21.6403 29.929 21.4738 30.3309 21.1775 30.6272C20.8812 30.9235 20.4793 31.09 20.0603 31.09Z" fill="black"/>
<path d="M20.0594 14.3C19.8524 14.3 19.6474 14.2591 19.4562 14.1795C19.2651 14.1 19.0916 13.9835 18.9457 13.8366C18.7997 13.6898 18.6843 13.5155 18.606 13.3239C18.5277 13.1323 18.4881 12.927 18.4894 12.72V10.35C18.472 10.1326 18.4999 9.91401 18.5712 9.70791C18.6425 9.50182 18.7556 9.31272 18.9036 9.15251C19.0515 8.99229 19.231 8.86444 19.4308 8.777C19.6306 8.68955 19.8463 8.64441 20.0644 8.64441C20.2824 8.64441 20.4982 8.68955 20.6979 8.777C20.8977 8.86444 21.0772 8.99229 21.2252 9.15251C21.3731 9.31272 21.4863 9.50182 21.5576 9.70791C21.6289 9.91401 21.6567 10.1326 21.6394 10.35V12.72C21.6394 12.9275 21.5985 13.133 21.5191 13.3246C21.4397 13.5163 21.3233 13.6905 21.1766 13.8372C21.0299 13.984 20.8557 14.1003 20.664 14.1797C20.4723 14.2591 20.2669 14.3 20.0594 14.3Z" fill="black"/>
<mask id="mask1_671_19315" style="mask-type:luminance" maskUnits="userSpaceOnUse" x="1" y="1" width="46" height="46">
<path d="M46.3996 1.59998H1.59961V46.4H46.3996V1.59998Z" fill="white"/>
</mask>
<g mask="url(#mask1_671_19315)">
<path d="M20.0602 28.56C19.0779 28.5521 18.118 28.2662 17.2915 27.7352C16.465 27.2043 15.8058 26.4501 15.3902 25.56C15.2192 25.1794 15.2063 24.7465 15.3545 24.3564C15.5026 23.9663 15.7996 23.6511 16.1802 23.48C16.5608 23.3089 16.9938 23.2961 17.3838 23.4442C17.7739 23.5924 18.0892 23.8894 18.2602 24.27C18.4166 24.6178 18.6691 24.9137 18.988 25.1228C19.3069 25.3319 19.6789 25.4454 20.0602 25.45C20.5721 25.45 21.063 25.2467 21.425 24.8847C21.7869 24.5228 21.9902 24.0319 21.9902 23.52C21.9902 23.0081 21.7869 22.5172 21.425 22.1553C21.063 21.7934 20.5721 21.59 20.0602 21.59C18.7156 21.59 17.426 21.0559 16.4752 20.105C15.5244 19.1542 14.9902 17.8647 14.9902 16.52C14.9902 15.1754 15.5244 13.8858 16.4752 12.935C17.426 11.9842 18.7156 11.45 20.0602 11.45C21.0437 11.4415 22.0073 11.7274 22.827 12.271C23.6468 12.8145 24.2852 13.5908 24.6602 14.5C24.7859 14.877 24.7649 15.2875 24.6015 15.6497C24.438 16.0119 24.1441 16.2992 23.7783 16.4543C23.4125 16.6095 23.0016 16.6211 22.6276 16.4869C22.2536 16.3526 21.9439 16.0824 21.7602 15.73C21.6282 15.3892 21.3939 15.0976 21.0895 14.8953C20.7852 14.6929 20.4256 14.5898 20.0602 14.6C19.551 14.6 19.0627 14.8023 18.7026 15.1624C18.3425 15.5224 18.1402 16.0108 18.1402 16.52C18.1402 17.0292 18.3425 17.5176 18.7026 17.8777C19.0627 18.2377 19.551 18.44 20.0602 18.44C21.4075 18.44 22.6997 18.9752 23.6523 19.9279C24.605 20.8806 25.1402 22.1727 25.1402 23.52C25.1402 24.8673 24.605 26.1594 23.6523 27.1121C22.6997 28.0648 21.4075 28.6 20.0602 28.6V28.56Z" fill="black"/>
<path d="M14.0001 37.08C13.808 37.0813 13.6175 37.0439 13.4401 36.97C10.4719 35.8276 7.85489 33.9273 5.84981 31.4586C3.84474 28.9898 2.5216 26.0387 2.01226 22.8993C1.50291 19.7599 1.82514 16.5418 2.94683 13.5657C4.06851 10.5896 5.9505 7.95946 8.40526 5.93724C10.86 3.91502 13.8019 2.57138 16.9376 2.04019C20.0734 1.509 23.2936 1.80881 26.2774 2.90975C29.2613 4.01069 31.9045 5.87432 33.9437 8.31494C35.983 10.7556 37.3471 13.688 37.9001 16.82C37.9717 17.2311 37.8771 17.6538 37.637 17.9951C37.397 18.3364 37.0312 18.5684 36.6201 18.64C36.209 18.7116 35.7863 18.617 35.445 18.3769C35.1037 18.1369 34.8717 17.7711 34.8001 17.36C34.3478 14.7668 33.2233 12.3376 31.5388 10.3149C29.8543 8.29213 27.6687 6.74658 25.2002 5.83248C22.7317 4.91838 20.0666 4.66771 17.471 5.10549C14.8753 5.54327 12.4399 6.65419 10.4078 8.32735C8.37562 10.0005 6.81786 12.1774 5.88997 14.6408C4.96208 17.1041 4.69651 19.7678 5.11976 22.3658C5.54301 24.9639 6.64029 27.4055 8.30207 29.4469C9.96384 31.4884 12.132 33.0583 14.5901 34C14.904 34.1508 15.1593 34.4011 15.3163 34.712C15.4732 35.0229 15.5231 35.3769 15.4581 35.719C15.3931 36.0612 15.2168 36.3722 14.9568 36.6039C14.6967 36.8355 14.3675 36.9748 14.0201 37L14.0001 37.08Z" fill="black"/>
</g>
</svg>
