<svg width="48" height="48" viewBox="0 0 48 48" fill="none" xmlns="http://www.w3.org/2000/svg">
<path fill-rule="evenodd" clip-rule="evenodd" d="M38.7896 21.65C38.7212 21.4505 38.6957 21.2388 38.7147 21.0287C38.7336 20.8186 38.7967 20.6149 38.8998 20.4308C39.0028 20.2468 39.1435 20.0865 39.3127 19.9605C39.4819 19.8346 39.6757 19.7457 39.8816 19.6997C40.0875 19.6537 40.3007 19.6517 40.5074 19.6937C40.7141 19.7357 40.9096 19.8209 41.0812 19.9436C41.2528 20.0663 41.3965 20.2238 41.5031 20.4058C41.6097 20.5879 41.6766 20.7903 41.6996 21C42.7104 25.2188 42.3148 29.6523 40.5732 33.6256C38.8316 37.5988 35.8393 40.8941 32.052 43.0097C28.2646 45.1253 23.8897 45.9453 19.5932 45.345C15.2968 44.7446 11.3142 42.7567 8.25192 39.6839C5.18959 36.6111 3.21526 32.6218 2.62952 28.3233C2.04378 24.0249 2.87872 19.6528 5.00722 15.8726C7.13573 12.0925 10.4412 9.1115 14.4203 7.38343C18.3995 5.65536 22.8343 5.27491 27.0496 6.30002C27.2524 6.33436 27.4459 6.41 27.6181 6.52225C27.7904 6.63451 27.9377 6.78098 28.051 6.95257C28.1643 7.12415 28.241 7.3172 28.2766 7.51971C28.3121 7.72222 28.3056 7.92987 28.2575 8.12978C28.2095 8.32968 28.1208 8.51756 27.997 8.68176C27.8733 8.84595 27.7171 8.98295 27.5382 9.08426C27.3593 9.18556 27.1615 9.249 26.957 9.27063C26.7525 9.29227 26.5458 9.27164 26.3496 9.21002C25.0392 8.8978 23.6967 8.74005 22.3496 8.74002C19.0124 8.74595 15.7518 9.74099 12.9798 11.5994C10.2079 13.4578 8.04897 16.0962 6.77596 19.1811C5.50295 22.266 5.17295 25.6591 5.82765 28.9315C6.48235 32.2039 8.09238 35.2088 10.4543 37.5665C12.8162 39.9243 15.824 41.529 19.0975 42.1778C22.3711 42.8267 25.7636 42.4907 28.8462 41.2122C31.9289 39.9337 34.5634 37.7702 36.4169 34.9949C38.2704 32.2197 39.2596 28.9573 39.2596 25.62C39.2573 24.283 39.0996 22.9507 38.7896 21.65Z" fill="#171717"/>
<path fill-rule="evenodd" clip-rule="evenodd" d="M29.5305 25.62C29.5305 25.2221 29.6885 24.8406 29.9698 24.5593C30.2511 24.278 30.6326 24.12 31.0305 24.12C31.4283 24.12 31.8098 24.278 32.0911 24.5593C32.3724 24.8406 32.5305 25.2221 32.5305 25.62C32.5305 27.6275 31.9352 29.5898 30.8199 31.259C29.7046 32.9282 28.1194 34.2291 26.2647 34.9973C24.41 35.7656 22.3692 35.9666 20.4003 35.5749C18.4314 35.1833 16.6228 34.2166 15.2033 32.7971C13.7838 31.3776 12.8171 29.569 12.4255 27.6001C12.0339 25.6312 12.2349 23.5904 13.0031 21.7357C13.7713 19.8811 15.0723 18.2959 16.7414 17.1806C18.4106 16.0653 20.373 15.47 22.3805 15.47C22.7783 15.47 23.1598 15.628 23.4411 15.9093C23.7224 16.1906 23.8805 16.5721 23.8805 16.97C23.8805 17.3678 23.7224 17.7493 23.4411 18.0306C23.1598 18.3119 22.7783 18.47 22.3805 18.47C20.9663 18.47 19.584 18.8893 18.4081 19.675C17.2323 20.4606 16.3159 21.5773 15.7747 22.8838C15.2336 24.1903 15.092 25.6279 15.3679 27.0149C15.6437 28.4018 16.3247 29.6758 17.3247 30.6758C18.3246 31.6757 19.5986 32.3567 20.9856 32.6326C22.3725 32.9085 23.8102 32.7669 25.1167 32.2257C26.4232 31.6845 27.5398 30.7681 28.3255 29.5923C29.1111 28.4165 29.5305 27.0341 29.5305 25.62Z" fill="#171717"/>
<path fill-rule="evenodd" clip-rule="evenodd" d="M45.0595 11.18L38.9995 17.29C38.7136 17.5702 38.3298 17.728 37.9295 17.73H31.7695C31.3717 17.73 30.9902 17.572 30.7089 17.2907C30.4276 17.0094 30.2695 16.6278 30.2695 16.23V10.12C30.2716 9.71971 30.4294 9.33593 30.7095 9.05001L36.8195 2.94001C37.0005 2.75776 37.2252 2.62501 37.4721 2.55449C37.7191 2.48397 37.98 2.47803 38.2299 2.53724C38.4798 2.59645 38.7103 2.71883 38.8993 2.89266C39.0884 3.06649 39.2296 3.28595 39.3095 3.53001L40.5995 7.40001L44.4695 8.69001C44.7136 8.76993 44.933 8.91118 45.1069 9.10022C45.2807 9.28927 45.4031 9.51978 45.4623 9.76967C45.5215 10.0196 45.5156 10.2805 45.445 10.5274C45.3745 10.7744 45.2418 10.9991 45.0595 11.18ZM41.2195 10.77L38.9395 10C38.7211 9.9261 38.5227 9.80285 38.3597 9.63983C38.1967 9.4768 38.0734 9.27839 37.9995 9.06001L37.2395 6.78001L33.2395 10.78V14.78H37.2395L41.2195 10.77Z" fill="#171717"/>
<path fill-rule="evenodd" clip-rule="evenodd" d="M30.7093 15.17C30.9937 14.9051 31.3697 14.7608 31.7583 14.7677C32.1469 14.7745 32.5177 14.932 32.7925 15.2068C33.0674 15.4816 33.2248 15.8524 33.2317 16.241C33.2385 16.6296 33.0943 17.0057 32.8293 17.29L23.6593 26.46C23.375 26.725 22.9989 26.8692 22.6103 26.8624C22.2217 26.8555 21.8509 26.6981 21.5761 26.4233C21.3012 26.1485 21.1438 25.7777 21.137 25.3891C21.1301 25.0005 21.2743 24.6244 21.5393 24.34L30.7093 15.17Z" fill="#171717"/>
</svg>
