<svg width="1115" height="313" viewBox="0 0 1115 313" fill="none" xmlns="http://www.w3.org/2000/svg">
<path d="M130.615 122.579C130.61 125.893 129.65 129.136 127.849 131.919C126.048 134.702 123.483 136.907 120.46 138.271L70.0403 160.885L64.7037 163.287L56.927 166.772L54.0677 168.004L51.7507 169.039L24.1314 181.479L23.6261 181.701C16.3464 175.436 10.3418 167.83 5.94043 159.296L42.6059 142.853L42.7661 142.779L48.497 140.205L57.5802 136.128L61.0557 134.563L130.628 103.352L130.615 122.579Z" fill="#D81E1E"/>
<path d="M5.94048 159.284L5.92822 159.296V159.284H5.94048Z" fill="white"/>
<path d="M298.278 115.324L173.061 172.044V140.488C173.052 137.15 174 133.88 175.794 131.064C177.587 128.248 180.15 126.004 183.18 124.599L271.288 84.2117C271.546 84.3964 279.237 90.3702 282.38 93.4494C284.645 95.6334 286.789 97.9401 288.801 100.359C292.635 104.887 295.825 109.923 298.278 115.324Z" fill="url(#paint0_linear_506_10299)"/>
<path d="M130.615 148.839V220.549C118.935 219.653 107.33 217.95 95.8849 215.449C91.8589 214.579 87.9274 213.606 84.0904 212.53C65.961 207.529 49.9145 200.583 36.8505 192.207L35.2729 191.185L59.4906 180.186L63.2866 178.523L64.593 177.956L72.1479 174.631L79.4317 171.416L130.615 148.839Z" fill="url(#paint1_linear_506_10299)"/>
<path d="M130.307 52.446C130.291 54.1992 129.668 55.8927 128.545 57.2396C127.422 58.5865 125.867 59.5039 124.145 59.8363C81.1816 67.9039 48.4847 94.4963 43.1235 127.173C42.7898 129.526 41.8639 131.756 40.4326 133.654C39.0014 135.552 37.1115 137.056 34.94 138.025L3.06881 152.337C3.06881 152.226 2.99486 152.128 2.95789 152.029H2.80999C0.956902 146.825 0.00657992 141.343 0 135.82C0 93.4248 56.6312 58.2966 130.307 52.446Z" fill="url(#paint2_linear_506_10299)"/>
<path d="M303.984 136.793C303.983 138.533 303.888 140.273 303.701 142.003C299.264 182.44 243.964 215.215 173.061 220.647C173.062 218.973 173.649 217.352 174.72 216.065C175.792 214.778 177.28 213.907 178.928 213.602C218.058 206.212 248.697 183.548 257.903 154.862C258.408 153.298 258.852 151.696 259.234 150.095C259.834 147.502 261.026 145.083 262.717 143.028C264.409 140.972 266.553 139.336 268.983 138.246L302.111 123.466C303.352 127.8 303.982 132.285 303.984 136.793Z" fill="url(#paint3_linear_506_10299)"/>
<path d="M256.547 74.6658L173.061 112.664V52.3843C186.125 53.3649 199.093 55.3622 211.846 58.358L212.315 58.4689C216.25 59.405 220.087 60.4355 223.826 61.5604L224.59 61.7822C231.106 63.7366 237.515 66.0307 243.791 68.6551C248.241 70.5272 252.505 72.5226 256.547 74.6658Z" fill="url(#paint4_linear_506_10299)"/>
<path d="M165.247 3.97144e-05V294.586C165.231 299.465 163.284 304.139 159.832 307.589C156.38 311.039 151.703 312.984 146.822 313H138.737V18.414C138.737 18.0937 138.737 17.7735 138.737 17.4656C138.875 13.5069 140.353 9.71207 142.927 6.7005C143.032 6.54954 143.152 6.40928 143.285 6.28172C143.419 6.1208 143.563 5.96859 143.716 5.82599C145.431 3.98332 147.508 2.51466 149.818 1.51212C152.127 0.509581 154.619 -0.0052076 157.137 3.97144e-05H165.247Z" fill="url(#paint5_linear_506_10299)"/>
<path d="M429.547 116.864V119.106H398.514V203.428H381.974V119.106H350.892V102.625H415.3C417.171 102.624 419.024 102.991 420.754 103.706C422.483 104.421 424.054 105.47 425.377 106.792C426.701 108.115 427.75 109.685 428.466 111.413C429.181 113.141 429.548 114.994 429.547 116.864Z" fill="url(#paint6_linear_506_10299)"/>
<path d="M537.694 132.642C535.337 126.606 531.849 121.075 527.416 116.347C523.037 111.736 517.755 108.076 511.899 105.594C499.439 100.454 485.45 100.454 472.99 105.594C467.112 108.082 461.8 111.736 457.375 116.334C452.893 121.048 449.369 126.586 446.998 132.642C444.49 139.143 443.235 146.059 443.301 153.027C443.227 159.966 444.482 166.856 446.998 173.325C449.386 179.343 452.909 184.846 457.375 189.534C464.319 196.615 473.239 201.437 482.968 203.371C492.698 205.305 502.785 204.26 511.911 200.373C517.756 197.833 523.029 194.143 527.416 189.522C531.83 184.817 535.317 179.322 537.694 173.325C540.209 166.856 541.464 159.966 541.392 153.027C541.456 146.06 540.201 139.143 537.694 132.642ZM492.439 187.834C487.926 187.881 483.452 186.992 479.301 185.223C475.417 183.541 471.91 181.099 468.985 178.042C466.043 174.868 463.745 171.154 462.219 167.105C458.916 158.014 458.916 148.052 462.219 138.961C463.741 134.91 466.039 131.194 468.985 128.023C471.904 124.959 475.413 122.516 479.301 120.842C483.452 119.071 487.925 118.178 492.439 118.219C496.912 118.157 501.349 119.03 505.466 120.781C509.326 122.471 512.808 124.917 515.707 127.974C518.656 131.147 520.963 134.861 522.498 138.911C525.785 148.005 525.785 157.962 522.498 167.056C520.96 171.104 518.654 174.818 515.707 177.993C512.718 181.146 509.107 183.645 505.101 185.33C501.096 187.016 496.784 187.852 492.439 187.785V187.834Z" fill="url(#paint7_linear_506_10299)"/>
<path d="M645.349 102.625V203.428H632.543L574.298 133.098V203.428H557.82V102.625H570.452L628.698 173.116V102.625H645.349Z" fill="url(#paint8_linear_506_10299)"/>
<path d="M758.143 146.831V152.99C758.157 159.732 756.903 166.418 754.445 172.697C752.102 178.743 748.649 184.299 744.265 189.079C739.905 193.794 734.624 197.566 728.749 200.164C719.542 204.271 709.282 205.399 699.402 203.392C689.522 201.384 680.517 196.341 673.646 188.968C669.303 184.208 665.885 178.682 663.564 172.672C658.701 159.958 658.701 145.898 663.564 133.184C665.888 127.176 669.306 121.651 673.646 116.889C678.027 112.197 683.303 108.428 689.162 105.803C695.363 103.028 702.088 101.616 708.882 101.665C716.152 101.619 723.343 103.172 729.946 106.214C736.548 109.255 742.401 113.711 747.088 119.266L748.111 120.497L735.367 131.029L734.356 129.797C731.247 126.091 727.353 123.121 722.957 121.1C718.56 119.079 713.77 118.057 708.931 118.108C704.593 118.06 700.293 118.911 696.301 120.607C692.309 122.303 688.712 124.807 685.736 127.962C682.755 131.18 680.424 134.944 678.871 139.047C675.605 148.022 675.605 157.859 678.871 166.834C680.425 170.918 682.756 174.661 685.736 177.858C688.668 180.943 692.183 183.417 696.077 185.137C700.13 186.901 704.51 187.791 708.931 187.748C716.446 187.791 723.733 185.173 729.501 180.358C732.303 177.979 734.708 175.168 736.624 172.032C738.272 169.332 739.518 166.407 740.322 163.348H707.538V161.057C707.538 157.292 709.031 153.679 711.689 151.011C714.348 148.343 717.956 146.835 721.724 146.819L758.143 146.831Z" fill="url(#paint9_linear_506_10299)"/>
<path d="M901.12 114.191V203.428H884.457V161.18H838.955V203.428H822.477V102.625H838.967V144.885H884.469V101.529H888.475C890.137 101.531 891.783 101.859 893.318 102.497C894.853 103.134 896.247 104.067 897.421 105.243C898.596 106.419 899.526 107.814 900.161 109.349C900.796 110.885 901.121 112.53 901.12 114.191Z" fill="url(#paint10_linear_506_10299)"/>
<path d="M997.929 102.625V167.241C997.99 172.198 997.021 177.114 995.084 181.679C993.148 186.243 990.285 190.357 986.677 193.759C983.068 197.156 978.82 199.802 974.18 201.543C964.183 205.238 953.193 205.238 943.196 201.543C938.591 199.832 934.373 197.222 930.787 193.866C927.2 190.511 924.317 186.476 922.306 181.996C920.233 177.347 919.186 172.306 919.237 167.216V102.625H935.727V167.241C935.697 170.068 936.286 172.868 937.452 175.444C938.559 177.905 940.152 180.117 942.136 181.947C944.24 183.837 946.693 185.297 949.358 186.246C952.33 187.33 955.474 187.868 958.638 187.835C961.783 187.875 964.908 187.336 967.857 186.246C970.512 185.262 972.964 183.801 975.092 181.935C977.095 180.147 978.685 177.945 979.75 175.481C980.864 172.877 981.426 170.072 981.402 167.241V102.625H997.929Z" fill="url(#paint11_linear_506_10299)"/>
<path d="M1052.86 102.625L1008.12 203.428H1026.15L1035.69 181.947H1082.83L1088.45 194.535C1089.64 197.194 1091.58 199.451 1094.03 201.03C1096.47 202.609 1099.33 203.442 1102.24 203.428H1110.53L1070.99 114.401C1069.43 110.895 1066.89 107.917 1063.67 105.826C1060.45 103.736 1056.7 102.624 1052.86 102.625ZM1043 165.652L1059.24 128.565L1075.63 165.652H1043Z" fill="url(#paint12_linear_506_10299)"/>
<path d="M365.434 229.909L380.667 264.237H375.553L372.176 256.686H354.921L351.557 264.237H346.43L361.663 229.909H365.434ZM356.943 252.08H370.167L363.548 237.102L356.943 252.08Z" fill="url(#paint13_linear_506_10299)"/>
<path d="M396.911 264.545C395.204 264.571 393.501 264.372 391.846 263.954C390.56 263.622 389.319 263.139 388.148 262.513C387.232 262.026 386.372 261.439 385.585 260.764C384.895 260.172 384.352 259.68 383.995 259.298L383.81 259.175L387.113 255.812L387.298 255.997C387.635 256.334 388.046 256.744 388.53 257.229C389.099 257.718 389.729 258.132 390.404 258.46C391.266 258.896 392.176 259.231 393.115 259.458C394.355 259.749 395.626 259.886 396.899 259.864C399.11 259.963 401.306 259.466 403.258 258.423C403.984 258.083 404.6 257.545 405.035 256.873C405.471 256.2 405.709 255.419 405.723 254.617C405.724 254.27 405.655 253.925 405.522 253.604C405.389 253.282 405.193 252.991 404.947 252.745C404.334 252.154 403.626 251.671 402.851 251.316C401.895 250.865 400.902 250.498 399.881 250.22C398.784 249.912 397.65 249.629 396.48 249.383H396.356C395.321 249.124 394.089 248.804 392.659 248.41C391.252 248.008 389.904 247.42 388.654 246.661C387.415 245.943 386.331 244.989 385.462 243.852C384.556 242.592 384.097 241.067 384.155 239.517C384.138 238.105 384.451 236.71 385.067 235.44C385.666 234.208 386.539 233.13 387.618 232.287C388.819 231.366 390.188 230.688 391.648 230.291C393.356 229.811 395.125 229.578 396.899 229.601C398.614 229.573 400.326 229.772 401.989 230.193C403.272 230.525 404.513 231.004 405.686 231.621C406.6 232.112 407.459 232.699 408.25 233.371C408.94 233.974 409.482 234.467 409.839 234.836L410.037 234.959L406.721 238.273L406.536 238.088C406.204 237.755 405.785 237.374 405.304 236.93C404.732 236.451 404.108 236.038 403.443 235.698C402.576 235.263 401.662 234.928 400.719 234.701C399.484 234.41 398.217 234.273 396.948 234.294C394.878 234.177 392.818 234.651 391.008 235.661C390.342 236.06 389.795 236.628 389.422 237.308C389.05 237.987 388.865 238.754 388.888 239.529C388.905 240.221 389.126 240.893 389.522 241.46C389.919 242.027 390.474 242.465 391.118 242.719C393.107 243.648 395.201 244.33 397.355 244.751L397.478 244.813C398.71 245.109 400.029 245.453 401.508 245.872C402.958 246.281 404.359 246.847 405.686 247.56C406.974 248.24 408.104 249.184 409.001 250.331C409.926 251.56 410.4 253.069 410.345 254.605C410.36 256.011 410.016 257.397 409.346 258.633C408.668 259.88 407.715 260.958 406.561 261.786C405.279 262.707 403.843 263.395 402.321 263.818C400.56 264.307 398.739 264.552 396.911 264.545Z" fill="url(#paint14_linear_506_10299)"/>
<path d="M427.254 264.545C425.547 264.57 423.844 264.371 422.189 263.954C420.903 263.622 419.662 263.139 418.492 262.513C417.575 262.026 416.715 261.439 415.928 260.764C415.238 260.172 414.696 259.68 414.338 259.298L414.153 259.175L417.456 255.812L417.653 255.997C417.986 256.329 418.393 256.724 418.886 257.229C419.455 257.718 420.084 258.132 420.759 258.46C421.621 258.896 422.531 259.231 423.471 259.458C424.71 259.749 425.981 259.885 427.254 259.864C429.469 259.961 431.669 259.464 433.626 258.423C434.351 258.081 434.966 257.544 435.401 256.871C435.837 256.199 436.076 255.418 436.091 254.617C436.092 254.27 436.023 253.925 435.89 253.604C435.757 253.282 435.561 252.991 435.315 252.745C434.702 252.154 433.994 251.671 433.219 251.316C432.263 250.865 431.269 250.498 430.249 250.22C429.152 249.912 428.018 249.629 426.848 249.383H426.724C425.689 249.124 424.457 248.804 423.027 248.41C421.627 248.027 420.284 247.459 419.034 246.722C417.799 246.004 416.719 245.05 415.854 243.914C414.926 242.641 414.461 241.09 414.535 239.517C414.517 238.126 414.819 236.751 415.42 235.496C416.021 234.242 416.903 233.144 417.999 232.287C419.199 231.366 420.568 230.688 422.029 230.291C423.737 229.811 425.505 229.578 427.279 229.601C428.994 229.573 430.706 229.772 432.369 230.193C433.651 230.528 434.892 231.007 436.066 231.621C436.976 232.112 437.832 232.699 438.618 233.371C439.308 233.974 439.85 234.467 440.207 234.836L440.405 234.959L437.089 238.273L436.904 238.088C436.572 237.755 436.153 237.374 435.672 236.93C435.093 236.454 434.465 236.041 433.799 235.698C432.932 235.263 432.018 234.928 431.075 234.701C429.839 234.41 428.573 234.273 427.304 234.294C425.234 234.179 423.174 234.653 421.363 235.661C420.7 236.062 420.154 236.63 419.781 237.31C419.409 237.989 419.223 238.755 419.243 239.529C419.264 240.235 419.496 240.918 419.909 241.491C420.322 242.064 420.897 242.5 421.56 242.744C423.55 243.669 425.644 244.351 427.797 244.776L427.92 244.838C429.152 245.133 430.471 245.478 431.95 245.897C433.403 246.308 434.808 246.874 436.14 247.584C437.425 248.265 438.55 249.209 439.443 250.356C440.368 251.585 440.842 253.093 440.787 254.63C440.801 256.035 440.458 257.421 439.788 258.657C439.11 259.901 438.163 260.979 437.015 261.81C435.728 262.731 434.289 263.419 432.763 263.843C430.969 264.334 429.114 264.57 427.254 264.545Z" fill="url(#paint15_linear_506_10299)"/>
<path d="M470.143 229.909V234.59H451.04V244.32H469.712V249.001H451.04V259.556H470.143V264.237H446.357V229.909H470.143Z" fill="url(#paint16_linear_506_10299)"/>
<path d="M476.158 229.909H502.693V234.59H491.761V264.237H487.077V234.59H476.158V229.909Z" fill="url(#paint17_linear_506_10299)"/>
<path d="M561.049 229.909V264.237H556.378V239.209L545.385 256.994H542.39L531.396 239.209V264.237H526.688V229.909H531.125L543.943 250.565L556.686 229.909H561.049Z" fill="url(#paint18_linear_506_10299)"/>
<path d="M585.094 229.909L600.327 264.237H595.213L591.836 256.686H574.581L571.205 264.237H566.09L581.286 229.909H585.094ZM576.603 252.08H589.778L583.159 237.102L576.603 252.08Z" fill="url(#paint19_linear_506_10299)"/>
<path d="M634.984 229.909V264.237H631.287L610.002 238.519V264.237H605.319V229.909H608.942L630.214 255.689V229.909H634.984Z" fill="url(#paint20_linear_506_10299)"/>
<path d="M659.017 229.909L674.25 264.237H669.135L665.758 256.686H648.504L645.139 264.237H640.012L655.246 229.909H659.017ZM650.525 252.08H663.7L657.082 237.102L650.525 252.08Z" fill="url(#paint21_linear_506_10299)"/>
<path d="M694.733 245.515L711.408 245.454V247.067C711.429 249.371 711.011 251.657 710.176 253.804C709.387 255.871 708.211 257.769 706.713 259.396C705.232 261.002 703.437 262.285 701.438 263.165C698.308 264.562 694.82 264.946 691.461 264.263C688.102 263.581 685.041 261.866 682.705 259.359C681.221 257.741 680.058 255.856 679.278 253.804C677.603 249.469 677.603 244.665 679.278 240.33C680.064 238.281 681.226 236.397 682.705 234.775C684.194 233.179 685.987 231.898 687.979 231.006C690.091 230.058 692.382 229.579 694.696 229.602C697.169 229.582 699.615 230.109 701.861 231.144C704.106 232.178 706.095 233.696 707.686 235.588L704.063 238.581C702.922 237.237 701.506 236.153 699.91 235.403C698.277 234.647 696.496 234.264 694.696 234.282C693.065 234.267 691.448 234.594 689.951 235.243C688.517 235.877 687.222 236.79 686.143 237.928C685.045 239.101 684.186 240.478 683.617 241.98C682.4 245.262 682.4 248.872 683.617 252.154C684.183 253.662 685.042 255.043 686.143 256.219C687.223 257.353 688.517 258.261 689.951 258.891C691.446 259.55 693.063 259.881 694.696 259.864C696.1 259.876 697.495 259.634 698.813 259.15C700.076 258.687 701.252 258.013 702.288 257.155C703.318 256.279 704.2 255.243 704.901 254.088C705.637 252.89 706.158 251.573 706.442 250.196H694.758L694.733 245.515Z" fill="url(#paint22_linear_506_10299)"/>
<path d="M741.443 229.909V234.59H722.328V244.32H741V249.001H722.328V259.556H741.443V264.237H717.645V229.909H741.443Z" fill="url(#paint23_linear_506_10299)"/>
<path d="M782.705 229.909V264.237H778.022V239.209L767.016 256.994H764.022L753.028 239.209V264.237H748.345V229.909H752.782L765.513 250.565L778.256 229.909H782.705Z" fill="url(#paint24_linear_506_10299)"/>
<path d="M813.985 229.909V234.59H794.882V244.32H813.554V249.001H794.882V259.556H813.985V264.237H790.199V229.909H813.985Z" fill="url(#paint25_linear_506_10299)"/>
<path d="M850.577 229.909V264.237H846.879L825.595 238.519V264.237H820.912V229.909H824.535L845.893 255.689V229.909H850.577Z" fill="url(#paint26_linear_506_10299)"/>
<path d="M857.133 229.909H883.668V234.59H872.748V264.237H868.077V234.59H857.146L857.133 229.909Z" fill="url(#paint27_linear_506_10299)"/>
<path d="M935.998 258.867C934.388 260.499 932.507 261.841 930.439 262.833C928.365 263.786 926.104 264.265 923.821 264.237C921.501 264.261 919.203 263.791 917.08 262.857C915.081 261.977 913.285 260.694 911.805 259.088C910.309 257.456 909.131 255.56 908.329 253.496C906.67 249.158 906.67 244.36 908.329 240.022C909.133 237.96 910.312 236.064 911.805 234.43C913.285 232.825 915.081 231.542 917.08 230.661C919.203 229.727 921.501 229.257 923.821 229.281C926.123 229.235 928.406 229.706 930.501 230.661C932.547 231.669 934.406 233.018 935.998 234.651L932.621 237.965C931.556 236.722 930.236 235.722 928.751 235.033C927.21 234.309 925.524 233.942 923.821 233.962C922.177 233.952 920.549 234.284 919.039 234.935C917.591 235.558 916.287 236.472 915.206 237.62C914.13 238.798 913.293 240.175 912.741 241.672C911.525 244.954 911.525 248.564 912.741 251.846C913.29 253.345 914.127 254.722 915.206 255.898C916.287 257.046 917.591 257.96 919.039 258.583C920.549 259.235 922.177 259.566 923.821 259.556C925.524 259.576 927.21 259.21 928.751 258.485C930.236 257.796 931.556 256.796 932.621 255.553L935.998 258.867Z" fill="url(#paint28_linear_506_10299)"/>
<path d="M958.355 264.545C956.128 264.564 953.922 264.128 951.87 263.264C949.818 262.4 947.965 261.126 946.425 259.519C944.903 257.926 943.706 256.052 942.9 254.001C941.191 249.532 941.191 244.59 942.9 240.12C943.696 238.054 944.894 236.166 946.425 234.565C947.92 232.985 949.724 231.727 951.724 230.87C955.969 229.13 960.728 229.13 964.973 230.87C966.968 231.725 968.764 232.983 970.248 234.565C971.755 236.177 972.939 238.063 973.736 240.12C975.444 244.59 975.444 249.532 973.736 254.001C972.929 256.043 971.746 257.914 970.248 259.519C968.715 261.126 966.869 262.401 964.823 263.266C962.777 264.13 960.576 264.566 958.355 264.545ZM958.355 234.282C956.691 234.265 955.042 234.592 953.511 235.243C952.074 235.861 950.777 236.766 949.703 237.903C948.629 239.069 947.792 240.433 947.238 241.918C946.038 245.246 946.038 248.888 947.238 252.215C947.789 253.706 948.626 255.074 949.703 256.243C950.778 257.377 952.074 258.278 953.511 258.891C955.039 259.552 956.69 259.883 958.355 259.864C960.008 259.884 961.646 259.552 963.161 258.891C964.584 258.271 965.867 257.37 966.933 256.243C968.009 255.074 968.847 253.706 969.398 252.215C970.597 248.888 970.597 245.246 969.398 241.918C968.844 240.433 968.007 239.069 966.933 237.903C965.867 236.772 964.584 235.867 963.161 235.243C961.643 234.592 960.006 234.264 958.355 234.282Z" fill="url(#paint29_linear_506_10299)"/>
<path d="M986.257 261.552C986.265 261.926 986.196 262.298 986.057 262.645C985.917 262.992 985.708 263.307 985.444 263.572C985.185 263.84 984.875 264.053 984.532 264.199C984.189 264.345 983.82 264.42 983.447 264.42C983.075 264.42 982.706 264.345 982.363 264.199C982.02 264.053 981.71 263.84 981.451 263.572C981.186 263.307 980.978 262.992 980.838 262.645C980.699 262.298 980.63 261.926 980.637 261.552C980.637 260.807 980.934 260.093 981.46 259.566C981.987 259.04 982.702 258.744 983.447 258.744C984.193 258.744 984.907 259.04 985.434 259.566C985.961 260.093 986.257 260.807 986.257 261.552Z" fill="url(#paint30_linear_506_10299)"/>
<path d="M994.811 258.362C995.225 258.356 995.636 258.436 996.018 258.597C996.4 258.758 996.744 258.997 997.029 259.298C997.318 259.585 997.546 259.927 997.7 260.303C997.855 260.68 997.933 261.083 997.929 261.49C997.934 262.278 997.788 263.06 997.498 263.793C997.206 264.502 996.816 265.165 996.339 265.764C995.852 266.37 995.312 266.931 994.725 267.439L992.937 268.979L991.249 267.353C991.631 267.02 992.038 266.614 992.481 266.121C992.942 265.632 993.355 265.1 993.714 264.532C993.221 264.346 992.781 264.04 992.436 263.642C992.09 263.244 991.849 262.767 991.734 262.252C991.619 261.738 991.634 261.203 991.778 260.696C991.921 260.189 992.188 259.725 992.555 259.347C992.84 259.032 993.188 258.782 993.577 258.612C993.966 258.442 994.386 258.357 994.811 258.362Z" fill="url(#paint31_linear_506_10299)"/>
<path d="M1026.28 229.909V259.556H1042.7V264.237H1021.65V229.909H1026.28Z" fill="url(#paint32_linear_506_10299)"/>
<path d="M1045.55 229.909H1072.05V234.59H1061.12V264.237H1056.43V234.59H1045.55V229.909Z" fill="url(#paint33_linear_506_10299)"/>
<path d="M1088.69 264.237H1078.57V229.909H1088.69C1090.93 229.911 1093.17 230.218 1095.33 230.821C1097.47 231.401 1099.48 232.397 1101.23 233.752C1103.04 235.165 1104.49 236.978 1105.47 239.048C1106.54 241.582 1107.09 244.304 1107.09 247.054C1107.09 249.805 1106.54 252.527 1105.47 255.061C1104.49 257.135 1103.04 258.953 1101.23 260.369C1099.48 261.724 1097.47 262.72 1095.33 263.301C1093.17 263.912 1090.93 264.227 1088.69 264.237ZM1083.25 259.556H1088.69C1089.98 259.527 1091.28 259.4 1092.56 259.174C1094.14 258.907 1095.67 258.347 1097.05 257.524C1098.56 256.604 1099.83 255.337 1100.75 253.829C1101.78 251.743 1102.32 249.448 1102.32 247.122C1102.32 244.796 1101.78 242.502 1100.75 240.416C1099.84 238.904 1098.57 237.636 1097.05 236.72C1095.67 235.899 1094.14 235.335 1092.56 235.058C1091.28 234.836 1089.98 234.712 1088.69 234.688H1083.25V259.556Z" fill="url(#paint34_linear_506_10299)"/>
<path d="M1115 261.552C1115.01 261.926 1114.94 262.298 1114.8 262.645C1114.66 262.992 1114.45 263.307 1114.19 263.572C1113.93 263.84 1113.62 264.053 1113.27 264.199C1112.93 264.345 1112.56 264.42 1112.19 264.42C1111.82 264.42 1111.45 264.345 1111.1 264.199C1110.76 264.053 1110.45 263.84 1110.19 263.572C1109.93 263.307 1109.72 262.992 1109.58 262.645C1109.44 262.298 1109.37 261.926 1109.38 261.552C1109.38 260.807 1109.68 260.093 1110.2 259.566C1110.73 259.04 1111.44 258.744 1112.19 258.744C1112.93 258.744 1113.65 259.04 1114.18 259.566C1114.7 260.093 1115 260.807 1115 261.552Z" fill="url(#paint35_linear_506_10299)"/>
<defs>
<linearGradient id="paint0_linear_506_10299" x1="195.282" y1="168.201" x2="437.878" y2="-95.0496" gradientUnits="userSpaceOnUse">
<stop offset="0.17" stop-color="#67DCF7"/>
<stop offset="0.38" stop-color="#47B3D4"/>
<stop offset="0.66" stop-color="#2183AB"/>
<stop offset="0.88" stop-color="#096491"/>
<stop offset="1" stop-color="#005987"/>
</linearGradient>
<linearGradient id="paint1_linear_506_10299" x1="151.444" y1="33.9088" x2="15.9921" y2="374.408" gradientUnits="userSpaceOnUse">
<stop offset="0.37" stop-color="#67DCF7"/>
<stop offset="0.45" stop-color="#62D5F1"/>
<stop offset="0.58" stop-color="#53C2E1"/>
<stop offset="0.73" stop-color="#3AA3C6"/>
<stop offset="0.89" stop-color="#1878A2"/>
<stop offset="1" stop-color="#005987"/>
</linearGradient>
<linearGradient id="paint2_linear_506_10299" x1="96.3285" y1="11.9723" x2="-39.1357" y2="352.484" gradientUnits="userSpaceOnUse">
<stop offset="0.12" stop-color="#67DCF7"/>
<stop offset="0.26" stop-color="#64D8F3"/>
<stop offset="0.42" stop-color="#59CBE8"/>
<stop offset="0.58" stop-color="#48B5D6"/>
<stop offset="0.75" stop-color="#3197BC"/>
<stop offset="0.91" stop-color="#12709B"/>
<stop offset="1" stop-color="#005987"/>
</linearGradient>
<linearGradient id="paint3_linear_506_10299" x1="203.996" y1="224.97" x2="446.592" y2="-38.2807" gradientUnits="userSpaceOnUse">
<stop offset="0.15" stop-color="#67DCF7"/>
<stop offset="0.26" stop-color="#61D4F0"/>
<stop offset="0.45" stop-color="#4FBEDD"/>
<stop offset="0.67" stop-color="#3399BE"/>
<stop offset="0.93" stop-color="#0B6793"/>
<stop offset="1" stop-color="#005987"/>
</linearGradient>
<linearGradient id="paint4_linear_506_10299" x1="154.057" y1="129.353" x2="396.665" y2="-133.898" gradientUnits="userSpaceOnUse">
<stop offset="0.17" stop-color="#67DCF7"/>
<stop offset="0.47" stop-color="#3EA8CA"/>
<stop offset="0.83" stop-color="#116F9A"/>
<stop offset="1" stop-color="#005987"/>
</linearGradient>
<linearGradient id="paint5_linear_506_10299" x1="207.002" y1="-36.2489" x2="68.2491" y2="450.33" gradientUnits="userSpaceOnUse">
<stop offset="0.36" stop-color="#67DCF7"/>
<stop offset="0.45" stop-color="#60D4F0"/>
<stop offset="0.59" stop-color="#4EBCDC"/>
<stop offset="0.76" stop-color="#3197BC"/>
<stop offset="0.96" stop-color="#086390"/>
<stop offset="1" stop-color="#005987"/>
</linearGradient>
<linearGradient id="paint6_linear_506_10299" x1="401.817" y1="94.8658" x2="356.705" y2="191.649" gradientUnits="userSpaceOnUse">
<stop offset="0.2" stop-color="#67DCF7"/>
<stop offset="0.48" stop-color="#65D9F5"/>
<stop offset="0.67" stop-color="#5ED1ED"/>
<stop offset="0.82" stop-color="#52C2E1"/>
<stop offset="0.96" stop-color="#42ADCF"/>
<stop offset="1" stop-color="#3BA5C8"/>
</linearGradient>
<linearGradient id="paint7_linear_506_10299" x1="514.006" y1="106.555" x2="470.754" y2="199.346" gradientUnits="userSpaceOnUse">
<stop offset="0.2" stop-color="#67DCF7"/>
<stop offset="0.48" stop-color="#65D9F5"/>
<stop offset="0.67" stop-color="#5ED1ED"/>
<stop offset="0.82" stop-color="#52C2E1"/>
<stop offset="0.96" stop-color="#42ADCF"/>
<stop offset="1" stop-color="#3BA5C8"/>
</linearGradient>
<linearGradient id="paint8_linear_506_10299" x1="628.723" y1="94.8781" x2="574.512" y2="211.201" gradientUnits="userSpaceOnUse">
<stop offset="0.2" stop-color="#67DCF7"/>
<stop offset="0.48" stop-color="#65D9F5"/>
<stop offset="0.67" stop-color="#5ED1ED"/>
<stop offset="0.82" stop-color="#52C2E1"/>
<stop offset="0.96" stop-color="#42ADCF"/>
<stop offset="1" stop-color="#3BA5C8"/>
</linearGradient>
<linearGradient id="paint9_linear_506_10299" x1="730.696" y1="106.629" x2="687.468" y2="199.384" gradientUnits="userSpaceOnUse">
<stop offset="0.2" stop-color="#67DCF7"/>
<stop offset="0.48" stop-color="#65D9F5"/>
<stop offset="0.67" stop-color="#5ED1ED"/>
<stop offset="0.82" stop-color="#52C2E1"/>
<stop offset="0.96" stop-color="#42ADCF"/>
<stop offset="1" stop-color="#3BA5C8"/>
</linearGradient>
<linearGradient id="paint10_linear_506_10299" x1="886.786" y1="99.4475" x2="835.494" y2="209.499" gradientUnits="userSpaceOnUse">
<stop offset="0.2" stop-color="#67DCF7"/>
<stop offset="0.48" stop-color="#65D9F5"/>
<stop offset="0.67" stop-color="#5ED1ED"/>
<stop offset="0.82" stop-color="#52C2E1"/>
<stop offset="0.96" stop-color="#42ADCF"/>
<stop offset="1" stop-color="#3BA5C8"/>
</linearGradient>
<linearGradient id="paint11_linear_506_10299" x1="979.615" y1="94.0898" x2="931.93" y2="196.405" gradientUnits="userSpaceOnUse">
<stop offset="0.2" stop-color="#67DCF7"/>
<stop offset="0.48" stop-color="#65D9F5"/>
<stop offset="0.67" stop-color="#5ED1ED"/>
<stop offset="0.82" stop-color="#52C2E1"/>
<stop offset="0.96" stop-color="#42ADCF"/>
<stop offset="1" stop-color="#3BA5C8"/>
</linearGradient>
<linearGradient id="paint12_linear_506_10299" x1="1096.64" y1="120.978" x2="1049.27" y2="222.603" gradientUnits="userSpaceOnUse">
<stop offset="0.2" stop-color="#67DCF7"/>
<stop offset="0.48" stop-color="#65D9F5"/>
<stop offset="0.67" stop-color="#5ED1ED"/>
<stop offset="0.82" stop-color="#52C2E1"/>
<stop offset="0.96" stop-color="#42ADCF"/>
<stop offset="1" stop-color="#3BA5C8"/>
</linearGradient>
<linearGradient id="paint13_linear_506_10299" x1="375.725" y1="234.06" x2="361.148" y2="270.192" gradientUnits="userSpaceOnUse">
<stop offset="0.2" stop-color="#67DCF7"/>
<stop offset="0.49" stop-color="#65D9F5"/>
<stop offset="0.67" stop-color="#5ED1EE"/>
<stop offset="0.82" stop-color="#53C3E1"/>
<stop offset="0.95" stop-color="#42AED0"/>
<stop offset="1" stop-color="#3BA5C8"/>
</linearGradient>
<linearGradient id="paint14_linear_506_10299" x1="403.825" y1="230.784" x2="390.578" y2="263.602" gradientUnits="userSpaceOnUse">
<stop offset="0.2" stop-color="#67DCF7"/>
<stop offset="0.49" stop-color="#65D9F5"/>
<stop offset="0.67" stop-color="#5ED1EE"/>
<stop offset="0.82" stop-color="#53C3E1"/>
<stop offset="0.95" stop-color="#42AED0"/>
<stop offset="1" stop-color="#3BA5C8"/>
</linearGradient>
<linearGradient id="paint15_linear_506_10299" x1="434.168" y1="230.784" x2="420.921" y2="263.602" gradientUnits="userSpaceOnUse">
<stop offset="0.2" stop-color="#67DCF7"/>
<stop offset="0.49" stop-color="#65D9F5"/>
<stop offset="0.67" stop-color="#5ED1EE"/>
<stop offset="0.82" stop-color="#53C3E1"/>
<stop offset="0.95" stop-color="#42AED0"/>
<stop offset="1" stop-color="#3BA5C8"/>
</linearGradient>
<linearGradient id="paint16_linear_506_10299" x1="465.879" y1="228.185" x2="450.637" y2="265.955" gradientUnits="userSpaceOnUse">
<stop offset="0.2" stop-color="#67DCF7"/>
<stop offset="0.49" stop-color="#65D9F5"/>
<stop offset="0.67" stop-color="#5ED1EE"/>
<stop offset="0.82" stop-color="#53C3E1"/>
<stop offset="0.95" stop-color="#42AED0"/>
<stop offset="1" stop-color="#3BA5C8"/>
</linearGradient>
<linearGradient id="paint17_linear_506_10299" x1="492.537" y1="225.82" x2="478.428" y2="260.745" gradientUnits="userSpaceOnUse">
<stop offset="0.2" stop-color="#67DCF7"/>
<stop offset="0.49" stop-color="#65D9F5"/>
<stop offset="0.67" stop-color="#5ED1EE"/>
<stop offset="0.82" stop-color="#53C3E1"/>
<stop offset="0.95" stop-color="#42AED0"/>
<stop offset="1" stop-color="#3BA5C8"/>
</linearGradient>
<linearGradient id="paint18_linear_506_10299" x1="552.262" y1="226.362" x2="535.53" y2="267.791" gradientUnits="userSpaceOnUse">
<stop offset="0.2" stop-color="#67DCF7"/>
<stop offset="0.49" stop-color="#65D9F5"/>
<stop offset="0.67" stop-color="#5ED1EE"/>
<stop offset="0.82" stop-color="#53C3E1"/>
<stop offset="0.95" stop-color="#42AED0"/>
<stop offset="1" stop-color="#3BA5C8"/>
</linearGradient>
<linearGradient id="paint19_linear_506_10299" x1="595.385" y1="234.06" x2="580.796" y2="270.192" gradientUnits="userSpaceOnUse">
<stop offset="0.2" stop-color="#67DCF7"/>
<stop offset="0.49" stop-color="#65D9F5"/>
<stop offset="0.67" stop-color="#5ED1EE"/>
<stop offset="0.82" stop-color="#53C3E1"/>
<stop offset="0.95" stop-color="#42AED0"/>
<stop offset="1" stop-color="#3BA5C8"/>
</linearGradient>
<linearGradient id="paint20_linear_506_10299" x1="628.193" y1="227.175" x2="612.127" y2="266.978" gradientUnits="userSpaceOnUse">
<stop offset="0.2" stop-color="#67DCF7"/>
<stop offset="0.49" stop-color="#65D9F5"/>
<stop offset="0.67" stop-color="#5ED1EE"/>
<stop offset="0.82" stop-color="#53C3E1"/>
<stop offset="0.95" stop-color="#42AED0"/>
<stop offset="1" stop-color="#3BA5C8"/>
</linearGradient>
<linearGradient id="paint21_linear_506_10299" x1="669.308" y1="234.06" x2="654.731" y2="270.192" gradientUnits="userSpaceOnUse">
<stop offset="0.2" stop-color="#67DCF7"/>
<stop offset="0.49" stop-color="#65D9F5"/>
<stop offset="0.67" stop-color="#5ED1EE"/>
<stop offset="0.82" stop-color="#53C3E1"/>
<stop offset="0.95" stop-color="#42AED0"/>
<stop offset="1" stop-color="#3BA5C8"/>
</linearGradient>
<linearGradient id="paint22_linear_506_10299" x1="701.241" y1="230.895" x2="688.178" y2="263.245" gradientUnits="userSpaceOnUse">
<stop offset="0.2" stop-color="#67DCF7"/>
<stop offset="0.49" stop-color="#65D9F5"/>
<stop offset="0.67" stop-color="#5ED1EE"/>
<stop offset="0.82" stop-color="#53C3E1"/>
<stop offset="0.95" stop-color="#42AED0"/>
<stop offset="1" stop-color="#3BA5C8"/>
</linearGradient>
<linearGradient id="paint23_linear_506_10299" x1="737.179" y1="228.185" x2="721.925" y2="265.955" gradientUnits="userSpaceOnUse">
<stop offset="0.2" stop-color="#67DCF7"/>
<stop offset="0.49" stop-color="#65D9F5"/>
<stop offset="0.67" stop-color="#5ED1EE"/>
<stop offset="0.82" stop-color="#53C3E1"/>
<stop offset="0.95" stop-color="#42AED0"/>
<stop offset="1" stop-color="#3BA5C8"/>
</linearGradient>
<linearGradient id="paint24_linear_506_10299" x1="773.918" y1="226.362" x2="757.187" y2="267.791" gradientUnits="userSpaceOnUse">
<stop offset="0.2" stop-color="#67DCF7"/>
<stop offset="0.49" stop-color="#65D9F5"/>
<stop offset="0.67" stop-color="#5ED1EE"/>
<stop offset="0.82" stop-color="#53C3E1"/>
<stop offset="0.95" stop-color="#42AED0"/>
<stop offset="1" stop-color="#3BA5C8"/>
</linearGradient>
<linearGradient id="paint25_linear_506_10299" x1="809.733" y1="228.185" x2="794.479" y2="265.955" gradientUnits="userSpaceOnUse">
<stop offset="0.2" stop-color="#67DCF7"/>
<stop offset="0.49" stop-color="#65D9F5"/>
<stop offset="0.67" stop-color="#5ED1EE"/>
<stop offset="0.82" stop-color="#53C3E1"/>
<stop offset="0.95" stop-color="#42AED0"/>
<stop offset="1" stop-color="#3BA5C8"/>
</linearGradient>
<linearGradient id="paint26_linear_506_10299" x1="843.798" y1="227.175" x2="827.719" y2="266.978" gradientUnits="userSpaceOnUse">
<stop offset="0.2" stop-color="#67DCF7"/>
<stop offset="0.49" stop-color="#65D9F5"/>
<stop offset="0.67" stop-color="#5ED1EE"/>
<stop offset="0.82" stop-color="#53C3E1"/>
<stop offset="0.95" stop-color="#42AED0"/>
<stop offset="1" stop-color="#3BA5C8"/>
</linearGradient>
<linearGradient id="paint27_linear_506_10299" x1="873.537" y1="225.82" x2="859.428" y2="260.745" gradientUnits="userSpaceOnUse">
<stop offset="0.2" stop-color="#67DCF7"/>
<stop offset="0.49" stop-color="#65D9F5"/>
<stop offset="0.67" stop-color="#5ED1EE"/>
<stop offset="0.82" stop-color="#53C3E1"/>
<stop offset="0.95" stop-color="#42AED0"/>
<stop offset="1" stop-color="#3BA5C8"/>
</linearGradient>
<linearGradient id="paint28_linear_506_10299" x1="929.873" y1="230.377" x2="916.798" y2="262.752" gradientUnits="userSpaceOnUse">
<stop offset="0.2" stop-color="#67DCF7"/>
<stop offset="0.49" stop-color="#65D9F5"/>
<stop offset="0.67" stop-color="#5ED1EE"/>
<stop offset="0.82" stop-color="#53C3E1"/>
<stop offset="0.95" stop-color="#42AED0"/>
<stop offset="1" stop-color="#3BA5C8"/>
</linearGradient>
<linearGradient id="paint29_linear_506_10299" x1="964.862" y1="230.87" x2="951.787" y2="263.232" gradientUnits="userSpaceOnUse">
<stop offset="0.2" stop-color="#67DCF7"/>
<stop offset="0.49" stop-color="#65D9F5"/>
<stop offset="0.67" stop-color="#5ED1EE"/>
<stop offset="0.82" stop-color="#53C3E1"/>
<stop offset="0.95" stop-color="#42AED0"/>
<stop offset="1" stop-color="#3BA5C8"/>
</linearGradient>
<linearGradient id="paint30_linear_506_10299" x1="984.507" y1="258.928" x2="982.377" y2="264.213" gradientUnits="userSpaceOnUse">
<stop offset="0.2" stop-color="#67DCF7"/>
<stop offset="0.49" stop-color="#65D9F5"/>
<stop offset="0.67" stop-color="#5ED1EE"/>
<stop offset="0.82" stop-color="#53C3E1"/>
<stop offset="0.95" stop-color="#42AED0"/>
<stop offset="1" stop-color="#3BA5C8"/>
</linearGradient>
<linearGradient id="paint31_linear_506_10299" x1="996.093" y1="258.633" x2="992.054" y2="268.623" gradientUnits="userSpaceOnUse">
<stop offset="0.2" stop-color="#67DCF7"/>
<stop offset="0.49" stop-color="#65D9F5"/>
<stop offset="0.67" stop-color="#5ED1EE"/>
<stop offset="0.82" stop-color="#53C3E1"/>
<stop offset="0.95" stop-color="#42AED0"/>
<stop offset="1" stop-color="#3BA5C8"/>
</linearGradient>
<linearGradient id="paint32_linear_506_10299" x1="1037.32" y1="234.368" x2="1024.75" y2="265.486" gradientUnits="userSpaceOnUse">
<stop offset="0.2" stop-color="#67DCF7"/>
<stop offset="0.49" stop-color="#65D9F5"/>
<stop offset="0.67" stop-color="#5ED1EE"/>
<stop offset="0.82" stop-color="#53C3E1"/>
<stop offset="0.95" stop-color="#42AED0"/>
<stop offset="1" stop-color="#3BA5C8"/>
</linearGradient>
<linearGradient id="paint33_linear_506_10299" x1="1061.91" y1="225.82" x2="1047.81" y2="260.745" gradientUnits="userSpaceOnUse">
<stop offset="0.2" stop-color="#67DCF7"/>
<stop offset="0.49" stop-color="#65D9F5"/>
<stop offset="0.67" stop-color="#5ED1EE"/>
<stop offset="0.82" stop-color="#53C3E1"/>
<stop offset="0.95" stop-color="#42AED0"/>
<stop offset="1" stop-color="#3BA5C8"/>
</linearGradient>
<linearGradient id="paint34_linear_506_10299" x1="1096.65" y1="231.202" x2="1082.65" y2="265.868" gradientUnits="userSpaceOnUse">
<stop offset="0.2" stop-color="#67DCF7"/>
<stop offset="0.49" stop-color="#65D9F5"/>
<stop offset="0.67" stop-color="#5ED1EE"/>
<stop offset="0.82" stop-color="#53C3E1"/>
<stop offset="0.95" stop-color="#42AED0"/>
<stop offset="1" stop-color="#3BA5C8"/>
</linearGradient>
<linearGradient id="paint35_linear_506_10299" x1="1113.25" y1="258.928" x2="1111.12" y2="264.213" gradientUnits="userSpaceOnUse">
<stop offset="0.2" stop-color="#67DCF7"/>
<stop offset="0.49" stop-color="#65D9F5"/>
<stop offset="0.67" stop-color="#5ED1EE"/>
<stop offset="0.82" stop-color="#53C3E1"/>
<stop offset="0.95" stop-color="#42AED0"/>
<stop offset="1" stop-color="#3BA5C8"/>
</linearGradient>
</defs>
</svg>
