<svg width="505" height="520" viewBox="0 0 505 520" fill="none" xmlns="http://www.w3.org/2000/svg">
<path d="M216.869 203.644C216.869 209.155 215.275 214.548 212.281 219.174C209.287 223.801 205.019 227.463 199.992 229.72L116.287 267.29L107.416 271.269L94.5172 277.036L89.7595 279.179L85.915 280.9L40.0595 301.478L39.2234 301.852C26.4019 290.444 16.4254 277.93 9.86084 264.637L70.7004 237.303L70.9791 237.188L80.4751 232.92L95.5456 226.192L101.312 223.597L216.831 171.696L216.869 203.644Z" fill="#D81E1E"/>
<path d="M495.251 191.592L287.34 285.782V233.305C287.319 227.759 288.891 222.323 291.867 217.644C294.843 212.964 299.099 209.236 304.13 206.902L450.414 139.796C450.837 140.104 463.611 150.138 468.791 155.174C472.552 158.818 476.108 162.669 479.441 166.708C485.828 174.238 491.148 182.611 495.251 191.592Z" fill="url(#paint0_linear_506_36055)"/>
<path d="M216.869 247.27V366.45C197.475 364.96 178.207 362.134 159.202 357.992C152.512 356.531 145.983 354.929 139.614 353.186C109.511 344.873 82.9072 333.329 61.1857 319.422C60.3015 318.855 59.4365 318.288 58.5811 317.721L98.7755 299.459L105.042 296.681L107.224 295.72L119.719 290.194L131.819 284.86L216.869 247.27Z" fill="url(#paint1_linear_506_36055)"/>
<path d="M216.341 87.0881C216.333 90.0329 215.297 92.8824 213.41 95.1432C211.523 97.404 208.905 98.9337 206.009 99.4675C134.683 112.875 80.3889 157.049 71.4504 211.343C70.8931 215.219 69.3682 218.892 67.0165 222.024C64.6647 225.155 61.5619 227.643 57.9946 229.258L5.08437 253.075C5.01812 252.908 4.96039 252.738 4.91137 252.566L4.66147 252.681C1.59056 244.04 0.0141852 234.94 0 225.77C0 155.203 94.0177 96.8436 216.341 87.0881Z" fill="url(#paint2_linear_506_36055)"/>
<path d="M504.709 227.154C504.712 230.043 504.554 232.931 504.238 235.804V235.881C496.876 303.064 405.068 357.502 287.33 366.527C287.335 363.746 288.311 361.053 290.091 358.915C291.871 356.778 294.341 355.329 297.076 354.82C362.048 342.624 412.911 304.899 428.241 257.208C429.081 254.6 429.811 251.96 430.433 249.288C431.429 244.978 433.409 240.958 436.219 237.541C439.028 234.124 442.591 231.404 446.628 229.595L501.643 205.048C503.68 212.24 504.712 219.679 504.709 227.154Z" fill="url(#paint3_linear_506_36055)"/>
<path d="M425.954 124.043L287.33 187.17V87.0303C309.022 88.6525 330.553 91.9722 351.726 96.9587L352.504 97.1413C359.021 98.6984 365.393 100.406 371.621 102.264L372.89 102.639C383.705 105.888 394.343 109.699 404.761 114.057C412.162 117.171 419.226 120.5 425.954 124.043Z" fill="url(#paint4_linear_506_36055)"/>
<path d="M274.354 0V489.417C274.354 497.528 271.132 505.307 265.397 511.042C259.661 516.778 251.882 520 243.771 520H230.315V30.5831C230.315 30.0545 230.315 29.5355 230.315 29.0165C230.574 22.4397 233.055 16.1449 237.351 11.1587C237.527 10.915 237.723 10.6867 237.937 10.4763C238.168 10.2072 238.399 9.95728 238.648 9.70739C241.5 6.65036 244.95 4.21398 248.785 2.55036C252.62 0.886746 256.757 0.0316338 260.937 0.0384241L274.354 0Z" fill="url(#paint5_linear_506_36055)"/>
<defs>
<linearGradient id="paint0_linear_506_36055" x1="324.237" y1="279.449" x2="727.297" y2="-157.664" gradientUnits="userSpaceOnUse">
<stop offset="0.17" stop-color="#67DCF7"/>
<stop offset="0.38" stop-color="#47B3D4"/>
<stop offset="0.66" stop-color="#2183AB"/>
<stop offset="0.88" stop-color="#096491"/>
<stop offset="1" stop-color="#005987"/>
</linearGradient>
<linearGradient id="paint1_linear_506_36055" x1="251.451" y1="56.3221" x2="26.3062" y2="621.928" gradientUnits="userSpaceOnUse">
<stop offset="0.37" stop-color="#67DCF7"/>
<stop offset="0.45" stop-color="#62D5F1"/>
<stop offset="0.58" stop-color="#53C2E1"/>
<stop offset="0.73" stop-color="#3AA3C6"/>
<stop offset="0.89" stop-color="#1878A2"/>
<stop offset="1" stop-color="#005987"/>
</linearGradient>
<linearGradient id="paint2_linear_506_36055" x1="159.932" y1="19.8955" x2="-65.2127" y2="585.501" gradientUnits="userSpaceOnUse">
<stop offset="0.12" stop-color="#67DCF7"/>
<stop offset="0.26" stop-color="#64D8F3"/>
<stop offset="0.42" stop-color="#59CBE8"/>
<stop offset="0.58" stop-color="#48B5D6"/>
<stop offset="0.75" stop-color="#3197BC"/>
<stop offset="0.91" stop-color="#12709B"/>
<stop offset="1" stop-color="#005987"/>
</linearGradient>
<linearGradient id="paint3_linear_506_36055" x1="338.702" y1="373.755" x2="741.762" y2="-63.3478" gradientUnits="userSpaceOnUse">
<stop offset="0.15" stop-color="#67DCF7"/>
<stop offset="0.26" stop-color="#61D4F0"/>
<stop offset="0.45" stop-color="#4FBEDD"/>
<stop offset="0.67" stop-color="#3399BE"/>
<stop offset="0.93" stop-color="#0B6793"/>
<stop offset="1" stop-color="#005987"/>
</linearGradient>
<linearGradient id="paint4_linear_506_36055" x1="255.795" y1="214.909" x2="658.855" y2="-222.204" gradientUnits="userSpaceOnUse">
<stop offset="0.17" stop-color="#67DCF7"/>
<stop offset="0.47" stop-color="#3EA8CA"/>
<stop offset="0.83" stop-color="#116F9A"/>
<stop offset="1" stop-color="#005987"/>
</linearGradient>
<linearGradient id="paint5_linear_506_36055" x1="343.69" y1="-60.234" x2="113.058" y2="748.095" gradientUnits="userSpaceOnUse">
<stop offset="0.36" stop-color="#67DCF7"/>
<stop offset="0.45" stop-color="#60D4F0"/>
<stop offset="0.59" stop-color="#4EBCDC"/>
<stop offset="0.76" stop-color="#3197BC"/>
<stop offset="0.96" stop-color="#086390"/>
<stop offset="1" stop-color="#005987"/>
</linearGradient>
</defs>
</svg>
